<?xml version="1.0" encoding="utf-8"?>
<!-- Generator: Adobe Illustrator 16.0.0, SVG Export Plug-In . SVG Version: 6.00 Build 0)  -->
<!DOCTYPE svg PUBLIC "-//W3C//DTD SVG 1.1//EN" "http://www.w3.org/Graphics/SVG/1.1/DTD/svg11.dtd">
<svg version="1.1" id="Layer_1" xmlns="http://www.w3.org/2000/svg" xmlns:xlink="http://www.w3.org/1999/xlink" x="0px" y="0px"
	 width="960px" height="400.08px" viewBox="0 0 960 400.08" enable-background="new 0 0 960 400.08" xml:space="preserve">
<g>
	<defs>
		<rect id="SVGID_1_" width="960" height="400.08"/>
	</defs>
	<clipPath id="SVGID_2_">
		<use xlink:href="#SVGID_1_"  overflow="visible"/>
	</clipPath>
	<g clip-path="url(#SVGID_2_)">
		<defs>
			<rect id="SVGID_3_" width="960" height="400.08"/>
		</defs>
		<clipPath id="SVGID_4_">
			<use xlink:href="#SVGID_3_"  overflow="visible"/>
		</clipPath>
		
			<radialGradient id="SVGID_5_" cx="0" cy="400.0801" r="1" gradientTransform="matrix(724.4638 -434.9782 -434.9782 -724.4638 174422.2344 290136.1875)" gradientUnits="userSpaceOnUse">
			<stop  offset="0" style="stop-color:#D48B87"/>
			<stop  offset="0.6561" style="stop-color:#883065"/>
			<stop  offset="1" style="stop-color:#883065"/>
		</radialGradient>
		<polygon clip-path="url(#SVGID_4_)" fill="url(#SVGID_5_)" points="-176.563,106.011 705.624,-423.667 1136.563,294.069 
			254.375,823.747 		"/>
	</g>
	<g clip-path="url(#SVGID_2_)">
		<defs>
			<rect id="SVGID_6_" width="960" height="400.08"/>
		</defs>
		<clipPath id="SVGID_7_">
			<use xlink:href="#SVGID_6_"  overflow="visible"/>
		</clipPath>
		<path clip-path="url(#SVGID_7_)" fill="#5B0F4C" d="M253.361,225.884l3.028-6.171l20.407-9.504l-1.975,3.579
			c0,0,14.351-5.677,14.088-6.047c-0.263-0.371,9.216-12.466,9.216-12.466h-4.608l3.028-5.554l6.846-4.69l-0.658,5.184
			c0,0,7.636-6.048,8.426-8.023s4.477-14.688,4.477-14.688l-2.502,1.728l2.502-4.937c0,0-9.348,2.469-11.455,0.988l-4.476,4.196
			c0,0-7.505,2.962-8.163,2.716l-0.79-1.728c0,0-12.639,8.639-12.112,8.022c0.526-0.617,11.586-13.576,11.586-13.576
			s1.58,0,3.159-0.618l0.132,3.333l9.348-8.763c0,0,0.132,1.604,1.185,1.234c1.053-0.37,6.846-7.652,6.846-7.652h3.95l-1.712,6.418
			l6.057-0.741l8.557-15.921l1.975-0.988c0,0,0.395-2.098,0-3.332c-0.395-1.235,0.176-3.333,0.176-3.333l-3.204-2.777l3.818-6.973
			v2.098c0,0,8.295-10.121,9.48-10.121l4.344-11.108l-3.159,2.098c0,0,4.871-8.022,5.661-8.639c0,0,1.185,0.864,1.58,0
			c0.395-0.864,4.871-14.071,4.476-15.799l5.267-0.864l14.746-20.735l4.412-0.554c-0.508-0.434-0.419-0.145-0.419-0.145
			s-3.247-2.222-3.95-2.387c-0.702-0.164-5.793,4.361-5.793,4.361c-0.965,0-2.194,0.494-2.194,0.494
			c-2.194,2.633-14.57,12.425-14.57,12.425l-2.107-2.222c0,0-1.229,0.494-2.282,0.659c-1.053,0.164-5.354,5.019-5.354,5.019
			s-21.921,23.882-23.764,25.302c-1.844,1.419-10.27,3.394-10.27,3.394s-2.567,2.53-12.705,11.972
			c-10.138,9.442-10.796,5.575-10.796,5.575c-1.887-3.209-3.292-1.815-3.292-1.815c-0.658,0.86-6.451,2.843-6.451,2.843
			l-8.821,0.247c-0.527-3.332-1.975-3.086-1.975-3.086s-26.99,6.542-28.702,7.282c-1.711,0.741-9.742,9.998-9.742,9.998
			l-8.822,1.111l-10.401,7.035l-46.739,18.842c-4.827-0.74-5.441,0.576-5.441,0.576l-10.182,8.393l3.774,5.678
			c-4.827,4.69-26.946,18.513-26.946,18.513c-4.564-2.633-5.881-1.398-5.881-1.398l-12.2,6.418v31.103h117.961
			c9.807-4.987,29.892-12.959,29.892-12.959L253.361,225.884z"/>
		<path clip-path="url(#SVGID_7_)" fill="#9C5177" d="M152.247,206.013c0,0,7.373-4.196,7.373-5.554
			c0-1.358,3.028-13.058,3.028-13.058l7.768-0.519l14.351-4.566l12.376,1.481l15.931-6.665c0,0-16.326,9.429-16.326,10.269
			c0,0.839-13.429,5.159-12.771,8.491c0.658,3.333-16.589,7.899-16.589,7.899s-1.185-2.838-2.765-2.838
			S152.247,206.013,152.247,206.013"/>
		<path clip-path="url(#SVGID_7_)" fill="#9C5177" d="M193.588,177.131c0,0,4.081-2.468,4.476-3.209
			c0.395-0.741,11.06-3.332,11.06-3.332s-5.925,4.443-6.583,6.541C202.541,177.131,198.328,175.404,193.588,177.131"/>
		<path clip-path="url(#SVGID_7_)" fill="#9C5177" d="M230.519,168.554c0,0,16.655-12.096,17.576-18.452
			c0,0,5.793-5.369,6.518-5.245c0.724,0.123,7.702-4.135,7.702-4.135l-1.251-1.173l6.517-2.653v2.468c0,0,6.056-0.247,7.834-3.209
			c0,0,10.467-2.468,12.178-4.381c0,0-16.128,9.565-15.865,10.244c0.264,0.679,0.79,2.839,0.79,2.839s-8.294,4.319-8.294,4.134
			v-2.406l-13.298,8.516l1.119,1.481L230.519,168.554z"/>
	</g>
	<g clip-path="url(#SVGID_2_)">
		<defs>
			<path id="SVGID_8_" d="M182.082,193.522l1.158,2.797c51.864-18.884,106.769-153.729,109.082-159.46l-2.995-1.061
				C288.768,37.189,232.622,175.12,182.082,193.522"/>
		</defs>
		<clipPath id="SVGID_9_">
			<use xlink:href="#SVGID_8_"  overflow="visible"/>
		</clipPath>
		
			<linearGradient id="SVGID_10_" gradientUnits="userSpaceOnUse" x1="0" y1="400.0811" x2="1" y2="400.0811" gradientTransform="matrix(-55.8601 207.961 207.961 55.8601 -82948.4531 -22290.8906)">
			<stop  offset="0" style="stop-color:#C91127"/>
			<stop  offset="0.3016" style="stop-color:#C91127"/>
			<stop  offset="0.7884" style="stop-color:#3E0042"/>
			<stop  offset="1" style="stop-color:#3E0042"/>
		</linearGradient>
		<polygon clip-path="url(#SVGID_9_)" fill="url(#SVGID_10_)" points="332.538,46.601 284.903,223.938 141.866,185.517 189.5,8.179 
					"/>
	</g>
	<g clip-path="url(#SVGID_2_)">
		<defs>
			<rect id="SVGID_11_" width="960" height="400.08"/>
		</defs>
		<clipPath id="SVGID_12_">
			<use xlink:href="#SVGID_11_"  overflow="visible"/>
		</clipPath>
		<path clip-path="url(#SVGID_12_)" fill="#3E0042" d="M-16.854,150.842l77.337-22.702h9.601l12.801,3.633v7.718l6.4,0.737
			l5.867,7.773l2.667,3.494h8l35.735,13.874L62.35,217.141c0,0-93.605-1.65-94.138-5.325
			C-32.321,208.141-16.854,150.842-16.854,150.842"/>
		<polygon clip-path="url(#SVGID_12_)" fill="#B58D97" points="444.875,323.804 211.604,323.804 211.604,237.318 444.875,224.568 		
			"/>
		<path clip-path="url(#SVGID_12_)" fill="#2C104B" d="M1036.424,165.64h-12.365l1.234-0.127c0,0-22.242-4.25-24.375-4.25
			c-2.134,0-18.134-8.415-18.134-8.415l-11.023-3.485l-3.911,3.485l-17.778-6.46l-7.112-4.25l-2.489-2.55l-2.488-4.675l-4.979,2.125
			h-10.667l-6.756,2.975h-4.979v4.25h-6.399l-8.179-4.25l-3.2,2.55h-4.979l-8.889,7.65l-4.801,1.779l-24.355-7.168
			c0,0-5.375-2.52-7.167,0c-1.792,2.519-19.708,0-19.708,0l-7.764-4.199l-5.375,1.12h-5.375l-4.778-2.24l-19.709,1.68v-5.151
			l-11.347-3.807l-10.75-8.398h-5.375h-5.375l-7.167,2.799l-7.167-2.799l-16.722,20.155l-12.542,8.398l-7.167-3.359
			c0,0-10.153,2.239-14.333,3.919c-4.182,1.68-50.267,16.821-50.267,16.821l-46.402,3.377v152.167H1020V208.64h16.424V165.64z"/>
	</g>
	<g clip-path="url(#SVGID_2_)">
		<defs>
			<path id="SVGID_13_" d="M372.908,61.73l-14.746,20.735l-5.267,0.865c0.395,1.728-4.081,14.933-4.475,15.797
				c-0.395,0.864-1.581,0-1.581,0c-0.79,0.618-5.661,8.64-5.661,8.64l3.16-2.098l-4.345,11.108c-1.184,0-9.48,10.121-9.48,10.121
				V124.8l-3.818,6.973l3.205,2.777c0,0-0.571,2.098-0.176,3.333c0.395,1.234,0,3.332,0,3.332l-1.975,0.987l-8.558,15.922
				l-6.057,0.741l1.712-6.418h-3.949c0,0-5.793,7.282-6.846,7.652c-1.054,0.37-1.186-1.234-1.186-1.234l-9.348,8.763l-0.131-3.333
				c-1.58,0.618-3.16,0.618-3.16,0.618s-11.059,12.959-11.586,13.576c-0.527,0.618,12.112-8.022,12.112-8.022l0.79,1.728
				c0.659,0.246,8.163-2.716,8.163-2.716l4.477-4.196c2.106,1.481,11.454-0.988,11.454-0.988l-2.502,4.938l2.502-1.728
				c0,0-3.686,12.712-4.476,14.687c-0.79,1.974-8.426,8.022-8.426,8.022l0.658-5.184l-6.846,4.69l-3.029,5.555h4.609
				c0,0-9.48,12.095-9.217,12.466c0.264,0.37-14.087,6.047-14.087,6.047l1.975-3.579l-20.408,9.504l-3.027,6.171l-4.214-1.48
				c0,0-20.085,7.972-29.892,12.96l352.394,43.198l105.26-68.379l-12.112-3.948l-32.652-11.355l-27.911-16.457l-11.235-1.809v-5.102
				l-7.688-4.202l-8.989,4.49c0,0,1.053-5.43,0-5.801c-0.526-0.185-2.437,0.926-4.23,2.037c-1.793,1.111-3.472,2.222-3.538,2.036
				c-0.131-0.371,0,6.047,0,6.047l-13.955,8.394l0.395-3.21l-2.766,1.482l-3.291,2.616v2.197l-20.67,10.491l7.241,1.605l-6.518,5.06
				l-24.291,0.864l-10.795,3.95L519.05,193.3l1.579,0.987l3.16-1.975l10.401-1.603l1.448-3.309l3.817-2.37l-0.394-1.851l0.922-0.864
				l-1.581-0.493l-5.266,1.357l-3.687-1.111l26.068-16.909l1.975-0.864v-1.851l2.166-1.462l-9.319-7.466
				c0,0-1.229-0.247-1.931-0.576c-0.702-0.329-4.389-4.607-4.389-4.607c-7.9,0.246-11.938-5.267-11.938-5.267
				s-5.091-8.722-7.021-9.298c-1.932-0.576-4.478-4.319-5.617-6.253c-1.142-1.934-1.449-1.481-1.449-1.481s-6.154-1.234-6.616-1.728
				c-0.461-0.494-1.152-1.82-1.152-1.82s-3.85-0.093-4.146-0.155c-0.296-0.061-1.646,1.728-1.646,1.728s-2.698,0.155-2.863,0.062
				s-2.107-2.129-2.107-2.129s-1.25-0.278-1.843-0.34c-0.592-0.062-1.317-2.438-1.317-2.438l-1.315-0.555l-2.132-0.121
				c-0.469,0.509-0.807,1.074-0.931,1.695c-0.657,3.333-5.003,6.665-5.003,6.665v-2.468c-0.789,0.37-6.845,2.344-6.845,2.344
				l-5.531,4.69l-0.789-1.48l-11.587,9.133c8.164-4.813,10.928-4.937,10.928-4.937c3.029,1.111,8.294-0.617,8.294-0.617
				l-2.896,3.517c0,0-1.186-0.185-3.16,1.173c-1.975,1.357-3.687,4.813-4.608,4.937c-0.922,0.124-1.317,2.345-1.448,2.715
				c-0.132,0.37-4.872,2.963-6.715,2.425c-1.844-0.537-10.928,7.202-10.928,7.202h-7.899l3.817-3.085l-2.106-0.371
				c0,0-3.423,2.099-4.213,3.579c-0.79,1.482-29.36,6.789-29.36,6.789l21.855-17.279l-0.658-0.987l6.978-6.419l11.323-1.728
				l2.896-2.098l1.053,0.864l3.029-2.592l-1.448-0.741l18.553-15.84c-0.238-0.114-0.462-0.226-0.648-0.328
				c-2.37-1.296-2.896-0.988-2.896-0.988c-2.633,2.839-10.533,2.099-10.533,2.099c-25.806-4.443-24.884-10.368-24.884-10.368
				s-3.511-8.722-4.213-8.968c-0.702-0.248-4.739-1.482-5.442-1.728c-0.702-0.248-6.758-8.97-7.636-9.628
				c-0.878-0.657-3.686,1.317-4.916,1.728c-1.228,0.412-2.018-1.398-3.861-2.057c-1.844-0.658-3.862,0.083-3.862,0.083
				c-3.072-5.102-7.198-8.229-7.198-8.229s-5.178-5.431-5.968-5.019c-0.79,0.411-6.232-1.069-6.232-1.069
				c-3.775-4.855-4.652-3.621-4.652-3.621s-0.439-1.07-3.16-4.197c-1.092-1.254-1.698-1.867-2.039-2.158L372.908,61.73z"/>
		</defs>
		<clipPath id="SVGID_14_">
			<use xlink:href="#SVGID_13_"  overflow="visible"/>
		</clipPath>
		
			<linearGradient id="SVGID_15_" gradientUnits="userSpaceOnUse" x1="0" y1="400.1523" x2="1" y2="400.1523" gradientTransform="matrix(288.1074 -279.6024 -279.6024 -288.1074 112201.2266 115584.2734)">
			<stop  offset="0" style="stop-color:#9C6577"/>
			<stop  offset="0.3228" style="stop-color:#9C6577"/>
			<stop  offset="0.5608" style="stop-color:#9C5177"/>
			<stop  offset="1" style="stop-color:#9C5177"/>
		</linearGradient>
		<polygon clip-path="url(#SVGID_14_)" fill="url(#SVGID_15_)" points="109.613,167.583 454.937,-167.548 786.553,174.154 
			441.228,509.285 		"/>
	</g>
	<g clip-path="url(#SVGID_2_)">
		<defs>
			<path id="SVGID_16_" d="M286.736,15.353l-0.042,2.732l-2.914,0.019l-0.017,1.123l-10.342,0.067v12.521l6.87-0.044
				c0.109-0.001,4.06,0.036,3.921,9.092c-0.015,0.968-0.028,1.809,0.03,2.55c0.372-0.003,0.671,0.269,0.666,0.611l-0.022,1.379
				l-0.113,7.319l-0.055,3.612c-0.017,1.102-1.004,2.002-2.205,2.009l-9.092,0.059v15.27l6.225-0.04
				c0.108-0.001,4.062,0.04,3.91,9.933c-0.017,1.054-0.031,1.974,0.026,2.784c0.372-0.003,0.669,0.299,0.664,0.672l-0.023,1.504
				l-0.124,7.997l-0.06,3.945c-0.019,1.205-1.006,2.187-2.208,2.195l-8.41,0.054v8.668l7.795-0.05
				c0.147-0.002,5.387,0.057,5.186,13.181c-0.022,1.401-0.04,2.615,0.038,3.694c0.493-0.003,0.889,0.393,0.881,0.887l-0.03,1.999
				l-0.164,10.607l-0.08,5.233c-0.024,1.6-1.337,2.905-2.933,2.915l-10.693,0.07v9.694l7.053-0.046
				c0.148,0,5.388,0.057,5.186,13.177c-0.022,1.402-0.04,2.619,0.038,3.695c0.493-0.004,0.889,0.397,0.881,0.891l-0.031,1.999
				l-0.023,1.522l-0.14,9.08l-0.08,5.238l-0.2,13.043l-12.684,0.082v3.083l7.239-0.047l-7.239,6.344v4.048l11.892-10.422
				l0.744-0.005l-0.344,22.35l-0.255,0.002l-12.037-10.685v4.163l7.38,6.55l-7.38,0.049v3.082l6.848-0.045l-6.848,6.005v4.049
				l11.501-10.082l0.743-0.006l-0.343,22.354l-0.255,0.001l-11.646-10.336v4.161l6.989,6.205l-6.989,0.045v3.084l11.854-0.078
				l-0.199,12.909l-11.655,0.075v20.616l54.7-0.354l0.119-7.71l-28.695,0.186l0.198-12.908l-3.264,0.021l0.199-12.909l-2.115,0.015
				l2.454-159.54l-2.305,0.015l0.571-37.126l-2.305,0.015l0.641-41.618l-4.1,0.026l0.048-3.083l0.024-1.604l0.06-3.854
				L286.736,15.353z"/>
		</defs>
		<clipPath id="SVGID_17_">
			<use xlink:href="#SVGID_16_"  overflow="visible"/>
		</clipPath>
		
			<linearGradient id="SVGID_18_" gradientUnits="userSpaceOnUse" x1="0" y1="400.0801" x2="1" y2="400.0801" gradientTransform="matrix(-20.0035 410.0722 410.0722 20.0035 -163752.7031 -8017.04)">
			<stop  offset="0" style="stop-color:#C93D27"/>
			<stop  offset="0.1429" style="stop-color:#C93D27"/>
			<stop  offset="0.3016" style="stop-color:#C91127"/>
			<stop  offset="0.7884" style="stop-color:#3E0042"/>
			<stop  offset="1" style="stop-color:#3E0042"/>
		</linearGradient>
		<polygon clip-path="url(#SVGID_17_)" fill="url(#SVGID_18_)" points="341.887,16.001 328.11,298.432 259.774,295.099 
			273.551,12.667 		"/>
	</g>
	<g clip-path="url(#SVGID_2_)">
		<defs>
			<rect id="SVGID_19_" width="960" height="400.08"/>
		</defs>
		<clipPath id="SVGID_20_">
			<use xlink:href="#SVGID_19_"  overflow="visible"/>
		</clipPath>
		<path clip-path="url(#SVGID_20_)" fill="#5B0F4C" d="M385.679,88.02c0,0-6.32,3.785-6.583,4.196
			c-0.263,0.412-3.599,5.102-3.599,5.102s7.285-3.374,7.285-3.703S385.679,88.02,385.679,88.02"/>
		<path clip-path="url(#SVGID_20_)" fill="#5B0F4C" d="M339.203,206.877l4.081-5.924c0,0-2.238,0-2.04-1.111
			c0.197-1.111,0.066,0.247,2.04-2.098c1.975-2.345,5.662-10.738,7.373-10.862c1.712-0.123,2.37-1.974,2.37-1.974v-1.358
			c0,0-4.476,2.098-6.056,2.962c-1.58,0.864-4.608,8.146-15.009,10.861l-12.376,12.219c0,0,8.558,0.247,11.454-1.481
			C333.937,206.383,339.203,206.877,339.203,206.877"/>
		<path clip-path="url(#SVGID_20_)" fill="#5B0F4C" d="M348.814,183.138c0.263-0.329,8.251-6.007,9.392-8.311
			c1.141-2.303,5.88-3.62,5.88-3.62l-6.056,7.652l-3.247,1.152l-0.703,1.07L348.814,183.138z"/>
		<path clip-path="url(#SVGID_20_)" fill="#5B0F4C" d="M410.036,98.14l-7.856,7.488c0,0-1.228-0.659-7.987,1.646
			c0,0-1.47,0.988-2.392-0.308c0,0,0.527-1.728,0.527-2.53l-8.69,3.198c0,0,1.185,1.985-4.739,3.59l-15.865,26.166
			c0,0,4.147-3.271,4.937-3.086s1.185-0.617,1.185-0.617l2.896,1.481c0,0,0.856,3.394,3.818,5.493l-1.974,4.196
			c0,0-0.33,1.111,1.119,2.53c0,0,0.658,0.802,0.065,2.962c-0.592,2.16-1.25,2.654-1.25,2.654l0.066,1.296l-0.856,5.616
			c0,0,0.724,2.715,0.131,4.381l2.436-1.111l-3.489,6.233h-1.316l-4.543,6.604c0,0,5.069-4.382,6.057-4.814
			c0.987-0.432,13.363-14.564,13.363-14.564l7.9-14.194l-5.662,2.716c0,0-0.131-1.05-0.131-1.358c0-0.309,1.316-2.283,1.316-2.283
			s-5.529-5.493-5.924-8.146l-1.778,0.185c0,0,8.558-9.627,11.389-14.688c0,0,1.316,0.803,2.04,0.124
			c0.725-0.679,2.239-2.839,2.239-2.839s0.987,0.185,1.053,1.358c0.066,1.172-0.132,3.209-0.132,3.209s2.107,1.172,2.831,2.036
			s0.263,1.666,0.79,2.283c0.526,0.618,1.58,1.975,1.58,1.975l-1.778,4.875c0,0,2.107-1.295,2.634-2.406
			c0.526-1.111,6.648-11.911,6.648-11.911s-2.238-3.949-1.316-5.615c0,0-1.778,0.863-5.53,0.493L410.036,98.14z"/>
		<path clip-path="url(#SVGID_20_)" fill="#5B0F4C" d="M403.683,145.165c0,0,0.461,2.098,0.56,2.129
			c0.098,0.031,1.547,1.08,1.547,1.08s-6.945,3.271-6.945,3.116C398.845,151.335,403.683,145.165,403.683,145.165"/>
		<path clip-path="url(#SVGID_20_)" fill="#5B0F4C" d="M395.29,158.988l-6.188,8.269l1.251,0.432c0,0-2.304,1.111-3.489,2.222
			c-1.185,1.111-5.267,6.11-5.267,6.11l0.659,1.151L370.801,187.4l9.282-13.416l-1.185-1.419c0,0,3.094-3.518,3.621-4.505
			c0,0,4.213,0.061,5.069-1.049C388.444,165.9,393.052,159.358,395.29,158.988"/>
	</g>
	<g clip-path="url(#SVGID_2_)">
		<defs>
			<path id="SVGID_21_" d="M152.511,186.002l1.159,2.798c51.864-18.886,106.77-153.73,109.082-159.461l-2.993-1.062
				C259.198,29.668,203.056,167.598,152.511,186.002"/>
		</defs>
		<clipPath id="SVGID_22_">
			<use xlink:href="#SVGID_21_"  overflow="visible"/>
		</clipPath>
		
			<linearGradient id="SVGID_23_" gradientUnits="userSpaceOnUse" x1="0" y1="400.0811" x2="1" y2="400.0811" gradientTransform="matrix(-55.8601 207.961 207.961 55.8601 -82977.9922 -22298.3691)">
			<stop  offset="0" style="stop-color:#C91127"/>
			<stop  offset="0.3016" style="stop-color:#C91127"/>
			<stop  offset="0.7884" style="stop-color:#3E0042"/>
			<stop  offset="1" style="stop-color:#3E0042"/>
		</linearGradient>
		<polygon clip-path="url(#SVGID_22_)" fill="url(#SVGID_23_)" points="302.968,39.08 255.333,216.419 112.295,177.998 
			159.93,0.658 		"/>
	</g>
	<g clip-path="url(#SVGID_2_)">
		<defs>
			<path id="SVGID_24_" d="M491.597,183.154v1.209c-7.002,0.195-13.847,0.404-20.542,0.626
				C477.788,184.371,484.634,183.76,491.597,183.154 M193.588,215.023h18.263c0,0,77.095-18.41,287.213-23.857v-15.683
				C299.978,192.402,193.588,215.023,193.588,215.023"/>
		</defs>
		<clipPath id="SVGID_25_">
			<use xlink:href="#SVGID_24_"  overflow="visible"/>
		</clipPath>
		
			<linearGradient id="SVGID_26_" gradientUnits="userSpaceOnUse" x1="0" y1="400.0977" x2="1" y2="400.0977" gradientTransform="matrix(359.4774 -130.284 -130.284 -359.4774 52365.3281 144060.7656)">
			<stop  offset="0" style="stop-color:#C91127"/>
			<stop  offset="0.3016" style="stop-color:#C91127"/>
			<stop  offset="0.7884" style="stop-color:#3E0042"/>
			<stop  offset="1" style="stop-color:#3E0042"/>
		</linearGradient>
		<polygon clip-path="url(#SVGID_25_)" fill="url(#SVGID_26_)" points="180.921,180.074 463.598,77.625 511.73,210.433 
			229.055,312.882 		"/>
	</g>
	<g clip-path="url(#SVGID_2_)">
		<defs>
			<rect id="SVGID_27_" width="960" height="400.08"/>
		</defs>
		<clipPath id="SVGID_28_">
			<use xlink:href="#SVGID_27_"  overflow="visible"/>
		</clipPath>
		<path clip-path="url(#SVGID_28_)" fill="#5B0F4C" d="M486.267,140.228l-8.031,8.102v1.525c0,0-2.897,0.196-2.897,1.641
			c0,1.445,0.922,2.432,0.922,2.432l-1.712,2.962c0,0-21.197,13.207-29.623,19.995l15.009-13.33c0,0,2.107-1.481,2.502-2.222
			c0.395-0.74,0.526-2.221,0.526-2.221l2.634-1.728l-1.317-1.358l3.95-3.826l-0.395-1.851l5.134-3.209l3.687-0.124l1.185-1.851
			L486.267,140.228z"/>
		<path clip-path="url(#SVGID_28_)" fill="#5B0F4C" d="M516.021,168.615c0,0,5.201-4.752,5.135-5.369
			c-0.065-0.617,5.332-4.567,5.332-4.567l0.856-2.715c0,0,4.213-2.592,4.674-4.752l5.332-0.37c0,0-5.464,5.06-5.268,5.06
			c0.198,0,1.712-0.123,1.712-0.123l-1.316,3.332l-2.699,0.124l-7.965,5.06l-0.132,0.617L516.021,168.615z"/>
		<path clip-path="url(#SVGID_28_)" fill="#5B0F4C" d="M557.494,164.295l-1.975,0.864l-26.068,16.909l3.686,1.111l5.267-1.358
			l1.58,0.494l-0.921,0.864l0.395,1.851l-3.819,2.37l-1.447,3.308l-10.401,1.604l-3.16,1.975l-1.58-0.987l-25.146,18.266
			l10.796-3.949l24.291-0.864l6.517-5.061l-7.241-1.604l20.67-10.491V187.4l3.293-2.617l2.764-1.481l-0.396,3.209l13.956-8.393
			c0,0-0.131-6.418,0-6.047c0.133,0.37,6.715-4.444,7.769-4.073c1.053,0.37,0,5.801,0,5.801l8.989-4.491l-3.525-1.927l-6.451-2.222
			l-4.104-3.744c-1.932,0.494-11.235-0.164-11.235-0.164l-0.335-0.269l-2.166,1.462V164.295z"/>
		<path clip-path="url(#SVGID_28_)" fill="#5B0F4C" d="M458.354,132.205l-3.028,2.592l-1.053-0.864l-2.897,2.098l-11.323,1.728
			l-6.978,6.418l0.659,0.987l-21.856,17.28c0,0,28.57-5.307,29.36-6.788c0.79-1.482,4.213-3.58,4.213-3.58l2.107,0.371l-3.818,3.085
			h7.899c0,0,9.085-7.739,10.928-7.202c1.843,0.537,6.583-2.055,6.715-2.425c0.131-0.37,0.526-2.592,1.448-2.715
			c0.922-0.124,2.633-3.58,4.608-4.938c1.975-1.358,3.16-1.173,3.16-1.173l2.896-3.517c0,0-5.266,1.728-8.294,0.617
			c0,0-2.765,0.123-10.928,4.937l11.586-9.134l0.79,1.481l5.53-4.69c0,0,6.056-1.974,6.846-2.345v2.469c0,0,4.345-3.333,5.003-6.665
			c0.123-0.621,0.461-1.186,0.929-1.695l-2.771-0.156c-5.642,0.682-11.831-1.41-14.625-2.758l-18.553,15.84L458.354,132.205z"/>
		<path clip-path="url(#SVGID_28_)" fill="#5B0F4C" d="M547.093,195.563l6.495-1.563l-4.037,5.677c0,0-7.899,1.564-7.899,1.234
			c0-0.329,5.969-4.031,5.969-4.031L547.093,195.563z"/>
		<path clip-path="url(#SVGID_28_)" fill="#631551" d="M884.329,277.261c-0.454,1.067-6.376,8.966-6.376,8.966l-7.287,6.404
			l-2.732,4.911c0,0,3.415,1.708,3.871,0c0.455-1.708,2.732-5.124,2.732-5.124l6.376-5.551l-2.732,6.405l5.466-5.338l3.645-0.641
			c0,0,3.643-10.033,6.376-9.82c2.732,0.214,6.376-1.114,6.376-1.114l1.821-1.874l9.109-5.765l0.911-1.28l4.555-0.428l12.297-7.897
			l10.248-1.922c0,0,4.1-7.259,6.148-7.259c2.05,0,9.793,1.067,9.793,1.067V247.8l8.881-3.416l7.971-7.472h3.871l1.366-4.483
			l5.921-5.337l2.278,2.775c0,0,23.911-19.427,23.911-21.563c0-2.135-1.14-5.55,0-5.977c1.139-0.427,6.148-2.775,6.148-2.775
			l-1.367-8.113l22.053-9.116l-0.418-23.76l-20.04,8.539l-3.036,7.629l-11.538,0.242v12.054l-8.502,4.554l-7.896,14.233
			l-7.287-2.848l-12.146,19.925c0,0-14.574,13.095-17.003,17.079c-1.655,2.715-32.044,18.369-51.258,28.077
			C890.263,272.678,884.521,276.811,884.329,277.261 M997.435,201.545c0.759-1.139,1.67-3.985,2.429-4.127
			c0.76-0.143,6.832-1.851,6.832-1.851l-3.492,5.978l-8.502,3.985L997.435,201.545z"/>
	</g>
	<g clip-path="url(#SVGID_2_)">
		<defs>
			<path id="SVGID_29_" d="M954.925,247.8v3.202c0,0-7.743-1.066-9.792-1.066s-6.148,7.258-6.148,7.258l-10.247,1.922l-12.298,7.897
				l-4.555,0.429l-0.911,1.279l-9.108,5.765l-1.822,1.874c0,0-3.644,1.328-6.376,1.114c-2.734-0.213-6.377,9.821-6.377,9.821
				l-3.644,0.641l-5.466,5.337l2.733-6.405l-6.377,5.551c0,0-2.277,3.416-2.732,5.123c-0.456,1.708-3.872,0-3.872,0l2.733-4.909
				l7.288-6.404c0,0,5.92-7.899,6.375-8.967c0.192-0.449,5.934-4.583,12.507-9.212c-8.994,4.545-15.542,7.789-15.542,7.789
				l-12.754,14.231l-3.644,2.847l-18.218,23.91l-11.538,3.986l-3.645,10.245l46.761,3.417L960,321.398v-75.551L954.925,247.8z"/>
		</defs>
		<clipPath id="SVGID_30_">
			<use xlink:href="#SVGID_29_"  overflow="visible"/>
		</clipPath>
		
			<linearGradient id="SVGID_31_" gradientUnits="userSpaceOnUse" x1="0" y1="399.9844" x2="1" y2="399.9844" gradientTransform="matrix(-311.8667 340.8776 340.8776 311.8667 -135330.7969 -124580.9688)">
			<stop  offset="0" style="stop-color:#9C5177"/>
			<stop  offset="0.2116" style="stop-color:#9C5177"/>
			<stop  offset="0.6561" style="stop-color:#5A0E47"/>
			<stop  offset="0.9153" style="stop-color:#5A0E4F"/>
			<stop  offset="1" style="stop-color:#5A0E4F"/>
		</linearGradient>
		<polygon clip-path="url(#SVGID_30_)" fill="url(#SVGID_31_)" points="1004.139,286.23 901.448,398.474 787.357,294.093 
			890.048,181.85 		"/>
	</g>
	<g clip-path="url(#SVGID_2_)">
		<defs>
			<path id="SVGID_32_" d="M255.435,236.95l12.234,10.854l-12.57,11.017L255.435,236.95z M255.827,211.514l12.233,10.855
				l-12.57,11.02L255.827,211.514z M259.291,15.531l-0.059,3.854l-0.025,1.605l-0.048,3.083l-4.483,0.029l-0.64,41.618l-2.949,0.019
				l-0.572,37.126l-3.074,0.02l-2.454,159.539l-2.11,0.015l-0.199,12.908l-3.269,0.021l-0.199,12.909l-28.69,0.186l-0.119,7.709
				l63.02-0.408v-20.616l-18.575,0.121l0.199-12.909l18.376-0.118v-3.084l-14.186,0.092l10.734-9.409l3.452,3.067v-4.161
				l-1.095-0.971l1.095-0.96v-4.049l-3.39,2.973l-9.964-8.845l13.354-0.088v-3.082l-13.795,0.09l10.733-9.404l3.062,2.716v-4.163
				l-0.704-0.624l0.704-0.616v-4.048l-2.999,2.628l-9.964-8.841l12.963-0.084v-3.083l-17.547,0.114l0.201-13.043l0.08-5.238
				l0.141-9.08l0.023-1.522l0.031-1.999c0.007-0.494,0.416-0.9,1.004-0.903c0.016-1.076,0.035-2.295,0.057-3.695
				c0.199-13.051,16.111-13.315,5.595-13.248l13.492-0.087l-3.077-9.674l-13.76,0.089c-1.595,0.01-2.869-1.277-2.844-2.878
				l0.081-5.233l0.163-10.607l0.03-1.999c0.008-0.494,0.416-0.895,1.005-0.899c0.016-1.08,0.035-2.294,0.056-3.695
				c0.202-13.123,5.444-13.251,5.596-13.252l14.916-0.096l-5.243-8.635l-10.024,0.066c-1.202,0.007-2.16-0.962-2.141-2.167
				l0.06-3.946l0.123-7.996l0.024-1.504c0.005-0.374,0.313-0.679,0.754-0.681c0.012-0.811,0.026-1.731,0.042-2.784
				c0.155-10.03,4.015-9.989,4.218-9.986l10.354-0.068l-3.411-15.248l-9.342,0.061c-1.203,0.008-2.162-0.88-2.145-1.981l0.056-3.612
				l0.112-7.32l0.022-1.379c0.005-0.342,0.311-0.617,0.752-0.62c0.012-0.741,0.026-1.583,0.04-2.549
				c0.141-9.185,4.001-9.148,4.205-9.146l6.3-0.041V19.294l-8.36,0.054l0.017-1.124l-2.914,0.019l0.041-2.731L259.291,15.531z"/>
		</defs>
		<clipPath id="SVGID_33_">
			<use xlink:href="#SVGID_32_"  overflow="visible"/>
		</clipPath>
		
			<linearGradient id="SVGID_34_" gradientUnits="userSpaceOnUse" x1="0" y1="400.0625" x2="1" y2="400.0625" gradientTransform="matrix(-20.0112 410.229 410.229 20.0112 -163867.5469 -8022.6777)">
			<stop  offset="0" style="stop-color:#C93D27"/>
			<stop  offset="0.1429" style="stop-color:#C93D27"/>
			<stop  offset="0.3016" style="stop-color:#C91127"/>
			<stop  offset="0.7884" style="stop-color:#3E0042"/>
			<stop  offset="1" style="stop-color:#3E0042"/>
		</linearGradient>
		<polygon clip-path="url(#SVGID_33_)" fill="url(#SVGID_34_)" points="287.079,16.178 273.271,299.239 196.743,295.506 
			210.551,12.445 		"/>
	</g>
	<g clip-path="url(#SVGID_2_)">
		<defs>
			<polygon id="SVGID_35_" points="618.719,227.577 637.047,286.715 696.25,313.11 843.567,312.108 911.194,299.66 782.269,240.33 
				676.909,212.183 626.913,204.375 			"/>
		</defs>
		<clipPath id="SVGID_36_">
			<use xlink:href="#SVGID_35_"  overflow="visible"/>
		</clipPath>
		
			<linearGradient id="SVGID_37_" gradientUnits="userSpaceOnUse" x1="0" y1="400.1484" x2="1" y2="400.1484" gradientTransform="matrix(251.5487 190.5034 190.5034 -251.5487 -75573.0703 100833.9453)">
			<stop  offset="0" style="stop-color:#9C5177"/>
			<stop  offset="0.2116" style="stop-color:#9C5177"/>
			<stop  offset="0.6561" style="stop-color:#5A0E47"/>
			<stop  offset="0.9153" style="stop-color:#5A0E4F"/>
			<stop  offset="1" style="stop-color:#5A0E4F"/>
		</linearGradient>
		<polygon clip-path="url(#SVGID_36_)" fill="url(#SVGID_37_)" points="725.323,63.611 963.526,244.008 804.59,453.874 
			566.387,273.478 		"/>
	</g>
	<g clip-path="url(#SVGID_2_)">
		<defs>
			<path id="SVGID_38_" d="M125.462,166.129c0,0-0.999,3.806-1.374,4.508c-0.375,0.703-5.869,2.868-5.869,2.868
				s-3.684-3.512-4.371-4.273c-0.687-0.761-3.185,0-3.185,0s-1.31,0-3.809,0.468c-2.497,0.469-5.182-0.468-5.182-0.468
				s-12.175,19.316-13.486,20.545c-1.312,1.229-2.997,2.283-2.997,2.283l-2.249,5.97l-1.311-0.351c0,0-2.622,1.054-6.368,1.229
				c-3.747,0.176-11.052-3.16-11.052-3.16c-3.184,2.458-11.051,1.58-11.051,1.58c-3.747,1.58-11.052,2.81-12.925,3.336
				c-1.874,0.527,0,2.284,0,2.284l-5.245,2.282L-24,213.08L1.832,344.305c0,0,701.501-2.106,701.501,0
				c0-1.918,111.31-32.001,111.31-32.001s-112.844-26.32-113.593-26.496s-39.489-20.172-39.489-20.172l-5.993-7.374l-7.892-8.972
				l-2.224,0.316l-5.494,3.152l2.622,5.62c0,0-9.741,3.628-10.489,3.511c-0.75-0.116-5.12,3.513-5.12,3.513l4.121,2.692
				c0,0,0.999,2.225,1.123,3.629c0.125,1.405,1.624,3.133,1.624,3.133l2.622,3.306l1.499,6.205l-5.495-5.385l-3.126-1.756v-2.37
				c0,0-1.744-3.483-2.368-5.239c-0.625-1.756-5.371-0.703-5.371-0.703s-2.621-5.97-2.871-6.556c-0.25-0.585,4.62-3.16,4.62-3.16
				l0.874-1.171c0,0,3.496-0.819,4.246-1.64c0.749-0.818,3.246-6.205,3.246-6.205l2.865-2.574h-3.364c0,0-1.499-1.055-1.998-1.756
				c-0.33-0.464,4.452-4.087,7.743-6.499l-0.125-0.057c0,0,0.375-4.741-2.81-6.674c-3.186-1.931-4.496-11.413-5.433-11.063
				c-0.435,0.163-1.674-0.391-3.063-0.944c-1.61-0.64-3.425-1.282-4.43-0.812c-1.872,0.878-9.365,6.321-9.365,6.321l-26.975-4.916
				l-1.311-2.162c0,0-5.058,0.056-6.556,1.108c-1.498,1.054-13.861-4.039-16.297-5.97c-2.435-1.933-0.937-11.941-0.937-11.941
				s-16.858-1.581-17.233,0.878c-0.374,2.458-7.867,5.794-7.867,5.794l-8.804,1.405l-10.49-4.038v-10.361c0,0-1.311,1.23-4.308,1.23
				s-5.433,8.603-5.433,8.603s-6.556,3.337-9.739,1.934c-3.186-1.405-3.935-3.688-3.935-3.688s-10.303,5.092-11.613,5.444
				c-1.311,0.351-2.997-2.986-2.997-2.986s-2.81,3.863-3.747,4.391c-0.936,0.526-19.48,17.735-20.791,19.666
				c-1.312,1.933-44.769,8.604-48.89,9.308c-4.121,0.702-20.418,6.497-20.418,6.497s-12.425,10.303-12.425,11.122
				s-16.484,7.258-16.484,7.258l-2.497-0.703c0,0-6.244,8.781-7.868,9.483c-1.623,0.702-14.557,6.116-14.557,6.116
				c-2.249-0.937-8.534,0-8.534,0c-16.61,2.107-30.136-1.207-30.136-1.207l-9.211,1.646l-1.375-3.629c0,0-0.748-3.628-1.498-2.926
				c-0.749,0.702-4.995,0-4.995,0l-6.243-9.601c-2.432-1.772-4.241-6.01-5.391-9.527c-1.886-0.212-4.508-0.474-4.569-0.306
				c-0.093,0.265-4.308,1.58-4.308,1.58l0.937,0.615l0.187,1.405l2.154,1.931l-5.901,3.6l-12.175,4.039l-0.562-2.283l-9.74-4.038
				c0,0-4.121-4.741-5.433-4.478c-1.311,0.263-3.933-0.351-5.151-1.229c-1.217-0.877-11.614,3.95-11.614,3.95l9.647,3.426
				l0.75,2.896l3.184,0.965c1.78,3.601,11.708,13.171,11.708,13.171s-12.832-9.395-13.345-10.272
				c-0.514-0.878-6.043-1.404-6.043-1.404l-1.405-1.494c0,0-4.87-1.315-6.462-1.492c-1.592-0.175-7.773-3.6-7.773-3.6l-4.028,2.897
				l2.247,4.653c-14.798,0.088-32.967,8.078-32.967,8.078l3.465-5.795l6.744-7.99c10.583-2.546,24.445-16.594,24.445-16.594
				l4.307,2.021c5.62-11.767,15.37-23.238,15.37-23.238l-2.101-2.226c0,0,3.871-1.286,4.183-2.633
				c0.167-0.718-0.888-4.121-1.929-7.173c-0.693-0.861-1.193-1.52-1.193-1.52c-4.776-0.264-20.979-6.409-20.979-6.409l1.124-5.619
				c-1.03-0.79-2.248-7.025-2.248-7.025s0.937-4.858,0.687-5.618c-0.25-0.762-1.312-0.82-1.873-0.82
				c-0.562,0-9.366-5.678-9.366-5.678s-3.434-13.638-3.621-15.101c-0.187-1.464-4.496-3.395-6.057-3.337
				c-1.561,0.059-12.426-3.571-13.487-5.444c-0.793-1.397-1.341-1.263-1.775-1.129c-0.148,0.045-0.284,0.091-0.41,0.076
				c-0.499-0.058-4.433,0-4.433,0c-2.123,1.287-5.433,0.176-5.433,0.176s-1.936,9.95-2.123,10.36s-5.307-7.375-5.307-7.375
				l-4.183,1.17l-0.937-4.448c0,0-0.999,0.351-1.81,0.351c-0.812,0-4.434-1.112-4.434-1.112L125.462,166.129z"/>
		</defs>
		<clipPath id="SVGID_39_">
			<use xlink:href="#SVGID_38_"  overflow="visible"/>
		</clipPath>
		
			<linearGradient id="SVGID_40_" gradientUnits="userSpaceOnUse" x1="0" y1="400.0566" x2="1" y2="400.0566" gradientTransform="matrix(-173.966 270.3675 270.3675 173.966 -107624.9844 -69547.4453)">
			<stop  offset="0" style="stop-color:#682159"/>
			<stop  offset="0.1376" style="stop-color:#682159"/>
			<stop  offset="0.6561" style="stop-color:#5A0E47"/>
			<stop  offset="0.9153" style="stop-color:#5A0E4F"/>
			<stop  offset="1" style="stop-color:#5A0E4F"/>
		</linearGradient>
		<polygon clip-path="url(#SVGID_39_)" fill="url(#SVGID_40_)" points="900.861,210.31 576.655,714.171 -84.386,288.828 
			239.819,-215.033 		"/>
	</g>
	<g clip-path="url(#SVGID_2_)">
		<defs>
			<rect id="SVGID_41_" width="960" height="400.08"/>
		</defs>
		<clipPath id="SVGID_42_">
			<use xlink:href="#SVGID_41_"  overflow="visible"/>
		</clipPath>
		<path clip-path="url(#SVGID_42_)" fill="#A14765" d="M135.015,165.369c0,0,5.245,6.673,4.87,9.658c0,0,2.81-0.527,3.84,0
			s0,2.897,0,2.897l4.683,2.195l4.683-0.878c0,0-4.402-2.37-4.402-2.897c0-0.527,0.937-4.478,0.656-5.005
			c-0.281-0.526-1.592-1.404-6.65-0.702L135.015,165.369z"/>
		<path clip-path="url(#SVGID_42_)" fill="#A14765" d="M158.523,174.149l8.242,5.531h4.027c0,0,1.03,0.966,1.499,2.81
			c0.468,1.844,0.843,3.161,0.843,3.161l-2.342,2.107l0.937,4.829l2.248,2.722c0,0,4.308,0.79,5.057,2.985
			c0.749,2.195,2.061,9.834,2.061,9.834l1.405,0.702c0,0,6.462,13.96,5.994,13.96c-0.469,0-7.868-0.352-10.396,1.316l-0.281-3.072
			h-12.082l-0.188,1.054l-7.024,4.302c0,0-0.375-1.668-1.405-1.932c-1.03-0.263-10.49,1.932-10.49,1.932s1.78-2.283,1.686-3.862
			l9.834-4.039l-1.311-2.371c0,0,2.623-2.02,3.185-1.844l-0.562-0.176c0,0,1.311-10.887-1.499-17.472l1.311-1.932l-0.187-2.107
			l2.903-2.546L158.523,174.149z"/>
		<path clip-path="url(#SVGID_42_)" fill="#A14765" d="M131.456,264.935c0,0,7.867-4.215,18.857-4.917l12.362-11.355
			c0,0,6.994,0.937,13.987-1.756l-1.249-2.693l6.743-0.936l1.374,1.873v-4.684c0,0-14.486-6.321-13.362-7.141
			c1.124-0.82,1.998-1.873,1.998-1.873l-1.748-1.639l0.374-0.819c0,0-4.37,0.351-7.617,0l-0.749,2.341l-10.365,5.034
			c0,0-13.112,14.633-15.985,16.389L131.456,264.935z"/>
		<path clip-path="url(#SVGID_42_)" fill="#A14765" d="M238.882,289.781l8.617,0.615l7.867-6.234l6.462,5.005
			c0,0,5.526-1.844,6.556-1.229c1.031,0.615,0-2.019,0-2.019l0.937-4.391l-2.903-3.161c0,0-3.466,3.601-4.215,3.073
			c-0.749-0.526-8.523-5.18-8.523-5.18L238.882,289.781z"/>
		<path clip-path="url(#SVGID_42_)" fill="#A14765" d="M346.308,294.435c-0.494,0.251,13.861-13.696,13.861-13.696l1.874-1.58
			v-4.391l4.308-1.404c0,0,8.242-5.795,8.616-6.849c0.375-1.054,2.997-2.985,2.997-2.985l-2.06-4.741l8.991-2.81l2.997-4.215
			l12.363-1.053l23.789-4.39l-7.867,4.916l3.559,2.81c0,0,2.81-0.702,4.308,0.352c1.499,1.054-1.311,4.39-1.311,4.39
			s5.994,5.444,8.429,5.795c2.436,0.351,18.732,6.848,18.732,6.848l-4.121,10.712l-2.248-1.229c0,0-15.734,2.809-15.547,4.214
			s-29.034,16.507-34.841,18.263c0,0,22.291-11.063,22.853-12.995c0.562-1.931,1.686-6.146,1.686-6.146l3.371-1.405l1.124-7.023
			l-7.118,3.512l-1.686,5.444l-18.731,3.512l-1.499-4.214l-5.619,5.442C387.518,289.518,350.804,292.152,346.308,294.435"/>
		<path clip-path="url(#SVGID_42_)" fill="#A14765" d="M472.185,224.37c0.187-0.526,0-2.81,0-2.81l-1.873,1.405l-1.873-1.405
			l-2.061,1.405v2.81l-17.42,15.102l7.305-1.054l0.375,1.054c0,0,19.106,1.58,19.106,0.878s0.187-3.513,0.937-3.513
			c0.749,0,6.181,0.353,6.181,0.353l-6.931,7.726l-3.184,0.878l0.375,2.408h2.06l0.749,2.158l5.62,18.086
			c0,0,3.559-1.931,3.746-0.878c0.187,1.054-2.061,3.864-2.061,3.864l19.106-6.674c0,0-1.499-2.282,0-2.984
			c1.498-0.703,6.743-4.215,6.743-4.215s-2.622,3.688,0,2.81c2.623-0.878,7.867-3.512,7.867-3.512v-5.444
			c0-0.527,3.185-1.58,3.185-1.58s0.562,3.688,1.124,3.512c0.562-0.176,12.736-2.634,13.299-4.215
			c0.562-1.58,10.677-21.598,11.427-21.949c0.749-0.352,0-4.565,0-4.565l3.185-2.459l-5.433-3.863l-0.375-6.146l-2.435-0.878
			l-4.121,4.74c0,0-10.677,1.405-12.55,3.338c-1.873,1.931-4.309,1.931-4.309,1.931l-1.312,4.565l-6.368,7.2
			c0,0-11.427-0.526-14.049,0.352s-12.363-3.863-12.363-3.863h-2.81L472.185,224.37z"/>
		<path clip-path="url(#SVGID_42_)" fill="#A14765" d="M550.482,234.204c-0.187-0.702,8.056-8.078,8.056-8.078
			s9.178-3.16,8.615-1.404c-0.562,1.757-2.997,4.476-2.997,4.476l5.059,2.021l-6.369,1.229l-2.248-1.58L550.482,234.204z"/>
		<path clip-path="url(#SVGID_42_)" fill="#A14765" d="M564.531,244.389c0.188-0.878,5.994-8.956,5.994-8.956
			s-9.744,2.459-10.679,3.513c-0.936,1.054-5.055,3.688-5.055,3.688l-2.248,0.176c0,0-1.13,2.282-2.064,3.513
			c-0.933,1.229-4.68,0.878-4.68,0.878l-7.306,11.237l-5.244,3.863v1.932l-8.055,10.624c0,0,5.619-3.249,7.867-4.127
			s4.309-3.336,4.309-3.336l10.489-1.581v2.459l2.619,2.107l-1.308-2.634l3.934-0.703l3.185-4.916l4.308-1.932l-0.751,4.917
			l3.561-2.459l8.242-15.102v-2.106L564.531,244.389z"/>
		<polygon clip-path="url(#SVGID_42_)" fill="#A14765" points="583.513,268.095 586.885,268.914 581.265,275.704 582.514,276.992 
			580.516,278.982 578.643,278.28 578.643,276.641 576.27,274.856 582.139,269.851 		"/>
		<path clip-path="url(#SVGID_42_)" fill="#A14765" d="M629.218,245.853c0.5,0.702,1.998,1.756,1.998,1.756h3.364l-2.864,2.575
			c0,0-2.498,5.386-3.247,6.205c-0.749,0.818-4.246,1.639-4.246,1.639l-0.874,1.171c0,0-4.869,2.575-4.62,3.16
			c0.25,0.586,2.871,6.556,2.871,6.556s4.746-1.053,5.37,0.703c0.625,1.756,2.368,5.238,2.368,5.238v2.371l3.127,1.756l5.495,5.385
			l-1.499-6.205l-2.622-3.307c0,0-1.499-1.727-1.624-3.131c-0.125-1.405-1.124-3.629-1.124-3.629l-4.121-2.693
			c0,0,4.371-3.629,5.12-3.512c0.75,0.116,10.49-3.513,10.49-3.513l-2.622-5.618l5.494-3.153l2.224-0.317l-0.913-1.037l-2.622-5.619
			l-7.18-3.279C633.67,241.766,628.888,245.389,629.218,245.853"/>
		<path clip-path="url(#SVGID_42_)" fill="#A14765" d="M217.934,220.507c-0.312,1.347-4.183,2.635-4.183,2.635l2.1,2.224
			c0,0-9.749,11.473-15.369,23.238l-4.308-2.02c0,0-13.861,14.048-24.445,16.595l-6.743,7.989l-3.466,5.794
			c0,0,18.17-7.988,32.968-8.076l-2.248-4.654l4.028-2.897c0,0,6.181,3.424,7.773,3.601c1.593,0.175,6.463,1.492,6.463,1.492
			l1.405,1.492c0,0,5.529,0.527,6.042,1.405c0.514,0.878,13.345,10.272,13.345,10.272s-9.928-9.57-11.707-13.17l-3.185-0.966
			l-0.749-2.897l-9.647-3.424c0,0,10.396-4.829,11.614-3.951c1.217,0.878,3.84,1.493,5.151,1.229
			c1.311-0.263,5.432,4.479,5.432,4.479l9.741,4.039l0.562,2.282l12.175-4.038l5.901-3.601l-2.154-1.932l-0.188-1.404l-0.936-0.615
			c0,0,4.214-1.316,4.308-1.58c0.06-0.169,2.682,0.094,4.568,0.306c-0.976-2.987-1.477-5.456-1.477-5.456l-3.497-1.756
			c-1.374-1.756-4.371-5.502-4.371-5.502c0.874-3.981-2.497-4.917-2.497-4.917s-4.621,1.404-9.366-2.811
			c-4.745-4.214-10.49-7.843-10.49-7.843l-0.749-1.873c0,0-8.742-6.205-10.115-7.024c-0.851-0.508-2.49-2.438-3.616-3.837
			C217.045,216.388,218.1,219.79,217.934,220.507"/>
		<polygon clip-path="url(#SVGID_42_)" fill="#A14765" points="649.823,263.062 650.947,264.466 653.819,273.538 646.202,270.319 
			648.699,266.105 		"/>
	</g>
	<g clip-path="url(#SVGID_2_)">
		<defs>
			<path id="SVGID_43_" d="M201.824,315.64C101.752,303.519,38.838,294.961,0,289.236V400.08h960V286.646
				C756.81,320.241,451.153,345.842,201.824,315.64"/>
		</defs>
		<clipPath id="SVGID_44_">
			<use xlink:href="#SVGID_43_"  overflow="visible"/>
		</clipPath>
		
			<linearGradient id="SVGID_45_" gradientUnits="userSpaceOnUse" x1="0" y1="400.1123" x2="1" y2="400.1123" gradientTransform="matrix(602.0782 -195.7286 -195.7286 -602.0782 78324.0859 241394.9219)">
			<stop  offset="0" style="stop-color:#B58D97"/>
			<stop  offset="0.1376" style="stop-color:#B58D97"/>
			<stop  offset="0.7884" style="stop-color:#BA6D9C"/>
			<stop  offset="1" style="stop-color:#BA6D9C"/>
		</linearGradient>
		<polygon clip-path="url(#SVGID_44_)" fill="url(#SVGID_45_)" points="-33.352,297.487 868.242,4.39 993.352,389.238 
			91.758,682.336 		"/>
	</g>
	<g clip-path="url(#SVGID_2_)">
		<defs>
			<rect id="SVGID_46_" width="960" height="400.08"/>
		</defs>
		<clipPath id="SVGID_47_">
			<use xlink:href="#SVGID_46_"  overflow="visible"/>
		</clipPath>
		<path clip-path="url(#SVGID_47_)" fill="#27062B" d="M886.935,81.142c0.06,0.123,0.118,0.254,0.177,0.381
			C887.053,81.396,886.994,81.265,886.935,81.142"/>
		<path clip-path="url(#SVGID_47_)" fill="#27062B" d="M882.74,75.259c0.063,0.058,0.126,0.113,0.188,0.174
			C882.866,75.372,882.803,75.317,882.74,75.259"/>
		<path clip-path="url(#SVGID_47_)" fill="#27062B" d="M882.069,74.676c0.073,0.06,0.147,0.12,0.222,0.183
			C882.217,74.796,882.143,74.736,882.069,74.676"/>
		<path clip-path="url(#SVGID_47_)" fill="#27062B" d="M868.301,40.211c-0.137,0.007-0.272,0.022-0.41,0.023
			c0.068-0.001,0.136-0.002,0.204-0.004C868.165,40.229,868.23,40.215,868.301,40.211"/>
	</g>
	<g clip-path="url(#SVGID_2_)">
		<defs>
			<path id="SVGID_48_" d="M803.958,356.169l47.778-0.3l19.765-0.124v30.561h-68.022L803.958,356.169z M890.258,346.872
				l-0.647,0.004L890.258,346.872z M804.134,345.122l-0.017,1.034L804.134,345.122z M809.002,342.016l-3.038,2.574L809.002,342.016z
				 M839.966,327.127l0.188-0.159l11.665,10.019l5.505,4.727l-5.505,0.034l-29.315,0.184L839.966,327.127z M853.367,315.767
				l6.994-5.93l11.558-9.799l0.002-0.128l0.079,0.007l-0.132,8.332l-0.367,23.083L853.367,315.767z M804.595,316.132l0.309-19.413
				l16.071,13.795l-5.063,4.292l-11.451,9.706L804.595,316.132z M805.072,286.125l-0.108,6.744L805.072,286.125z M834.2,299.314
				l-4.299-3.692l-11.323-9.721l31.887-0.2l0.297-0.252l0.437-0.003l-16.845,14L834.2,299.314z M877.069,276.779l-10.112,0.063
				L877.069,276.779z M891.374,276.69l-0.647,0.004L891.374,276.69z M805.266,273.907l0.032-2.044L805.266,273.907l-0.032,2.077
				L805.266,273.907z M807.089,274.41l3.039-2.576L807.089,274.41l-0.928,0.787L807.089,274.41z M841.082,256.953l0.189-0.16
				l10.548,9.055l6.621,5.683l-6.621,0.042l-28.196,0.177L841.082,256.953z M854.484,245.583l18.551-15.723l0.08-0.067
				l-0.498,31.356L854.484,245.583z M806.019,226.536l16.072,13.794l-16.514,14.004L806.019,226.536z M835.315,229.134
				l-15.621-13.405l31.671-0.197L835.315,229.134z M873.348,215.144l0.014-0.767l3.435,0.948l-3.498,2.966L873.348,215.144
				l-0.079,0.001L873.348,215.144z M806.414,201.692l0.487-30.624l0.23-14.453l0.397-25.055l0.066-4.199l0.088-5.515
				c0.004-0.167,0.024-0.329,0.06-0.486c0.35-1.006,1.36-1.75,2.723-1.758c0.001-0.078,0.002-0.165,0.004-0.243
				c0.027-0.001,0.052-0.007,0.079-0.007c0.048-2.968,0.102-6.33,0.162-10.194c0.161-10.088,1.439-17.386,3.208-22.673
				c4.588-13.444,12.361-13.628,12.672-13.63l25.146-0.157l14.003-0.088l10.685-0.067c0.08-0.001,0.668,0.004,1.57,0.252h0.003
				l0.012,0.004c0.135,0.037,0.278,0.081,0.427,0.13c0.045,0.014,0.091,0.032,0.137,0.048c0.11,0.038,0.225,0.08,0.343,0.126
				c0.057,0.022,0.117,0.046,0.176,0.071c0.114,0.047,0.23,0.098,0.35,0.152c0.062,0.028,0.122,0.056,0.185,0.085
				c0.138,0.066,0.279,0.139,0.422,0.216c0.045,0.024,0.089,0.044,0.135,0.07c0.188,0.104,0.381,0.218,0.576,0.341
				c0.049,0.03,0.099,0.065,0.146,0.096c0.149,0.098,0.301,0.2,0.454,0.31c0.069,0.05,0.141,0.103,0.212,0.156
				c0.138,0.103,0.275,0.211,0.416,0.325c0.072,0.06,0.146,0.12,0.222,0.183c0.148,0.126,0.299,0.261,0.449,0.399
				c0.063,0.059,0.126,0.114,0.188,0.174c0.211,0.204,0.426,0.417,0.639,0.647c0.031,0.035,0.063,0.074,0.095,0.109
				c0.182,0.198,0.363,0.406,0.544,0.626c0.07,0.085,0.141,0.177,0.212,0.266c0.146,0.183,0.289,0.372,0.434,0.569
				c0.076,0.103,0.152,0.209,0.229,0.317c0.145,0.207,0.29,0.424,0.433,0.646c0.068,0.105,0.137,0.207,0.203,0.315
				c0.195,0.313,0.389,0.638,0.578,0.981c0.014,0.025,0.028,0.047,0.042,0.072c0.203,0.368,0.402,0.758,0.598,1.161
				c0.061,0.123,0.118,0.255,0.178,0.382c0.137,0.291,0.271,0.59,0.404,0.901c0.068,0.159,0.135,0.321,0.201,0.485
				c0.125,0.307,0.248,0.625,0.37,0.951c0.062,0.166,0.124,0.331,0.184,0.503c0.14,0.39,0.274,0.797,0.405,1.214
				c0.037,0.117,0.077,0.227,0.113,0.346c0.165,0.538,0.323,1.099,0.476,1.681c0.04,0.152,0.076,0.315,0.116,0.471
				c0.111,0.441,0.219,0.891,0.322,1.358c0.049,0.219,0.096,0.446,0.143,0.672c0.089,0.433,0.177,0.876,0.259,1.329
				c0.044,0.241,0.088,0.482,0.13,0.729c0.086,0.502,0.165,1.022,0.241,1.549c0.029,0.207,0.063,0.406,0.091,0.617
				c0.1,0.743,0.192,1.508,0.274,2.302c0.014,0.146,0.026,0.3,0.04,0.447c0.064,0.658,0.123,1.331,0.173,2.025
				c0.021,0.284,0.038,0.579,0.057,0.87c0.037,0.585,0.069,1.183,0.097,1.794c0.015,0.324,0.028,0.651,0.04,0.983
				c0.021,0.638,0.037,1.294,0.047,1.959c0.006,0.308,0.014,0.609,0.016,0.921c0.01,0.982,0.009,1.984-0.008,3.024
				c-0.062,3.821-0.111,7.147,0.104,10.088l0.712,0.197c0.063,0.017,0.121,0.044,0.181,0.066c0.049,0.018,0.098,0.032,0.146,0.053
				c0.113,0.049,0.223,0.108,0.327,0.173c0.022,0.013,0.046,0.023,0.067,0.037c0.123,0.082,0.238,0.175,0.344,0.277
				c0.03,0.029,0.057,0.061,0.084,0.092c0.072,0.077,0.143,0.156,0.204,0.242c0.03,0.043,0.058,0.087,0.085,0.132
				c0.053,0.081,0.099,0.166,0.14,0.253c0.022,0.049,0.046,0.098,0.065,0.148c0.037,0.096,0.064,0.194,0.09,0.295
				c0.011,0.047,0.025,0.092,0.034,0.139c0.027,0.15,0.043,0.303,0.04,0.46l-0.087,5.516l-0.068,4.199l-0.396,25.055l-0.231,14.452
				l-0.567,35.74l-40.671,0.255l-45.49,0.284L806.414,201.692z M895.775,0l-0.369,23.246l-0.231,14.441
				c-0.004,0.286-0.025,0.569-0.06,0.848c-0.012,0.092-0.034,0.182-0.048,0.274c-0.03,0.184-0.059,0.368-0.102,0.548
				c-0.024,0.107-0.059,0.212-0.089,0.317c-0.03,0.106-0.063,0.211-0.094,0.315c-0.031,0.079-0.063,0.158-0.093,0.236
				c-0.06,0.146-0.116,0.291-0.184,0.434c-0.05,0.108-0.106,0.213-0.163,0.318c-0.07,0.136-0.143,0.271-0.221,0.403
				c-0.063,0.103-0.129,0.204-0.195,0.305c-0.083,0.126-0.169,0.25-0.259,0.371c-0.073,0.098-0.147,0.194-0.226,0.288
				c-0.095,0.117-0.191,0.231-0.292,0.342c-0.082,0.09-0.167,0.179-0.253,0.267c-0.106,0.107-0.216,0.21-0.327,0.311
				c-0.054,0.049-0.107,0.096-0.162,0.142c-0.034,0.03-0.066,0.061-0.102,0.089c-0.155,0.131-0.317,0.253-0.484,0.372
				c-0.075,0.055-0.149,0.113-0.228,0.166c-0.246,0.164-0.5,0.32-0.763,0.459c-0.001,0.001-0.001,0.001-0.002,0.002
				c-0.013,0.006-0.026,0.011-0.039,0.018c-0.237,0.123-0.479,0.235-0.728,0.336c-0.089,0.036-0.182,0.065-0.271,0.097
				c-0.177,0.066-0.355,0.13-0.537,0.184c-0.032,0.009-0.063,0.015-0.096,0.024c-0.06,0.017-0.12,0.031-0.182,0.046
				c-0.218,0.057-0.439,0.106-0.666,0.145c-0.106,0.019-0.215,0.036-0.322,0.051c-0.227,0.03-0.456,0.05-0.688,0.063
				c-0.077,0.004-0.152,0.01-0.229,0.012c-0.061,0.002-0.119,0.01-0.182,0.01l-35.071,0.22l-34.688,0.217
				c-0.356,0.002-0.706-0.025-1.05-0.065c-0.096-0.012-0.191-0.026-0.286-0.041c-0.272-0.042-0.541-0.096-0.803-0.163
				c-0.051-0.013-0.105-0.018-0.156-0.031l-17.069-4.713c0.096,0.002,0.186,0.017,0.28,0.017l14.637,4.042
				c-0.212-0.13-0.398-0.291-0.597-0.439l0.68,0.188c-1.551-0.947-2.735-2.392-3.326-4.112c-0.282-0.821-0.438-1.702-0.424-2.623
				l0.23-14.441L809.622,0h-28.771l-4.635,291.462l-0.45,28.288l-0.577,36.35l-5.941,0.037l-0.004,0.249l-0.079,0.001l-0.562,35.369
				l-9.247,0.059l-0.005,0.249l-0.08,0.001l-0.127,8.016h172.187l0.149-9.345l-9.272-2.561l0.525-33l-6.007-1.658L922.35,0H895.775z
				"/>
		</defs>
		<clipPath id="SVGID_49_">
			<use xlink:href="#SVGID_48_"  overflow="visible"/>
		</clipPath>
		
			<linearGradient id="SVGID_50_" gradientUnits="userSpaceOnUse" x1="0" y1="400.0732" x2="1" y2="400.0732" gradientTransform="matrix(-9.0997 487.3382 487.3382 9.0997 -194120.3594 -3702.8784)">
			<stop  offset="0" style="stop-color:#C91127"/>
			<stop  offset="0.3016" style="stop-color:#C91127"/>
			<stop  offset="0.7884" style="stop-color:#3E0042"/>
			<stop  offset="1" style="stop-color:#3E0042"/>
		</linearGradient>
		<polygon clip-path="url(#SVGID_49_)" fill="url(#SVGID_50_)" points="938.947,0.14 931.42,403.297 751.678,399.94 759.205,-3.217 
					"/>
	</g>
	<g clip-path="url(#SVGID_2_)">
		<defs>
			<rect id="SVGID_51_" width="960" height="400.08"/>
		</defs>
		<clipPath id="SVGID_52_">
			<use xlink:href="#SVGID_51_"  overflow="visible"/>
		</clipPath>
		<path clip-path="url(#SVGID_52_)" fill="#27062B" d="M887.517,82.424c0.067,0.158,0.135,0.321,0.2,0.484
			C887.651,82.745,887.584,82.583,887.517,82.424"/>
		<path clip-path="url(#SVGID_52_)" fill="#27062B" d="M873.898,37.706c0.086-0.087,0.17-0.175,0.252-0.266
			C874.068,37.531,873.984,37.619,873.898,37.706"/>
		<path clip-path="url(#SVGID_52_)" fill="#27062B" d="M874.443,37.098c0.077-0.095,0.152-0.19,0.225-0.287
			C874.597,36.908,874.521,37.003,874.443,37.098"/>
		<path clip-path="url(#SVGID_52_)" fill="#27062B" d="M874.927,36.438c0.067-0.101,0.133-0.202,0.196-0.306
			C875.06,36.236,874.994,36.337,874.927,36.438"/>
		<path clip-path="url(#SVGID_52_)" fill="#27062B" d="M872.596,38.786c0.078-0.052,0.15-0.109,0.226-0.164
			C872.746,38.677,872.674,38.734,872.596,38.786"/>
		<path clip-path="url(#SVGID_52_)" fill="#27062B" d="M868.99,40.148c0.108-0.015,0.215-0.031,0.322-0.049
			C869.205,40.117,869.099,40.133,868.99,40.148"/>
		<path clip-path="url(#SVGID_52_)" fill="#27062B" d="M870.794,39.699c0.089-0.033,0.181-0.061,0.269-0.097
			C870.975,39.638,870.883,39.666,870.794,39.699"/>
		<path clip-path="url(#SVGID_52_)" fill="#27062B" d="M875.959,34.178c0.03-0.106,0.064-0.21,0.09-0.318
			C876.023,33.968,875.989,34.072,875.959,34.178"/>
		<path clip-path="url(#SVGID_52_)" fill="#27062B" d="M871.832,39.246c-0.011,0.005-0.022,0.01-0.032,0.015
			c0.01-0.005,0.021-0.009,0.03-0.014C871.83,39.247,871.83,39.246,871.832,39.246"/>
		<path clip-path="url(#SVGID_52_)" fill="#27062B" d="M870.254,39.883c-0.09,0.026-0.182,0.046-0.273,0.07
			c0.063-0.017,0.131-0.025,0.192-0.042C870.201,39.903,870.226,39.891,870.254,39.883"/>
		<path clip-path="url(#SVGID_52_)" fill="#27062B" d="M873.57,38.019c-0.087,0.078-0.174,0.155-0.263,0.23
			c0.036-0.03,0.076-0.056,0.111-0.086C873.472,38.117,873.518,38.066,873.57,38.019"/>
		<path clip-path="url(#SVGID_52_)" fill="#27062B" d="M875.689,34.979c0.043-0.108,0.089-0.215,0.128-0.325
			C875.778,34.764,875.732,34.871,875.689,34.979"/>
		<path clip-path="url(#SVGID_52_)" fill="#27062B" d="M876.149,33.313c0.015-0.092,0.036-0.182,0.047-0.275
			C876.186,33.131,876.164,33.221,876.149,33.313"/>
		<path clip-path="url(#SVGID_52_)" fill="#27062B" d="M875.343,35.732c0.057-0.106,0.113-0.211,0.163-0.32
			C875.456,35.521,875.399,35.626,875.343,35.732"/>
		<path clip-path="url(#SVGID_52_)" fill="#27062B" d="M884.853,77.648c0.075,0.104,0.151,0.21,0.228,0.318
			C885.004,77.857,884.928,77.752,884.853,77.648"/>
		<path clip-path="url(#SVGID_52_)" fill="#27062B" d="M886.295,79.908c0.014,0.025,0.027,0.047,0.042,0.072
			C886.322,79.955,886.309,79.933,886.295,79.908"/>
		<path clip-path="url(#SVGID_52_)" fill="#27062B" d="M892.771,119.23c0.021,0.013,0.046,0.023,0.067,0.037
			C892.816,119.253,892.793,119.244,892.771,119.23"/>
		<path clip-path="url(#SVGID_52_)" fill="#27062B" d="M891.596,44.033c-0.246,0.165-0.499,0.32-0.763,0.46
			C891.097,44.353,891.35,44.198,891.596,44.033"/>
		<path clip-path="url(#SVGID_52_)" fill="#27062B" d="M892.308,43.496c-0.155,0.13-0.317,0.253-0.483,0.372
			C891.99,43.749,892.152,43.625,892.308,43.496"/>
		<path clip-path="url(#SVGID_52_)" fill="#27062B" d="M891.295,104.709c0.005,0.307,0.013,0.608,0.016,0.921
			C891.308,105.317,891.3,105.017,891.295,104.709"/>
		<path clip-path="url(#SVGID_52_)" fill="#27062B" d="M892.298,119.005c0.049,0.017,0.099,0.033,0.145,0.053
			C892.396,119.037,892.347,119.022,892.298,119.005"/>
		<path clip-path="url(#SVGID_52_)" fill="#27062B" d="M893.182,119.544c0.03,0.029,0.057,0.062,0.084,0.092
			C893.238,119.606,893.212,119.574,893.182,119.544"/>
		<path clip-path="url(#SVGID_52_)" fill="#27062B" d="M890.792,44.512c-0.236,0.123-0.479,0.236-0.729,0.337
			C890.313,44.748,890.556,44.635,890.792,44.512"/>
		<path clip-path="url(#SVGID_52_)" fill="#27062B" d="M893.85,120.707c0.011,0.047,0.025,0.092,0.035,0.14
			C893.875,120.799,893.86,120.754,893.85,120.707"/>
		<path clip-path="url(#SVGID_52_)" fill="#27062B" d="M893.928,41.684c-0.083,0.126-0.168,0.251-0.258,0.372
			C893.76,41.935,893.845,41.81,893.928,41.684"/>
		<path clip-path="url(#SVGID_52_)" fill="#27062B" d="M889.793,44.946c-0.177,0.065-0.355,0.13-0.538,0.183
			C889.438,45.076,889.616,45.011,889.793,44.946"/>
		<path clip-path="url(#SVGID_52_)" fill="#27062B" d="M893.694,120.264c0.023,0.049,0.045,0.098,0.065,0.148
			C893.739,120.362,893.718,120.313,893.694,120.264"/>
		<path clip-path="url(#SVGID_52_)" fill="#27062B" d="M893.47,119.879c0.031,0.042,0.059,0.087,0.086,0.132
			C893.528,119.966,893.501,119.922,893.47,119.879"/>
		<path clip-path="url(#SVGID_52_)" fill="#27062B" d="M893.443,42.345c-0.095,0.116-0.191,0.23-0.293,0.341
			C893.252,42.575,893.349,42.461,893.443,42.345"/>
		<path clip-path="url(#SVGID_52_)" fill="#27062B" d="M892.898,42.953c-0.106,0.107-0.215,0.21-0.327,0.311
			C892.684,43.163,892.792,43.06,892.898,42.953"/>
		<path clip-path="url(#SVGID_52_)" fill="#27062B" d="M894.345,40.978c-0.071,0.136-0.144,0.271-0.223,0.402
			C894.201,41.249,894.273,41.113,894.345,40.978"/>
		<path clip-path="url(#SVGID_52_)" fill="#27062B" d="M889.703,89.433c0.049,0.22,0.096,0.447,0.143,0.673
			C889.799,89.879,889.752,89.652,889.703,89.433"/>
		<path clip-path="url(#SVGID_52_)" fill="#27062B" d="M878.998,72.854c0.058,0.023,0.117,0.047,0.177,0.071
			C879.115,72.901,879.056,72.877,878.998,72.854"/>
		<path clip-path="url(#SVGID_52_)" fill="#27062B" d="M890.104,91.435c0.044,0.241,0.088,0.482,0.13,0.729
			C890.192,91.917,890.148,91.675,890.104,91.435"/>
		<path clip-path="url(#SVGID_52_)" fill="#27062B" d="M889.266,87.604c0.04,0.153,0.076,0.315,0.115,0.471
			C889.342,87.918,889.306,87.757,889.266,87.604"/>
		<path clip-path="url(#SVGID_52_)" fill="#27062B" d="M880.13,73.377c0.045,0.024,0.089,0.045,0.135,0.071
			C880.219,73.422,880.175,73.401,880.13,73.377"/>
		<path clip-path="url(#SVGID_52_)" fill="#27062B" d="M878.52,72.68c0.044,0.015,0.091,0.032,0.136,0.048
			C878.609,72.712,878.563,72.695,878.52,72.68"/>
		<path clip-path="url(#SVGID_52_)" fill="#27062B" d="M879.522,73.077c0.063,0.028,0.123,0.056,0.187,0.086
			C879.646,73.133,879.585,73.105,879.522,73.077"/>
		<path clip-path="url(#SVGID_52_)" fill="#27062B" d="M891.208,101.767c0.014,0.324,0.027,0.651,0.038,0.983
			C891.235,102.418,891.222,102.092,891.208,101.767"/>
		<path clip-path="url(#SVGID_52_)" fill="#27062B" d="M887.99,45.395c-0.228,0.031-0.457,0.051-0.688,0.063
			C887.534,45.445,887.763,45.425,887.99,45.395"/>
		<path clip-path="url(#SVGID_52_)" fill="#27062B" d="M891.055,99.103c0.021,0.285,0.038,0.579,0.056,0.87
			C891.093,99.682,891.075,99.388,891.055,99.103"/>
		<path clip-path="url(#SVGID_52_)" fill="#27062B" d="M888.979,45.199c-0.219,0.057-0.44,0.106-0.666,0.145
			C888.54,45.305,888.761,45.256,888.979,45.199"/>
		<polyline clip-path="url(#SVGID_52_)" fill="#27062B" points="878.077,72.546 878.079,72.547 878.077,72.546 		"/>
		<path clip-path="url(#SVGID_52_)" fill="#27062B" d="M890.476,93.712c0.03,0.207,0.062,0.406,0.091,0.616
			C890.537,94.119,890.506,93.919,890.476,93.712"/>
		<path clip-path="url(#SVGID_52_)" fill="#27062B" d="M890.841,96.631c0.015,0.145,0.026,0.3,0.04,0.447
			C890.867,96.931,890.855,96.776,890.841,96.631"/>
		<path clip-path="url(#SVGID_52_)" fill="#27062B" d="M880.842,73.789c0.048,0.03,0.098,0.065,0.146,0.097
			C880.939,73.854,880.89,73.819,880.842,73.789"/>
		<path clip-path="url(#SVGID_52_)" fill="#27062B" d="M888.087,83.86c0.062,0.167,0.124,0.331,0.185,0.503
			C888.211,84.191,888.148,84.027,888.087,83.86"/>
		<path clip-path="url(#SVGID_52_)" fill="#27062B" d="M881.441,74.195c0.07,0.05,0.142,0.104,0.211,0.156
			C881.582,74.299,881.512,74.245,881.441,74.195"/>
		<path clip-path="url(#SVGID_52_)" fill="#27062B" d="M894.69,40.225c-0.059,0.146-0.116,0.292-0.184,0.434
			C894.574,40.517,894.632,40.371,894.69,40.225"/>
		<path clip-path="url(#SVGID_52_)" fill="#27062B" d="M895.259,37.437c-0.005,0.286-0.026,0.569-0.062,0.848
			C895.232,38.006,895.254,37.723,895.259,37.437"/>
		<path clip-path="url(#SVGID_52_)" fill="#27062B" d="M894.96,39.424c-0.045,0.16-0.088,0.32-0.143,0.475
			C894.872,39.745,894.915,39.584,894.96,39.424"/>
		<path clip-path="url(#SVGID_52_)" fill="#27062B" d="M895.15,38.559c-0.03,0.184-0.059,0.368-0.101,0.548
			C895.092,38.927,895.12,38.743,895.15,38.559"/>
		<path clip-path="url(#SVGID_52_)" fill="#27062B" d="M883.567,76.079c0.031,0.035,0.063,0.074,0.096,0.109
			C883.631,76.153,883.599,76.114,883.567,76.079"/>
		<path clip-path="url(#SVGID_52_)" fill="#27062B" d="M885.514,78.612c0.067,0.105,0.136,0.206,0.203,0.315
			C885.649,78.818,885.581,78.717,885.514,78.612"/>
		<path clip-path="url(#SVGID_52_)" fill="#27062B" d="M884.206,76.814c0.071,0.086,0.142,0.177,0.212,0.266
			C884.348,76.991,884.277,76.9,884.206,76.814"/>
		<path clip-path="url(#SVGID_52_)" fill="#27062B" d="M888.677,85.577c0.037,0.117,0.076,0.227,0.112,0.345
			C888.753,85.804,888.714,85.694,888.677,85.577"/>
		<polygon clip-path="url(#SVGID_52_)" fill="#27062B" points="889.61,346.876 890.338,346.871 889.259,346.573 		"/>
		<path clip-path="url(#SVGID_52_)" fill="#27062B" d="M889.198,285.208l-17.06,14.465c6.775,0.626,13.221,1.214,18.922,1.729
			l0.258-16.206L889.198,285.208z"/>
		<polygon clip-path="url(#SVGID_52_)" fill="#27062B" points="871.501,331.331 889.259,346.573 890.338,346.871 890.987,306.009 
			871.867,308.248 		"/>
		<path clip-path="url(#SVGID_52_)" fill="#27062B" d="M872.002,299.788l-0.135,8.461l19.12-2.241l0.074-4.605
			c-5.702-0.517-12.148-1.104-18.923-1.73L872.002,299.788z"/>
		<polygon clip-path="url(#SVGID_52_)" fill="#27062B" points="890.727,276.694 891.454,276.688 890.374,276.391 		"/>
		<polygon clip-path="url(#SVGID_52_)" fill="#27062B" points="873.118,229.61 872.616,261.148 890.374,276.391 891.454,276.688 
			892.435,215.023 890.313,215.037 		"/>
		<polygon clip-path="url(#SVGID_52_)" fill="#27062B" points="873.569,201.271 892.57,206.517 893.142,170.528 874.141,165.282 		
			"/>
		<polygon clip-path="url(#SVGID_52_)" fill="#27062B" points="874.142,165.282 893.143,170.528 893.371,156.076 874.371,150.829 		
			"/>
		<polygon clip-path="url(#SVGID_52_)" fill="#27062B" points="874.371,150.829 893.372,156.075 893.77,131.021 874.769,125.774 		
			"/>
		<polygon clip-path="url(#SVGID_52_)" fill="#27062B" points="874.77,125.775 893.63,134.761 893.838,126.822 875.833,82.762 		"/>
		<polygon clip-path="url(#SVGID_52_)" fill="#27062B" points="874.836,121.576 893.837,126.822 893.926,121.307 875.667,104.262 		
			"/>
		<path clip-path="url(#SVGID_52_)" fill="#27062B" d="M873.74,113.967c0.721,0.433,1.198,1.205,1.184,2.093l19.001,5.246
			c0.003-0.157-0.015-0.31-0.041-0.46c-0.009-0.048-0.023-0.093-0.034-0.14c-0.025-0.1-0.053-0.198-0.09-0.293
			c-0.021-0.051-0.042-0.1-0.065-0.149c-0.041-0.087-0.088-0.172-0.139-0.253c-0.028-0.045-0.056-0.09-0.086-0.132
			c-0.062-0.086-0.131-0.165-0.203-0.242c-0.029-0.031-0.054-0.064-0.084-0.093c-0.107-0.101-0.222-0.194-0.344-0.276
			c-0.021-0.014-0.046-0.024-0.067-0.038c-0.105-0.065-0.214-0.123-0.329-0.173c-0.047-0.02-0.096-0.035-0.144-0.052
			c-0.277-0.1-0.573-0.161-0.889-0.159L873.74,113.967z"/>
		<polygon clip-path="url(#SVGID_52_)" fill="#27062B" points="858.439,271.53 877.44,276.776 851.818,254.785 851.818,265.848 		
			"/>
		<polygon clip-path="url(#SVGID_52_)" fill="#27062B" points="851.819,215.278 851.819,236.497 873.298,218.291 873.349,215.143 		
			"/>
		<polygon clip-path="url(#SVGID_52_)" fill="#27062B" points="873.349,215.143 873.298,218.291 877.039,215.12 		"/>
		<polygon clip-path="url(#SVGID_52_)" fill="#27062B" points="851.819,271.572 851.819,276.938 877.44,276.777 858.44,271.531 		
			"/>
		<polygon clip-path="url(#SVGID_52_)" fill="#27062B" points="876.258,32.19 895.259,37.437 895.488,22.997 876.488,17.75 		"/>
		<path clip-path="url(#SVGID_52_)" fill="#27062B" d="M867.891,40.234l19.001,5.246c0.062,0,0.12-0.008,0.182-0.01l-18.979-5.24
			C868.027,40.232,867.959,40.234,867.891,40.234"/>
		<path clip-path="url(#SVGID_52_)" fill="#27062B" d="M869.98,39.953c-0.22,0.057-0.441,0.106-0.669,0.146
			c-0.105,0.019-0.213,0.035-0.321,0.049c-0.228,0.031-0.457,0.051-0.689,0.064c-0.07,0.004-0.137,0.017-0.206,0.019l18.978,5.24
			c0.076-0.002,0.153-0.009,0.229-0.013c0.232-0.013,0.462-0.033,0.688-0.063c0.108-0.015,0.217-0.031,0.323-0.05
			c0.226-0.039,0.447-0.089,0.666-0.145c0.061-0.016,0.121-0.029,0.182-0.046l-18.988-5.243
			C870.11,39.929,870.044,39.937,869.98,39.953"/>
		<path clip-path="url(#SVGID_52_)" fill="#27062B" d="M871.8,39.261c-0.239,0.125-0.485,0.239-0.737,0.341
			c-0.088,0.036-0.179,0.064-0.269,0.097c-0.179,0.065-0.356,0.13-0.54,0.184c-0.027,0.008-0.054,0.02-0.081,0.027l18.987,5.243
			c0.031-0.009,0.064-0.015,0.096-0.024c0.182-0.054,0.359-0.118,0.537-0.183c0.09-0.034,0.183-0.062,0.271-0.098
			c0.249-0.101,0.492-0.213,0.729-0.337c0.013-0.006,0.025-0.011,0.038-0.018l-19-5.246C871.82,39.252,871.81,39.256,871.8,39.261"
			/>
		<path clip-path="url(#SVGID_52_)" fill="#27062B" d="M873.308,38.249c-0.157,0.131-0.32,0.254-0.486,0.374
			c-0.075,0.054-0.148,0.111-0.226,0.163c-0.247,0.166-0.5,0.321-0.764,0.461c-0.001,0-0.001,0-0.002,0.001l19.001,5.246
			c0.001-0.001,0.001-0.001,0.002-0.001c0.264-0.14,0.517-0.295,0.763-0.46c0.078-0.052,0.152-0.11,0.228-0.165
			c0.166-0.119,0.328-0.242,0.484-0.372c0.035-0.029,0.068-0.06,0.103-0.089l-18.99-5.244
			C873.384,38.193,873.344,38.219,873.308,38.249"/>
		<path clip-path="url(#SVGID_52_)" fill="#27062B" d="M876.197,33.038c-0.013,0.093-0.033,0.183-0.047,0.275
			c-0.03,0.184-0.06,0.368-0.103,0.547c-0.024,0.108-0.059,0.212-0.089,0.318c-0.044,0.16-0.088,0.32-0.142,0.475
			c-0.039,0.111-0.085,0.217-0.128,0.326c-0.059,0.145-0.116,0.291-0.183,0.433c-0.051,0.108-0.107,0.213-0.164,0.319
			c-0.071,0.136-0.142,0.27-0.221,0.401c-0.063,0.104-0.128,0.205-0.195,0.306c-0.084,0.126-0.168,0.251-0.259,0.372
			c-0.072,0.098-0.148,0.193-0.225,0.287c-0.096,0.117-0.192,0.231-0.293,0.343c-0.082,0.09-0.166,0.179-0.252,0.266
			c-0.106,0.107-0.217,0.211-0.328,0.313c-0.053,0.046-0.099,0.098-0.151,0.144l18.99,5.243c0.055-0.047,0.109-0.094,0.163-0.142
			c0.11-0.101,0.22-0.205,0.326-0.311c0.086-0.087,0.171-0.176,0.253-0.267c0.101-0.111,0.197-0.225,0.293-0.342
			c0.077-0.094,0.152-0.19,0.226-0.288c0.09-0.121,0.174-0.246,0.258-0.372c0.066-0.101,0.133-0.201,0.195-0.305
			c0.078-0.131,0.15-0.266,0.221-0.402c0.057-0.106,0.113-0.211,0.163-0.319c0.067-0.142,0.125-0.287,0.184-0.433
			c0.043-0.108,0.089-0.215,0.128-0.325c0.054-0.156,0.098-0.316,0.142-0.476c0.03-0.106,0.064-0.21,0.089-0.317
			c0.042-0.18,0.072-0.364,0.102-0.548c0.015-0.092,0.035-0.182,0.048-0.275c0.035-0.278,0.056-0.561,0.061-0.847l-19.001-5.247
			C876.253,32.478,876.232,32.759,876.197,33.038"/>
		<path clip-path="url(#SVGID_52_)" fill="#27062B" d="M872.301,103.407c-0.061,3.865-0.115,7.226,0.109,10.193l1.33,0.367
			c-0.193-0.116-0.4-0.213-0.623-0.275l18.288,5.05c-0.215-2.942-0.164-6.267-0.104-10.089c0.017-1.039,0.018-2.042,0.009-3.023
			c-0.003-0.313-0.011-0.614-0.016-0.921c-0.011-0.665-0.025-1.321-0.048-1.96c-0.012-0.331-0.025-0.658-0.04-0.983
			c-0.027-0.611-0.059-1.208-0.097-1.794c-0.019-0.29-0.035-0.585-0.057-0.87c-0.05-0.693-0.108-1.366-0.173-2.024
			c-0.014-0.147-0.024-0.302-0.04-0.447c-0.082-0.794-0.174-1.559-0.274-2.302c-0.028-0.211-0.062-0.41-0.092-0.617
			c-0.075-0.528-0.154-1.047-0.24-1.549c-0.042-0.247-0.086-0.488-0.13-0.729c-0.082-0.454-0.169-0.897-0.26-1.329
			c-0.047-0.226-0.093-0.453-0.142-0.673c-0.104-0.466-0.211-0.916-0.322-1.357c-0.039-0.156-0.076-0.319-0.116-0.472
			c-0.151-0.581-0.311-1.142-0.476-1.681c-0.036-0.118-0.075-0.228-0.112-0.345c-0.132-0.417-0.267-0.824-0.404-1.215
			c-0.062-0.171-0.123-0.336-0.186-0.503c-0.122-0.325-0.244-0.643-0.37-0.951c-0.065-0.163-0.133-0.326-0.201-0.484
			c-0.133-0.311-0.268-0.61-0.403-0.902c-0.061-0.127-0.118-0.258-0.179-0.381c-0.195-0.404-0.395-0.793-0.598-1.161
			c-0.014-0.025-0.028-0.047-0.042-0.072c-0.189-0.343-0.383-0.669-0.577-0.981c-0.067-0.108-0.136-0.21-0.204-0.315
			c-0.143-0.222-0.288-0.439-0.433-0.646c-0.076-0.108-0.152-0.214-0.229-0.318c-0.144-0.197-0.288-0.385-0.434-0.568
			c-0.071-0.089-0.141-0.181-0.212-0.266c-0.181-0.22-0.362-0.428-0.543-0.626c-0.032-0.035-0.064-0.075-0.096-0.109
			c-0.213-0.23-0.427-0.444-0.639-0.647c-0.063-0.06-0.126-0.115-0.188-0.173c-0.15-0.139-0.3-0.274-0.449-0.4
			c-0.074-0.063-0.148-0.124-0.222-0.183c-0.141-0.114-0.279-0.222-0.416-0.325c-0.071-0.053-0.143-0.107-0.212-0.157
			c-0.153-0.109-0.305-0.211-0.454-0.309c-0.048-0.031-0.099-0.066-0.146-0.097c-0.195-0.123-0.388-0.236-0.576-0.34
			c-0.046-0.025-0.09-0.047-0.135-0.071c-0.143-0.076-0.284-0.149-0.422-0.215c-0.062-0.03-0.124-0.057-0.185-0.085
			c-0.119-0.054-0.235-0.105-0.35-0.152c-0.059-0.025-0.118-0.049-0.176-0.072c-0.118-0.045-0.232-0.087-0.343-0.125
			c-0.045-0.016-0.092-0.034-0.136-0.048c-0.153-0.05-0.302-0.096-0.439-0.134h-0.003c-0.901-0.248-1.491-0.253-1.57-0.252
			l-10.685,0.066C869.338,77.134,872.575,86.192,872.301,103.407"/>
		<path clip-path="url(#SVGID_52_)" fill="#27062B" d="M873.74,113.967l17.67,4.879c-0.002-0.033-0.002-0.07-0.005-0.104
			l-18.289-5.05C873.341,113.754,873.548,113.851,873.74,113.967"/>
		<polygon clip-path="url(#SVGID_52_)" fill="#27062B" points="876.487,17.75 895.488,22.996 895.953,-6.269 876.952,-11.515 		"/>
		<polygon clip-path="url(#SVGID_52_)" fill="#27062B" points="851.819,201.407 851.819,206.772 892.569,206.518 873.569,201.271 		
			"/>
		<polygon clip-path="url(#SVGID_52_)" fill="#27062B" points="845.654,40.373 851.819,45.7 886.892,45.48 867.892,40.233 
			859.835,40.284 		"/>
		<path clip-path="url(#SVGID_52_)" fill="#27062B" d="M872.139,299.673c-0.045-0.004-0.089-0.008-0.135-0.012l-0.002,0.128
			L872.139,299.673z"/>
		<path clip-path="url(#SVGID_52_)" fill="#27062B" d="M892.442,119.058c0.115,0.049,0.225,0.108,0.329,0.173
			C892.667,119.166,892.558,119.106,892.442,119.058"/>
		<path clip-path="url(#SVGID_52_)" fill="#27062B" d="M892.298,119.005c-0.06-0.022-0.117-0.049-0.181-0.066l-0.712-0.197
			c0.003,0.034,0.003,0.071,0.006,0.104C891.726,118.844,892.021,118.905,892.298,119.005"/>
		<path clip-path="url(#SVGID_52_)" fill="#27062B" d="M893.76,120.413c0.037,0.095,0.064,0.193,0.09,0.294
			C893.824,120.606,893.797,120.508,893.76,120.413"/>
		<path clip-path="url(#SVGID_52_)" fill="#27062B" d="M893.267,119.637c0.072,0.077,0.142,0.157,0.203,0.242
			C893.407,119.793,893.34,119.714,893.267,119.637"/>
		<path clip-path="url(#SVGID_52_)" fill="#27062B" d="M892.838,119.268c0.123,0.082,0.238,0.175,0.344,0.277
			C893.076,119.443,892.961,119.35,892.838,119.268"/>
		<path clip-path="url(#SVGID_52_)" fill="#27062B" d="M893.556,120.011c0.051,0.082,0.098,0.166,0.139,0.254
			C893.653,120.177,893.606,120.093,893.556,120.011"/>
		<path clip-path="url(#SVGID_52_)" fill="#27062B" d="M893.884,120.846c0.027,0.149,0.043,0.303,0.041,0.46
			C893.927,121.148,893.911,120.996,893.884,120.846"/>
		<polygon clip-path="url(#SVGID_52_)" fill="#27062B" points="877.039,215.12 873.364,214.104 873.349,215.143 		"/>
		<path clip-path="url(#SVGID_52_)" fill="#27062B" d="M882.93,75.433c0.212,0.203,0.424,0.417,0.638,0.646
			C883.354,75.85,883.142,75.636,882.93,75.433"/>
		<path clip-path="url(#SVGID_52_)" fill="#27062B" d="M890.881,97.079c0.064,0.658,0.122,1.331,0.174,2.024
			C891.003,98.41,890.945,97.736,890.881,97.079"/>
		<path clip-path="url(#SVGID_52_)" fill="#27062B" d="M879.175,72.925c0.113,0.047,0.229,0.098,0.348,0.152
			C879.404,73.023,879.288,72.972,879.175,72.925"/>
		<path clip-path="url(#SVGID_52_)" fill="#27062B" d="M890.566,94.329c0.1,0.743,0.193,1.508,0.274,2.302
			C890.76,95.837,890.666,95.072,890.566,94.329"/>
		<path clip-path="url(#SVGID_52_)" fill="#27062B" d="M889.382,88.075c0.11,0.441,0.219,0.891,0.321,1.358
			C889.601,88.966,889.492,88.516,889.382,88.075"/>
		<polygon clip-path="url(#SVGID_52_)" fill="#27062B" points="830.379,302.749 862.584,275.984 886.305,280.64 847.369,314.806 		
			"/>
		<path clip-path="url(#SVGID_52_)" fill="#27062B" d="M879.709,73.163c0.138,0.066,0.278,0.138,0.422,0.215
			C879.986,73.301,879.847,73.229,879.709,73.163"/>
		<path clip-path="url(#SVGID_52_)" fill="#27062B" d="M878.093,72.55l-0.013-0.004c0.139,0.038,0.285,0.084,0.438,0.134
			C878.371,72.631,878.228,72.587,878.093,72.55"/>
		<path clip-path="url(#SVGID_52_)" fill="#27062B" d="M890.234,92.163c0.085,0.502,0.165,1.021,0.241,1.549
			C890.399,93.184,890.319,92.665,890.234,92.163"/>
		<path clip-path="url(#SVGID_52_)" fill="#27062B" d="M878.654,72.728c0.111,0.039,0.226,0.08,0.344,0.126
			C878.88,72.808,878.766,72.767,878.654,72.728"/>
		<path clip-path="url(#SVGID_52_)" fill="#27062B" d="M889.846,90.105c0.09,0.432,0.176,0.876,0.259,1.329
			C890.021,90.98,889.936,90.537,889.846,90.105"/>
		<path clip-path="url(#SVGID_52_)" fill="#27062B" d="M880.987,73.886c0.15,0.097,0.301,0.199,0.454,0.309
			C881.288,74.084,881.138,73.982,880.987,73.886"/>
		<path clip-path="url(#SVGID_52_)" fill="#27062B" d="M887.717,82.909c0.127,0.308,0.248,0.626,0.369,0.951
			C887.965,83.535,887.842,83.216,887.717,82.909"/>
		<polygon clip-path="url(#SVGID_52_)" fill="#27062B" points="794.922,386.307 871.501,386.307 871.501,352.974 893.667,355.307 
			890.914,397.974 839.976,411.974 803.236,403.307 		"/>
		<path clip-path="url(#SVGID_52_)" fill="#27062B" d="M881.652,74.351c0.139,0.103,0.277,0.211,0.416,0.325
			C881.929,74.562,881.791,74.454,881.652,74.351"/>
		<path clip-path="url(#SVGID_52_)" fill="#27062B" d="M888.271,84.363c0.14,0.391,0.273,0.798,0.405,1.215
			C888.545,85.161,888.411,84.754,888.271,84.363"/>
		<path clip-path="url(#SVGID_52_)" fill="#27062B" d="M888.789,85.923c0.165,0.538,0.323,1.099,0.477,1.681
			C889.112,87.022,888.954,86.461,888.789,85.923"/>
		<path clip-path="url(#SVGID_52_)" fill="#27062B" d="M880.265,73.448c0.188,0.104,0.382,0.217,0.576,0.341
			C880.646,73.665,880.453,73.552,880.265,73.448"/>
		<path clip-path="url(#SVGID_52_)" fill="#27062B" d="M882.291,74.859c0.149,0.126,0.299,0.261,0.449,0.4
			C882.59,75.12,882.44,74.985,882.291,74.859"/>
		<path clip-path="url(#SVGID_52_)" fill="#27062B" d="M883.663,76.188c0.181,0.198,0.362,0.407,0.543,0.626
			C884.025,76.595,883.844,76.387,883.663,76.188"/>
		<path clip-path="url(#SVGID_52_)" fill="#27062B" d="M885.717,78.927c0.194,0.313,0.387,0.638,0.578,0.981
			C886.104,79.565,885.912,79.24,885.717,78.927"/>
		<path clip-path="url(#SVGID_52_)" fill="#27062B" d="M884.418,77.08c0.146,0.183,0.29,0.372,0.435,0.568
			C884.708,77.451,884.563,77.263,884.418,77.08"/>
		<path clip-path="url(#SVGID_52_)" fill="#27062B" d="M887.111,81.522c0.137,0.292,0.272,0.591,0.404,0.902
			C887.384,82.113,887.249,81.814,887.111,81.522"/>
		<path clip-path="url(#SVGID_52_)" fill="#27062B" d="M891.11,99.973c0.037,0.586,0.07,1.183,0.098,1.794
			C891.181,101.156,891.147,100.559,891.11,99.973"/>
		<path clip-path="url(#SVGID_52_)" fill="#27062B" d="M886.336,79.98c0.203,0.368,0.402,0.757,0.599,1.161
			C886.738,80.737,886.539,80.348,886.336,79.98"/>
		<path clip-path="url(#SVGID_52_)" fill="#27062B" d="M891.247,102.75c0.021,0.638,0.037,1.294,0.048,1.96
			C891.284,104.043,891.269,103.389,891.247,102.75"/>
		<path clip-path="url(#SVGID_52_)" fill="#27062B" d="M891.311,105.63c0.008,0.981,0.008,1.984-0.009,3.023
			C891.318,107.614,891.318,106.611,891.311,105.63"/>
		<path clip-path="url(#SVGID_52_)" fill="#27062B" d="M885.08,77.966c0.145,0.207,0.29,0.424,0.434,0.646
			C885.37,78.39,885.225,78.173,885.08,77.966"/>
		<path clip-path="url(#SVGID_52_)" fill="#27062B" d="M817.132,45.917c-0.356,0.002-0.706-0.025-1.05-0.065
			C816.426,45.892,816.775,45.919,817.132,45.917"/>
		<path clip-path="url(#SVGID_52_)" fill="#27062B" d="M815.796,45.811c-0.273-0.042-0.541-0.096-0.804-0.163
			C815.255,45.715,815.522,45.769,815.796,45.811"/>
		<polygon clip-path="url(#SVGID_52_)" fill="#27062B" points="841.166,256.703 851.818,265.848 851.818,254.784 847.651,251.207 		
			"/>
		<polygon clip-path="url(#SVGID_52_)" fill="#27062B" points="851.819,341.748 851.819,347.112 876.324,346.96 857.323,341.714 		
			"/>
		<polygon clip-path="url(#SVGID_52_)" fill="#27062B" points="876.324,346.96 851.819,325.915 846.535,321.378 840.048,326.878 
			851.819,336.985 857.323,341.714 		"/>
		<polygon clip-path="url(#SVGID_52_)" fill="#27062B" points="815.915,347.338 851.819,347.113 851.819,341.748 822.291,341.933 		
			"/>
		<polygon clip-path="url(#SVGID_52_)" fill="#27062B" points="851.661,215.279 835.314,229.134 847.831,239.876 851.819,236.497 
			851.819,215.278 		"/>
		<polygon clip-path="url(#SVGID_52_)" fill="#27062B" points="804.117,346.156 805.964,344.59 804.15,344.089 		"/>
		<polygon clip-path="url(#SVGID_52_)" fill="#27062B" points="804.183,342.046 804.149,344.089 805.965,344.59 809.002,342.016 		
			"/>
		<polygon clip-path="url(#SVGID_52_)" fill="#27062B" points="823.41,271.75 817.03,277.155 851.819,276.938 851.819,271.572 		"/>
		<path clip-path="url(#SVGID_52_)" fill="#27062B" d="M814.644,294.019l-9.567-8.211l-0.112,7.062
			C807.503,293.204,810.799,293.592,814.644,294.019"/>
		<path clip-path="url(#SVGID_52_)" fill="#27062B" d="M836.106,312.439l-21.463-18.421c-3.845-0.427-7.14-0.814-9.679-1.149
			l-0.063,3.852l16.073,13.794l-5.063,4.291l-11.452,9.707l-0.278,17.533l4.819-0.029l24.496-20.765l3.092-2.621l3.387-2.87
			L836.106,312.439z"/>
	</g>
	<g clip-path="url(#SVGID_2_)">
		<defs>
			<path id="SVGID_53_" d="M499.064,175.483v15.683c105.223-2.729,267.713,9.116,460.936,23.575v-57.43
				c-2.633-0.003-5.27-0.005-7.891-0.005C769.951,157.305,617.986,165.377,499.064,175.483"/>
		</defs>
		<clipPath id="SVGID_54_">
			<use xlink:href="#SVGID_53_"  overflow="visible"/>
		</clipPath>
		
			<linearGradient id="SVGID_55_" gradientUnits="userSpaceOnUse" x1="0" y1="400.0596" x2="1" y2="400.0596" gradientTransform="matrix(-548.3078 3.2002 3.2002 548.3078 -143.693 -219172.1406)">
			<stop  offset="0" style="stop-color:#C91127"/>
			<stop  offset="0.0317" style="stop-color:#C91127"/>
			<stop  offset="0.7884" style="stop-color:#3E0042"/>
			<stop  offset="1" style="stop-color:#3E0042"/>
		</linearGradient>
		<polygon clip-path="url(#SVGID_54_)" fill="url(#SVGID_55_)" points="960.335,214.739 499.08,217.432 498.729,157.307 
			959.984,154.615 		"/>
	</g>
	<g clip-path="url(#SVGID_2_)">
		<defs>
			<path id="SVGID_56_" d="M499.064,175.483l-3.062,15.764c10.255-0.267,24.134-0.476,35.451-0.476
				c104.812,0,254.169,10.921,428.546,23.97v-7.022c-173.714-12.999-323.571-23.947-428.546-23.947
				c-8.648,0-16.999,0.076-24.922,0.225v-2.115c139.773-11.664,289.636-17.575,445.582-17.575c2.628,0,5.253,0.002,7.886,0.005v-7
				c-2.633-0.003-5.266-0.005-7.886-0.005C769.954,157.307,617.986,165.377,499.064,175.483"/>
		</defs>
		<clipPath id="SVGID_57_">
			<use xlink:href="#SVGID_56_"  overflow="visible"/>
		</clipPath>
		
			<linearGradient id="SVGID_58_" gradientUnits="userSpaceOnUse" x1="0" y1="400.0781" x2="1" y2="400.0781" gradientTransform="matrix(-711.0757 -13.5104 -13.5104 711.0757 6385.4897 -284294.4688)">
			<stop  offset="0" style="stop-color:#C91127"/>
			<stop  offset="0.3016" style="stop-color:#C91127"/>
			<stop  offset="0.7884" style="stop-color:#3E0042"/>
			<stop  offset="1" style="stop-color:#3E0042"/>
		</linearGradient>
		<polygon clip-path="url(#SVGID_57_)" fill="url(#SVGID_58_)" points="959.834,223.496 497.973,214.721 499.23,148.552 
			961.091,157.328 		"/>
	</g>
	<g clip-path="url(#SVGID_2_)">
		<defs>
			<rect id="SVGID_59_" width="960" height="400.08"/>
		</defs>
		<clipPath id="SVGID_60_">
			<use xlink:href="#SVGID_59_"  overflow="visible"/>
		</clipPath>
		<polygon clip-path="url(#SVGID_60_)" fill="#27062B" points="810.128,271.833 834.609,251.074 828.651,245.96 837.695,248.457 
			841.092,245.576 822.092,240.33 805.577,254.334 805.298,271.863 		"/>
		<polygon clip-path="url(#SVGID_60_)" fill="#27062B" points="805.233,275.984 807.089,274.41 805.266,273.907 		"/>
		<polygon clip-path="url(#SVGID_60_)" fill="#27062B" points="834.608,251.074 837.695,248.458 828.65,245.961 		"/>
		<polygon clip-path="url(#SVGID_60_)" fill="#27062B" points="805.299,271.863 805.267,273.906 807.09,274.41 810.129,271.834 		
			"/>
		<polygon clip-path="url(#SVGID_60_)" fill="#27062B" points="841.093,245.576 806.192,215.624 806.02,226.536 822.092,240.331 		
			"/>
		<path clip-path="url(#SVGID_60_)" fill="#27062B" d="M809.44,40.6c0.592,1.72,1.776,3.165,3.328,4.112l4.363,1.205l34.687-0.217
			v-5.365L809.44,40.6z"/>
		<path clip-path="url(#SVGID_60_)" fill="#27062B" d="M814.992,45.648c0.264,0.067,0.53,0.121,0.804,0.163
			c0.095,0.015,0.189,0.029,0.286,0.041c0.345,0.04,0.692,0.067,1.05,0.065l-4.363-1.205
			C813.446,45.127,814.194,45.444,814.992,45.648"/>
		<polygon clip-path="url(#SVGID_60_)" fill="#27062B" points="763.269,-89.355 757.204,291.956 756.73,321.74 756.268,350.853 
			750.247,350.891 749.681,386.509 740.355,386.567 739.789,422.186 657.94,422.698 657.602,443.971 676.603,449.217 
			676.94,427.945 758.789,427.433 759.356,391.813 768.682,391.755 769.248,356.136 775.269,356.1 775.85,319.5 776.3,291.212 
			782.27,-84.109 		"/>
		<polygon clip-path="url(#SVGID_60_)" fill="#3E0042" points="851.819,285.442 851.819,284.373 850.548,285.45 		"/>
		<polygon clip-path="url(#SVGID_60_)" fill="#27062B" points="851.819,215.278 851.819,215.145 851.661,215.279 		"/>
	</g>
	<g display="none" clip-path="url(#SVGID_2_)">
		<defs>
			<path id="SVGID_61_" d="M803.962,355.919l47.857-0.3l38.384-0.24l-0.567,35.618l-37.816,0.237l-48.423,0.303L803.962,355.919z
				 M822.29,341.933l17.758-15.055l6.487-5.5l5.284,4.537l24.506,21.044l-24.506,0.154l-35.904,0.225L822.29,341.933z
				 M804.15,344.089l0.031-2.043l0.279-17.534l0.134-8.38l0.309-19.413l0.061-3.85l0.113-7.062l9.565,8.212l21.465,18.42l3.868,3.32
				l-3.386,2.871l-3.092,2.621l-24.496,20.764l-3.038,2.574l-1.847,1.566L804.15,344.089z M889.197,285.208l2.122-0.013
				l-0.26,16.207l-0.072,4.605l-0.649,40.864l-0.728,0.004l-0.353-0.302l-17.757-15.242l-18.238-15.655l7.183-6.089l11.557-9.8
				l0.003-0.128c0.045,0.004,0.089,0.009,0.134,0.012L889.197,285.208z M834.2,299.314l-4.299-3.692l-11.611-9.97l32.259-0.201
				l1.271-1.078v1.07l20.413-0.128l3.69-0.024l-3.741,3.173l-11.913,10.103l-8.449,7.166l-5.104,4.326L834.2,299.314z
				 M823.41,271.75l17.756-15.047l6.485-5.496l4.168,3.577l25.622,21.993l-25.622,0.16l-34.788,0.218L823.41,271.75z
				 M805.266,273.907l0.032-2.044l0.279-17.529l0.441-27.798l0.175-10.912l34.898,29.952l-3.396,2.882l-3.086,2.616l-24.481,20.76
				l-3.039,2.576l-1.855,1.574L805.266,273.907z M890.375,276.391l-17.758-15.241l-18.238-15.656l18.739-15.882l17.194-14.575
				l2.122-0.013l-0.98,61.666l-0.728,0.005L890.375,276.391z M873.348,215.144l0.018-1.038l3.674,1.015l-3.741,3.171l-21.479,18.205
				l-3.988,3.38l-12.516-10.742l-15.909-13.652l32.256-0.202l0.157-0.134v0.133L873.348,215.144z M806.414,201.692l0.487-30.624
				l0.23-14.453l0.397-25.055l0.066-4.199l0.088-5.515c0.022-1.364,1.187-2.483,2.865-2.494c0.048-2.968,0.102-6.33,0.162-10.194
				c0.576-36.199,15.53-36.55,15.962-36.553l25.146-0.158l14.003-0.088l10.685-0.066c0.079,0,0.669,0.004,1.571,0.252
				c0,0,0.001,0,0.002,0.001l0.013,0.003c0.136,0.037,0.278,0.081,0.426,0.13c0.044,0.015,0.092,0.032,0.137,0.048
				c0.11,0.038,0.225,0.08,0.343,0.125c0.058,0.023,0.117,0.047,0.176,0.072c0.114,0.047,0.23,0.098,0.35,0.152
				c0.061,0.028,0.123,0.056,0.186,0.085c0.137,0.067,0.278,0.139,0.421,0.215c0.046,0.025,0.089,0.045,0.135,0.071
				c0.188,0.104,0.382,0.217,0.577,0.341c0.047,0.03,0.098,0.065,0.146,0.097c0.149,0.097,0.301,0.199,0.455,0.309
				c0.068,0.05,0.139,0.103,0.211,0.156c0.137,0.103,0.275,0.211,0.416,0.325c0.073,0.059,0.147,0.12,0.222,0.183
				c0.149,0.127,0.298,0.261,0.449,0.4c0.063,0.058,0.126,0.113,0.189,0.174c0.211,0.202,0.424,0.417,0.638,0.646
				c0.031,0.034,0.063,0.074,0.096,0.109c0.181,0.199,0.363,0.407,0.544,0.626c0.07,0.086,0.14,0.177,0.211,0.266
				c0.145,0.183,0.29,0.372,0.434,0.569c0.077,0.103,0.152,0.209,0.229,0.317c0.146,0.207,0.29,0.423,0.434,0.647
				c0.067,0.104,0.136,0.206,0.203,0.314c0.194,0.313,0.387,0.639,0.578,0.982c0.013,0.024,0.028,0.046,0.041,0.071
				c0.203,0.368,0.402,0.758,0.599,1.162c0.06,0.123,0.118,0.253,0.178,0.38c0.137,0.292,0.271,0.592,0.403,0.902
				c0.068,0.159,0.136,0.321,0.202,0.484c0.125,0.308,0.247,0.626,0.369,0.952c0.063,0.166,0.124,0.331,0.185,0.503
				c0.14,0.39,0.273,0.797,0.405,1.215c0.037,0.116,0.076,0.226,0.113,0.344c0.164,0.539,0.323,1.1,0.475,1.682
				c0.04,0.153,0.077,0.316,0.117,0.471c0.11,0.441,0.218,0.891,0.321,1.357c0.05,0.221,0.095,0.448,0.142,0.674
				c0.09,0.432,0.177,0.874,0.259,1.328c0.046,0.241,0.09,0.482,0.131,0.729c0.086,0.502,0.166,1.022,0.24,1.55
				c0.031,0.206,0.063,0.406,0.092,0.616c0.101,0.743,0.192,1.508,0.274,2.302c0.016,0.145,0.026,0.3,0.04,0.448
				c0.064,0.658,0.123,1.33,0.174,2.024c0.021,0.284,0.038,0.579,0.057,0.869c0.037,0.587,0.068,1.184,0.097,1.795
				c0.014,0.324,0.027,0.651,0.039,0.983c0.021,0.638,0.037,1.294,0.048,1.96c0.006,0.307,0.013,0.607,0.015,0.921
				c0.01,0.981,0.01,1.983-0.008,3.023c-0.061,3.821-0.111,7.147,0.104,10.089l0.712,0.196c0.062,0.017,0.119,0.044,0.181,0.066
				c0.047,0.018,0.098,0.032,0.145,0.053c0.114,0.049,0.224,0.108,0.328,0.173c0.021,0.013,0.046,0.023,0.066,0.036
				c0.123,0.082,0.238,0.176,0.344,0.278c0.03,0.028,0.056,0.062,0.084,0.092c0.073,0.077,0.143,0.156,0.204,0.242
				c0.031,0.043,0.059,0.087,0.086,0.132c0.052,0.082,0.098,0.165,0.14,0.254c0.022,0.048,0.045,0.097,0.063,0.148
				c0.037,0.095,0.066,0.194,0.09,0.293c0.013,0.047,0.026,0.092,0.036,0.14c0.026,0.149,0.043,0.302,0.04,0.461l-0.088,5.515
				l-0.067,4.199l-0.397,25.055l-0.23,14.452l-0.571,35.988l-40.751,0.257l-45.49,0.284L806.414,201.692z M895.854,0l-0.365,22.996
				l-0.229,14.441c-0.005,0.286-0.025,0.569-0.061,0.847c-0.011,0.093-0.033,0.183-0.047,0.275c-0.03,0.185-0.061,0.368-0.103,0.548
				c-0.024,0.107-0.059,0.212-0.089,0.318c-0.044,0.159-0.088,0.319-0.142,0.475c-0.039,0.11-0.085,0.217-0.128,0.325
				c-0.06,0.146-0.116,0.291-0.184,0.434c-0.05,0.108-0.106,0.213-0.163,0.318c-0.07,0.136-0.143,0.271-0.221,0.403
				c-0.063,0.103-0.129,0.204-0.195,0.305c-0.083,0.126-0.169,0.25-0.259,0.371c-0.073,0.098-0.147,0.194-0.226,0.288
				c-0.095,0.117-0.191,0.231-0.292,0.342c-0.082,0.09-0.167,0.179-0.253,0.267c-0.106,0.107-0.216,0.21-0.327,0.311
				c-0.054,0.049-0.107,0.096-0.162,0.142c-0.034,0.03-0.066,0.061-0.102,0.089c-0.155,0.131-0.317,0.253-0.484,0.372
				c-0.075,0.055-0.149,0.113-0.228,0.166c-0.246,0.164-0.5,0.32-0.763,0.459c-0.001,0.001-0.001,0.001-0.002,0.002
				c-0.013,0.006-0.026,0.011-0.039,0.018c-0.237,0.123-0.479,0.235-0.728,0.336c-0.089,0.036-0.182,0.065-0.271,0.097
				c-0.177,0.066-0.355,0.13-0.537,0.184c-0.032,0.009-0.063,0.015-0.096,0.024c-0.06,0.017-0.12,0.031-0.182,0.046
				c-0.218,0.057-0.439,0.106-0.666,0.145c-0.106,0.019-0.215,0.036-0.322,0.051c-0.227,0.03-0.456,0.05-0.688,0.063
				c-0.077,0.004-0.152,0.01-0.229,0.012c-0.061,0.002-0.119,0.01-0.182,0.01l-35.071,0.22l-34.688,0.217
				c-0.356,0.002-0.706-0.025-1.05-0.065c-0.096-0.012-0.191-0.026-0.286-0.041c-0.272-0.042-0.541-0.096-0.803-0.163
				c-0.051-0.013-0.105-0.018-0.156-0.031l-19-5.247c0.726,0.201,1.496,0.306,2.294,0.3l14.637,4.042
				c-1.551-0.947-2.735-2.392-3.326-4.112c-0.282-0.821-0.438-1.702-0.424-2.623l0.23-14.441L809.622,0h-28.69L776.3,291.212
				l-0.45,28.288l-0.582,36.599l-6.02,0.038l-0.566,35.618l-9.325,0.06l-0.133,8.266h172.107l0.149-9.345l-9.272-2.561l0.525-33
				l-6.007-1.658L922.35,0H895.854z"/>
		</defs>
		<clipPath id="SVGID_62_" display="inline">
			<use xlink:href="#SVGID_61_"  overflow="visible"/>
		</clipPath>
		
			<linearGradient id="SVGID_63_" gradientUnits="userSpaceOnUse" x1="0" y1="400.0723" x2="1" y2="400.0723" gradientTransform="matrix(-9.0967 487.1809 487.1809 9.0967 -194057.25 -3701.5977)">
			<stop  offset="0" style="stop-color:#C91127"/>
			<stop  offset="0.3016" style="stop-color:#C91127"/>
			<stop  offset="0.7884" style="stop-color:#3E0042"/>
			<stop  offset="1" style="stop-color:#3E0042"/>
		</linearGradient>
		<polygon display="inline" clip-path="url(#SVGID_62_)" fill="url(#SVGID_63_)" points="938.947,0.14 931.42,403.295 
			751.756,399.94 759.284,-3.215 		"/>
	</g>
	<g clip-path="url(#SVGID_2_)">
		<defs>
			<path id="SVGID_64_" d="M803.878,356.169l47.858-0.3l38.383-0.24l-0.566,35.618l-37.816,0.237l-48.424,0.303L803.878,356.169z
				 M822.208,342.182l17.758-15.055l6.487-5.5l5.283,4.538l24.505,21.045l-24.505,0.153l-35.904,0.224L822.208,342.182z
				 M804.066,344.339l0.032-2.043l0.279-17.534l0.133-8.38l0.31-19.412l0.061-3.85l0.112-7.063l9.566,8.211l21.464,18.421
				l3.869,3.32l-3.387,2.871l-3.092,2.621l-24.496,20.764l-3.037,2.575l-1.847,1.565L804.066,344.339z M889.115,285.459l2.12-0.014
				l-0.259,16.207l-0.072,4.606l-0.65,40.862l-0.726,0.005l-0.354-0.303l-17.758-15.242l-18.238-15.654l7.183-6.09l11.558-9.799
				l0.002-0.128c0.045,0.005,0.089,0.008,0.134,0.013L889.115,285.459z M834.117,299.563l-4.3-3.691l-11.611-9.97l38.044-0.237
				l-4.514-1.042v1.07l20.413-0.128l3.69-0.023l-3.741,3.172l-11.913,10.103l-8.449,7.166l-5.104,4.326L834.117,299.563z
				 M823.326,272l17.756-15.047l6.486-5.496l4.168,3.577l25.621,21.993l-25.621,0.161l-34.788,0.218L823.326,272z M805.182,274.156
				l0.033-2.043l0.279-17.529l0.441-27.798l0.174-10.912l34.899,29.952l-3.396,2.881l-3.087,2.617l-24.48,20.759l-3.039,2.577
				l-1.855,1.575L805.182,274.156z M890.291,276.641l-17.758-15.242l-18.238-15.655l18.74-15.883l17.195-14.573l2.12-0.014
				l-0.98,61.666l-0.727,0.005L890.291,276.641z M882.5,215.413l-9.218-1.058l3.674,1.014l-3.741,3.172l-21.479,18.205l-3.987,3.38
				l-12.517-10.742l-15.91-13.652l32.256-0.202l0.158-0.133v0.132L882.5,215.413z M806.332,201.941l0.486-30.624l0.229-14.452
				l0.399-25.054l0.065-4.2l0.088-5.515c0.021-1.364,1.188-2.484,2.865-2.494c0.047-2.968,0.101-6.33,0.162-10.194
				c0.575-36.2,15.53-36.55,15.963-36.553l25.146-0.157l14.003-0.088l10.685-0.067c0.079-0.001,0.668,0.004,1.57,0.252h0.002
				l0.013,0.004c0.135,0.037,0.278,0.081,0.427,0.13c0.045,0.014,0.091,0.032,0.137,0.048c0.11,0.038,0.225,0.08,0.343,0.126
				c0.057,0.022,0.117,0.046,0.176,0.071c0.114,0.047,0.23,0.098,0.35,0.152c0.062,0.028,0.122,0.056,0.185,0.085
				c0.138,0.066,0.279,0.139,0.422,0.216c0.045,0.024,0.089,0.044,0.135,0.07c0.188,0.104,0.381,0.218,0.576,0.341
				c0.049,0.03,0.099,0.065,0.146,0.096c0.149,0.098,0.301,0.2,0.454,0.31c0.069,0.05,0.141,0.103,0.211,0.156
				c0.138,0.103,0.276,0.211,0.417,0.325c0.072,0.06,0.146,0.12,0.222,0.183c0.148,0.126,0.299,0.261,0.449,0.399
				c0.063,0.059,0.125,0.114,0.188,0.174c0.211,0.204,0.426,0.417,0.639,0.647c0.031,0.035,0.063,0.074,0.095,0.109
				c0.182,0.198,0.363,0.406,0.544,0.626c0.07,0.085,0.141,0.177,0.212,0.266c0.146,0.183,0.289,0.372,0.433,0.569
				c0.077,0.103,0.152,0.209,0.229,0.317c0.145,0.207,0.29,0.424,0.433,0.646c0.068,0.105,0.137,0.207,0.203,0.315
				c0.195,0.313,0.387,0.638,0.578,0.981c0.014,0.025,0.028,0.047,0.042,0.072c0.203,0.368,0.402,0.758,0.598,1.161
				c0.061,0.123,0.118,0.255,0.178,0.382c0.137,0.291,0.271,0.59,0.403,0.901c0.069,0.159,0.136,0.321,0.202,0.485
				c0.125,0.307,0.248,0.625,0.369,0.951c0.063,0.166,0.125,0.331,0.185,0.503c0.14,0.39,0.274,0.797,0.405,1.214
				c0.037,0.117,0.076,0.227,0.113,0.346c0.165,0.538,0.323,1.099,0.476,1.681c0.04,0.152,0.076,0.315,0.116,0.471
				c0.111,0.441,0.219,0.891,0.322,1.358c0.049,0.219,0.096,0.446,0.143,0.672c0.089,0.433,0.177,0.876,0.259,1.329
				c0.044,0.241,0.088,0.482,0.13,0.729c0.086,0.502,0.165,1.022,0.241,1.549c0.029,0.207,0.063,0.406,0.09,0.617
				c0.101,0.743,0.193,1.508,0.275,2.302c0.014,0.146,0.026,0.3,0.039,0.447c0.065,0.658,0.124,1.331,0.174,2.025
				c0.021,0.284,0.038,0.579,0.057,0.87c0.037,0.585,0.069,1.183,0.097,1.794c0.015,0.324,0.028,0.651,0.04,0.983
				c0.021,0.638,0.037,1.294,0.047,1.959c0.006,0.308,0.014,0.609,0.016,0.921c0.01,0.982,0.009,1.984-0.008,3.024
				c-0.062,3.821-0.111,7.147,0.104,10.088l0.712,0.197c0.063,0.017,0.121,0.044,0.181,0.066c0.049,0.018,0.098,0.032,0.145,0.053
				c0.114,0.049,0.224,0.108,0.328,0.173c0.022,0.013,0.046,0.023,0.067,0.037c0.123,0.082,0.238,0.175,0.344,0.277
				c0.03,0.029,0.057,0.061,0.084,0.092c0.072,0.077,0.143,0.156,0.204,0.242c0.03,0.043,0.058,0.087,0.085,0.132
				c0.053,0.081,0.099,0.166,0.14,0.253c0.022,0.049,0.046,0.098,0.065,0.148c0.037,0.096,0.064,0.194,0.089,0.295
				c0.012,0.047,0.026,0.092,0.035,0.139c0.027,0.15,0.043,0.303,0.04,0.46l-0.087,5.516l-0.068,4.199l-0.396,25.055l-0.231,14.452
				l-0.571,35.988l-40.75,0.257l-45.49,0.284L806.332,201.941z M895.774,0l-0.369,23.246l-0.23,14.441
				c-0.004,0.286-0.025,0.569-0.06,0.848c-0.012,0.092-0.034,0.182-0.048,0.274c-0.03,0.184-0.06,0.368-0.103,0.548
				c-0.023,0.107-0.058,0.212-0.088,0.317c-0.045,0.16-0.088,0.321-0.143,0.476c-0.039,0.11-0.085,0.217-0.128,0.325
				c-0.058,0.146-0.116,0.292-0.183,0.434c-0.051,0.108-0.107,0.212-0.163,0.318c-0.07,0.136-0.143,0.271-0.222,0.402
				c-0.063,0.104-0.128,0.204-0.195,0.305c-0.083,0.126-0.167,0.251-0.257,0.372c-0.073,0.098-0.149,0.194-0.226,0.289
				c-0.097,0.116-0.192,0.23-0.294,0.341c-0.082,0.091-0.166,0.18-0.252,0.267c-0.106,0.107-0.216,0.21-0.326,0.311
				c-0.055,0.049-0.108,0.096-0.162,0.143c-0.035,0.028-0.068,0.06-0.103,0.089c-0.156,0.129-0.318,0.253-0.483,0.371
				c-0.077,0.055-0.151,0.113-0.229,0.165c-0.246,0.166-0.499,0.32-0.762,0.46c-0.001,0.001-0.002,0.001-0.003,0.001
				c-0.013,0.007-0.026,0.012-0.039,0.019c-0.235,0.123-0.478,0.236-0.728,0.336c-0.089,0.036-0.182,0.064-0.271,0.098
				c-0.177,0.065-0.354,0.129-0.537,0.183c-0.031,0.009-0.063,0.016-0.095,0.025c-0.061,0.017-0.12,0.03-0.181,0.045
				c-0.22,0.057-0.44,0.107-0.665,0.145c-0.107,0.019-0.216,0.035-0.324,0.051c-0.228,0.03-0.457,0.05-0.689,0.063
				c-0.076,0.003-0.151,0.011-0.229,0.012c-0.062,0.002-0.12,0.01-0.181,0.01l-35.072,0.22l-34.688,0.218
				c-0.357,0.001-0.706-0.026-1.051-0.066c-0.096-0.012-0.19-0.026-0.286-0.041c-0.271-0.042-0.54-0.096-0.803-0.163
				c-0.051-0.013-0.105-0.017-0.155-0.032l-19.001-5.246c0.728,0.201,1.497,0.306,2.295,0.301l14.637,4.042
				c-1.552-0.948-2.735-2.393-3.327-4.113c-0.282-0.821-0.438-1.701-0.424-2.623l0.23-14.441L809.543,0h-28.691l-4.635,291.462
				l-0.45,28.288l-0.583,36.599l-6.019,0.038l-0.567,35.618l-9.326,0.06l-0.127,8.016h172.107l0.145-9.094l-9.271-2.562l0.524-33
				l-6.006-1.658L922.27,0H895.774z"/>
		</defs>
		<clipPath id="SVGID_65_">
			<use xlink:href="#SVGID_64_"  overflow="visible"/>
		</clipPath>
		
			<linearGradient id="SVGID_66_" gradientUnits="userSpaceOnUse" x1="0" y1="400.0723" x2="1" y2="400.0723" gradientTransform="matrix(-9.0967 487.1809 487.1809 9.0967 -194057.5 -3701.3477)">
			<stop  offset="0" style="stop-color:#C91127"/>
			<stop  offset="0.3016" style="stop-color:#C91127"/>
			<stop  offset="0.7884" style="stop-color:#3E0042"/>
			<stop  offset="1" style="stop-color:#3E0042"/>
		</linearGradient>
		<path clip-path="url(#SVGID_65_)" fill="url(#SVGID_66_)" d="M933.96,210.059c-1.702-0.02-3.406-0.042-5.108-0.063
			c-1.095,1.388-5.013,1.927-5.013,1.927l-72.103-4.898c0,0-5.523-8.698,0.932-8.756c0.586-0.005,1.803-1.428,2.348-1.696
			c1.176-0.579,2.205-1.022,3.49-1.292c2.875-0.604,6.142,0.148,8.962,0.748c5.326,1.135,10.79,2.029,16.231,2.639
			c-5.392-1.56-10.991-3.013-15.555-6.416c-2.589-1.931-3.423-5.33-1.012-7.853c0.337-0.353,0.701-0.673,1.08-0.974
			c-1.051-0.77-2.085-1.575-3.08-2.455c-1.195-1.057-1.912-3.342-1.286-4.865c3.905-9.506,15.312-9.783,24.192-9.115
			c0.372,0.028,0.753,0.057,1.126,0.084c-4.777-2.051,3.832-9.294,3.832-9.294l30.838-0.512c0,0,6.281,10.833-0.167,10.833
			c-0.58,0-1.164,0.005-1.748,0.011c0.61,1.073,0.782,2.417,0.547,3.694c0.512,0.154,1.023,0.307,1.53,0.473
			c4.41,1.445,4.614,6.555,1.194,9.139c-0.359,0.271-0.739,0.509-1.129,0.733c0.76,0.602,1.364,1.421,1.684,2.333
			c3.671,1.053,7.009,2.824,9.571,5.569L938.863,0.14L759.205-3.215l-7.528,403.155l179.659,3.354l3.609-193.292
			C934.625,210.039,934.299,210.063,933.96,210.059z"/>
		
			<linearGradient id="SVGID_67_" gradientUnits="userSpaceOnUse" x1="0" y1="400.1484" x2="1" y2="400.1484" gradientTransform="matrix(-9.0967 487.1809 487.1809 9.0967 -194057.5 -3701.3477)">
			<stop  offset="0" style="stop-color:#C91127"/>
			<stop  offset="0.3016" style="stop-color:#C91127"/>
			<stop  offset="0.7884" style="stop-color:#3E0042"/>
			<stop  offset="1" style="stop-color:#3E0042"/>
		</linearGradient>
		<path clip-path="url(#SVGID_65_)" fill="url(#SVGID_67_)" d="M876.364,176.981c1.813,1.136,3.724,2.094,5.707,2.896
			c2.206-0.042,4.341,0.019,6.208,0.04c0.645,0.007,1.288,0.009,1.931,0.007c-0.926-0.744-1.768-1.809-1.993-2.996
			C884.523,176.565,879.521,176.244,876.364,176.981z"/>
	</g>
	<g clip-path="url(#SVGID_2_)">
		<defs>
			<rect id="SVGID_68_" width="960" height="400.08"/>
		</defs>
		<clipPath id="SVGID_69_">
			<use xlink:href="#SVGID_68_"  overflow="visible"/>
		</clipPath>
		<path clip-path="url(#SVGID_69_)" fill="#C91127" d="M798.131,40.671c-0.798,0.005-1.567-0.1-2.295-0.301l19.001,5.247
			c0.051,0.013,0.105,0.018,0.155,0.031c-0.798-0.204-1.545-0.521-2.224-0.936L798.131,40.671z"/>
		<path clip-path="url(#SVGID_69_)" fill="#27062B" d="M816.082,45.852c-0.096-0.011-0.191-0.026-0.286-0.041
			C815.891,45.826,815.986,45.841,816.082,45.852"/>
	</g>
	<g clip-path="url(#SVGID_2_)">
		<defs>
			<path id="SVGID_70_" d="M660.054,0c-19.722,29.977-39.31,56.186-58.723,78.556c-56.452,65.049-111.709,98.086-164.232,98.193
				h-0.253c-58.025,0-102.687-40.88-129.949-75.203c-29.801-37.521-45.894-75.605-46.054-75.985l-4.966,1.825
				c0.161,0.386,16.468,39.001,46.667,77.051c17.788,22.412,36.86,40.275,56.685,53.093c24.858,16.072,50.967,24.219,77.614,24.219
				h0.253c54.204-0.105,110.849-33.758,168.362-100.027C625.577,58.54,645.874,31.275,666.308,0H660.054z"/>
		</defs>
		<clipPath id="SVGID_71_">
			<use xlink:href="#SVGID_70_"  overflow="visible"/>
		</clipPath>
		
			<linearGradient id="SVGID_72_" gradientUnits="userSpaceOnUse" x1="0" y1="399.8789" x2="1" y2="399.8789" gradientTransform="matrix(-15.7153 322.1647 322.1647 15.7153 -128361.7578 -6276.1504)">
			<stop  offset="0" style="stop-color:#C93D27"/>
			<stop  offset="0.1429" style="stop-color:#C93D27"/>
			<stop  offset="0.3016" style="stop-color:#C91127"/>
			<stop  offset="0.7884" style="stop-color:#3E0042"/>
			<stop  offset="1" style="stop-color:#3E0042"/>
		</linearGradient>
		<polygon clip-path="url(#SVGID_71_)" fill="url(#SVGID_72_)" points="675.152,0.432 665.334,201.723 247.032,181.318 
			256.851,-19.974 		"/>
	</g>
	<g clip-path="url(#SVGID_2_)">
		<defs>
			<path id="SVGID_73_" d="M694.096,0c-20.307,31.106-40.477,58.224-60.454,81.253c-56.431,65.055-111.683,98.058-164.221,98.094
				h-0.084c-58.401,0-103.285-41.413-130.656-76.164c-29.849-37.895-45.95-76.329-46.109-76.713l-3.978,1.449
				c0.161,0.388,16.431,39.247,46.596,77.565c17.756,22.557,36.793,40.539,56.584,53.447c24.84,16.202,50.932,24.416,77.562,24.416
				h0.077c53.886-0.032,110.251-33.529,167.533-99.562C657.486,60.106,678.215,32.152,699.09,0H694.096z"/>
		</defs>
		<clipPath id="SVGID_74_">
			<use xlink:href="#SVGID_73_"  overflow="visible"/>
		</clipPath>
		
			<linearGradient id="SVGID_75_" gradientUnits="userSpaceOnUse" x1="0" y1="399.8818" x2="1" y2="399.8818" gradientTransform="matrix(-15.7375 322.6177 322.6177 15.7375 -128510.1016 -6309.9888)">
			<stop  offset="0" style="stop-color:#C93D27"/>
			<stop  offset="0.1429" style="stop-color:#C93D27"/>
			<stop  offset="0.4497" style="stop-color:#C91127"/>
			<stop  offset="0.7884" style="stop-color:#3E0042"/>
			<stop  offset="1" style="stop-color:#3E0042"/>
		</linearGradient>
		<polygon clip-path="url(#SVGID_74_)" fill="url(#SVGID_75_)" points="708.013,0.436 698.115,203.324 279.671,182.912 
			289.568,-19.977 		"/>
	</g>
	<g clip-path="url(#SVGID_2_)">
		<defs>
			<path id="SVGID_76_" d="M425.482,334.345c-7.065,9.085-40.317,28.641-40.317,28.641l-45.104-25.755l-12.996,29.929l74.133,32.921
				h1.936l43.216-59.068c-4.417-5.94-11.646-7.023-16.331-7.023C427.332,333.988,425.482,334.345,425.482,334.345"/>
		</defs>
		<clipPath id="SVGID_77_">
			<use xlink:href="#SVGID_76_"  overflow="visible"/>
		</clipPath>
	</g>
	<g clip-path="url(#SVGID_2_)">
		<defs>
			<rect id="SVGID_78_" width="960" height="400.08"/>
		</defs>
		<clipPath id="SVGID_79_">
			<use xlink:href="#SVGID_78_"  overflow="visible"/>
		</clipPath>
	</g>
	<path clip-path="url(#SVGID_2_)" fill="#27062B" d="M876.283,30.599c0,0,2.396,9.578-12.783,9.67
		c-33.167,0.201,13.333,4.333,13.333,4.333s18.834,5.666,18.334-13.167S876.283,30.599,876.283,30.599z"/>
</g>
</svg>
