<?xml version="1.0" encoding="utf-8"?>
<!-- Generator: Adobe Illustrator 16.0.0, SVG Export Plug-In . SVG Version: 6.00 Build 0)  -->
<!DOCTYPE svg PUBLIC "-//W3C//DTD SVG 1.1//EN" "http://www.w3.org/Graphics/SVG/1.1/DTD/svg11.dtd">
<svg version="1.1" id="Layer_1" xmlns="http://www.w3.org/2000/svg" xmlns:xlink="http://www.w3.org/1999/xlink" x="0px" y="0px"
	 width="745px" height="226.199px" viewBox="0 0 745 226.199" enable-background="new 0 0 745 226.199" xml:space="preserve">
<g>
	<defs>
		<rect id="SVGID_1_" width="960" height="495.408"/>
	</defs>
	<clipPath id="SVGID_2_">
		<use xlink:href="#SVGID_1_"  overflow="visible"/>
	</clipPath>
	<g clip-path="url(#SVGID_2_)">
		<defs>
			<rect id="SVGID_3_" x="-10" y="-108.416" width="960" height="495.406"/>
		</defs>
		<clipPath id="SVGID_4_">
			<use xlink:href="#SVGID_3_"  overflow="visible"/>
		</clipPath>
		
			<radialGradient id="SVGID_5_" cx="0.0303" cy="400.2031" r="1.0006" gradientTransform="matrix(724.4638 -538.6218 -434.9782 -897.0838 174422.2344 359157.125)" gradientUnits="userSpaceOnUse">
			<stop  offset="0" style="stop-color:#D48B87"/>
			<stop  offset="0.6561" style="stop-color:#883065"/>
			<stop  offset="1" style="stop-color:#883065"/>
		</radialGradient>
		<polygon clip-path="url(#SVGID_4_)" fill="url(#SVGID_5_)" points="-208.563,-106.885 673.623,-762.77 1104.563,125.983 
			222.375,781.869 		"/>
	</g>
	<g clip-path="url(#SVGID_2_)">
		<defs>
			<rect id="SVGID_6_" y="35.136" width="960" height="495.408"/>
		</defs>
		<clipPath id="SVGID_7_">
			<use xlink:href="#SVGID_6_"  overflow="visible"/>
		</clipPath>
		<path clip-path="url(#SVGID_7_)" fill="#A14765" d="M253.361,314.844l3.028-7.644l20.407-11.77l-1.975,4.433
			c0,0,14.351-7.03,14.088-7.487c-0.263-0.459,9.216-15.436,9.216-15.436h-4.608l3.028-6.878l6.846-5.808l-0.658,6.419
			c0,0,7.636-7.487,8.426-9.933c0.79-2.448,4.477-18.19,4.477-18.19l-2.502,2.141l2.502-6.113c0,0-9.348,3.059-11.455,1.225
			l-4.476,5.195c0,0-7.505,3.667-8.163,3.362l-0.79-2.141c0,0-12.639,10.698-12.112,9.937c0.526-0.766,11.586-16.811,11.586-16.811
			s1.58,0,3.159-0.768l0.132,4.127l9.348-10.851c0,0,0.132,1.984,1.185,1.527c1.053-0.457,6.846-9.476,6.846-9.476h3.95
			l-1.712,7.948l6.057-0.916l8.557-19.718l1.975-1.221c0,0,0.395-2.601,0-4.128c-0.395-1.527,0.176-4.128,0.176-4.128l-3.204-3.438
			l3.818-8.632v2.598c0,0,8.295-12.534,9.48-12.534l4.344-13.755l-3.159,2.599c0,0,4.871-9.934,5.661-10.698c0,0,1.185,1.07,1.58,0
			c0.395-1.069,4.871-17.423,4.476-19.563l5.267-1.07l14.746-25.675l4.412-0.687c-0.508-0.537-0.419-0.18-0.419-0.18
			s-3.247-2.751-3.95-2.955c-0.702-0.204-5.793,5.399-5.793,5.399c-0.965,0-2.194,0.612-2.194,0.612
			c-2.194,3.26-14.57,15.386-14.57,15.386l-2.107-2.751c0,0-1.229,0.611-2.282,0.816c-1.053,0.202-5.354,6.214-5.354,6.214
			s-21.921,29.572-23.764,31.331c-1.844,1.757-10.27,4.203-10.27,4.203s-2.567,3.133-12.705,14.825
			c-10.138,11.691-10.796,6.903-10.796,6.903c-1.887-3.975-3.292-2.247-3.292-2.247c-0.658,1.064-6.451,3.52-6.451,3.52
			l-8.821,0.307c-0.527-4.126-1.975-3.823-1.975-3.823s-26.99,8.103-28.702,9.017c-1.711,0.92-9.742,12.381-9.742,12.381
			l-8.822,1.375l-10.401,8.712l-46.739,23.333c-4.827-0.919-5.441,0.712-5.441,0.712l-10.182,10.392l3.774,7.034
			c-4.827,5.806-26.946,22.922-26.946,22.922c-4.564-3.26-5.881-1.731-5.881-1.731l-12.2,7.946v38.515h117.961
			c9.807-6.176,29.892-16.045,29.892-16.045L253.361,314.844z"/>
		<path clip-path="url(#SVGID_7_)" fill="#9C5177" d="M152.247,290.237c0,0,7.373-5.198,7.373-6.88
			c0-1.68,3.028-16.166,3.028-16.166l7.768-0.646l14.351-5.652l12.376,1.832l15.931-8.251c0,0-16.326,11.674-16.326,12.717
			c0,1.037-13.429,6.387-12.771,10.513c0.658,4.126-16.589,9.78-16.589,9.78s-1.185-3.514-2.765-3.514
			S152.247,290.237,152.247,290.237"/>
		<path clip-path="url(#SVGID_7_)" fill="#9C5177" d="M193.588,254.475c0,0,4.081-3.058,4.476-3.976s11.06-4.123,11.06-4.123
			s-5.925,5.5-6.583,8.099C202.541,254.475,198.328,252.336,193.588,254.475"/>
		<path clip-path="url(#SVGID_7_)" fill="#9C5177" d="M230.519,243.853c0,0,16.655-14.979,17.576-22.85c0,0,5.793-6.648,6.518-6.494
			c0.724,0.15,7.702-5.12,7.702-5.12l-1.251-1.455l6.517-3.282v3.055c0,0,6.056-0.307,7.834-3.973c0,0,10.467-3.056,12.178-5.428
			c0,0-16.128,11.845-15.865,12.688c0.264,0.841,0.79,3.516,0.79,3.516s-8.294,5.349-8.294,5.119v-2.978l-13.298,10.542l1.119,1.834
			L230.519,243.853z"/>
	</g>
	<g clip-path="url(#SVGID_2_)">
		<defs>
			<rect id="SVGID_8_" y="35.136" width="960" height="495.408"/>
		</defs>
		<clipPath id="SVGID_9_">
			<use xlink:href="#SVGID_8_"  overflow="visible"/>
		</clipPath>
		<polygon clip-path="url(#SVGID_9_)" fill="#B58D97" points="444.875,436.094 211.604,436.094 211.604,329.001 444.875,313.212 		
			"/>
	</g>
	<g clip-path="url(#SVGID_2_)">
		<defs>
			<path id="SVGID_10_" d="M372.908,111.575l-14.746,25.675l-5.267,1.071c0.395,2.14-4.081,18.492-4.475,19.562
				c-0.395,1.07-1.581,0-1.581,0c-0.79,0.766-5.661,10.699-5.661,10.699l3.16-2.599l-4.345,13.755c-1.184,0-9.48,12.534-9.48,12.534
				v-2.598l-3.818,8.632l3.205,3.438c0,0-0.571,2.601-0.176,4.128s0,4.128,0,4.128l-1.975,1.221l-8.558,19.718l-6.057,0.916
				l1.712-7.948h-3.949c0,0-5.793,9.019-6.846,9.476c-1.054,0.459-1.186-1.527-1.186-1.527l-9.348,10.851l-0.131-4.127
				c-1.58,0.768-3.16,0.768-3.16,0.768s-11.059,16.045-11.586,16.811c-0.527,0.762,12.112-9.935,12.112-9.935l0.79,2.139
				c0.659,0.305,8.163-3.362,8.163-3.362l4.477-5.195c2.106,1.834,11.454-1.225,11.454-1.225l-2.502,6.115l2.502-2.141
				c0,0-3.686,15.742-4.476,18.188c-0.79,2.441-8.426,9.933-8.426,9.933l0.658-6.419l-6.846,5.806l-3.029,6.88h4.609
				c0,0-9.48,14.977-9.217,15.436c0.264,0.457-14.087,7.487-14.087,7.487l1.975-4.433l-20.408,11.77l-3.027,7.644l-4.214-1.834
				c0,0-20.085,9.869-29.892,16.045l352.393,53.493l105.26-84.671l-12.111-4.89l-32.652-14.063l-27.912-20.378l-11.234-2.238v-6.318
				l-7.688-5.201l-8.99,5.556c0,0,1.053-6.724,0-7.183c-0.525-0.228-2.436,1.147-4.23,2.523c-1.793,1.375-3.471,2.752-3.537,2.522
				c-0.131-0.459,0,7.487,0,7.487l-13.955,10.394l0.395-3.975l-2.766,1.836l-3.291,3.237v2.721l-20.67,12.99l7.24,1.988
				l-6.518,6.267l-24.291,1.068l-10.795,4.894l25.146-22.62l1.58,1.221l3.16-2.446l10.4-1.984l1.449-4.098l3.816-2.933l-0.393-2.293
				l0.922-1.068l-1.582-0.611l-5.266,1.68l-3.686-1.375l26.068-20.938l1.975-1.07v-2.292l2.166-1.811l-9.32-9.244
				c0,0-1.229-0.307-1.93-0.712c-0.703-0.41-4.389-5.705-4.389-5.705c-7.9,0.303-11.938-6.523-11.938-6.523
				s-5.092-10.802-7.021-11.514c-1.932-0.713-4.479-5.348-5.617-7.742c-1.143-2.396-1.449-1.833-1.449-1.833
				s-6.154-1.528-6.617-2.14c-0.461-0.613-1.152-2.254-1.152-2.254s-3.85-0.115-4.146-0.191c-0.295-0.076-1.645,2.139-1.645,2.139
				s-2.699,0.192-2.863,0.075c-0.166-0.113-2.107-2.635-2.107-2.635s-1.25-0.344-1.844-0.42c-0.592-0.078-1.316-3.02-1.316-3.02
				l-1.316-0.687l-2.131-0.15c-0.469,0.629-0.807,1.33-0.932,2.098c-0.656,4.127-5.002,8.254-5.002,8.254v-3.057
				c-0.789,0.459-6.845,2.901-6.845,2.901l-5.531,5.808l-0.789-1.832l-11.587,11.308c8.164-5.96,10.928-6.112,10.928-6.112
				c3.029,1.374,8.294-0.764,8.294-0.764l-2.896,4.354c0,0-1.186-0.228-3.16,1.454c-1.975,1.68-3.687,5.96-4.608,6.112
				c-0.922,0.154-1.317,2.904-1.448,3.363c-0.132,0.457-4.872,3.669-6.715,3.002c-1.844-0.667-10.928,8.92-10.928,8.92h-7.899
				l3.817-3.822l-2.106-0.46c0,0-3.423,2.601-4.213,4.433c-0.79,1.836-29.36,8.407-29.36,8.407l21.855-21.396l-0.658-1.225
				l6.978-7.946l11.323-2.141l2.896-2.599l1.053,1.071l3.029-3.21l-1.448-0.918l18.553-19.614c-0.238-0.142-0.462-0.28-0.648-0.407
				c-2.37-1.604-13.429,1.377-13.429,1.377c-25.806-5.503-24.884-12.839-24.884-12.839s-3.511-10.8-4.213-11.104
				c-0.702-0.308-4.739-1.836-5.442-2.14c-0.702-0.307-6.758-11.108-7.636-11.923c-0.878-0.813-3.686,1.631-4.916,2.14
				c-1.228,0.511-2.018-1.731-3.861-2.546c-1.844-0.815-3.862,0.102-3.862,0.102c-3.072-6.317-7.198-10.189-7.198-10.189
				s-5.178-6.725-5.968-6.215c-0.79,0.508-6.232-1.325-6.232-1.325c-3.775-6.012-4.652-4.483-4.652-4.483s-0.439-1.325-3.16-5.197
				c-1.092-1.552-1.698-2.312-2.039-2.672L372.908,111.575z"/>
		</defs>
		<clipPath id="SVGID_11_">
			<use xlink:href="#SVGID_10_"  overflow="visible"/>
		</clipPath>
		
			<linearGradient id="SVGID_12_" gradientUnits="userSpaceOnUse" x1="-0.2373" y1="400.0176" x2="0.9961" y2="400.0176" gradientTransform="matrix(288.1074 -279.6024 -279.6024 -288.1074 112201.2266 115584.2734)">
			<stop  offset="0" style="stop-color:#9C6577"/>
			<stop  offset="0.3228" style="stop-color:#9C6577"/>
			<stop  offset="0.5608" style="stop-color:#9C5177"/>
			<stop  offset="1" style="stop-color:#9C5177"/>
		</linearGradient>
		<polygon clip-path="url(#SVGID_11_)" fill="url(#SVGID_12_)" points="109.613,242.649 454.937,-172.333 786.553,250.786 
			441.228,665.771 		"/>
	</g>
	<g clip-path="url(#SVGID_2_)">
		<defs>
			<rect id="SVGID_13_" y="35.136" width="960" height="495.408"/>
		</defs>
		<clipPath id="SVGID_14_">
			<use xlink:href="#SVGID_13_"  overflow="visible"/>
		</clipPath>
		<path clip-path="url(#SVGID_14_)" fill="#A14765" d="M385.679,144.128c0,0-6.32,4.687-6.583,5.195
			c-0.263,0.511-3.599,6.318-3.599,6.318s7.285-4.178,7.285-4.586C382.782,150.648,385.679,144.128,385.679,144.128"/>
		<path clip-path="url(#SVGID_14_)" fill="#5B0F4C" d="M339.203,291.306l4.081-7.335c0,0-2.238,0-2.04-1.377
			c0.197-1.376,0.066,0.307,2.04-2.599c1.975-2.902,5.662-13.297,7.373-13.449c1.712-0.15,2.37-2.443,2.37-2.443v-1.682
			c0,0-4.476,2.598-6.056,3.666c-1.58,1.073-4.608,10.09-15.009,13.449l-12.376,15.131c0,0,8.558,0.307,11.454-1.834
			C333.937,290.694,339.203,291.306,339.203,291.306"/>
		<path clip-path="url(#SVGID_14_)" fill="#5B0F4C" d="M348.814,261.91c0.263-0.405,8.251-7.436,9.392-10.291
			c1.141-2.852,5.88-4.483,5.88-4.483l-6.056,9.478l-3.247,1.425l-0.703,1.327L348.814,261.91z"/>
		<path clip-path="url(#SVGID_14_)" fill="#A14765" d="M410.036,156.66l-7.856,9.272c0,0-1.228-0.816-7.987,2.038
			c0,0-1.47,1.223-2.392-0.382c0,0,0.527-2.14,0.527-3.133l-8.69,3.959c0,0,1.185,2.458-4.739,4.446l-15.865,32.4
			c0,0,4.147-4.051,4.937-3.823c0.79,0.229,1.185-0.762,1.185-0.762l2.896,1.835c0,0,0.856,4.202,3.818,6.801l-1.974,5.195
			c0,0-0.33,1.377,1.119,3.135c0,0,0.658,0.993,0.065,3.668c-0.592,2.676-1.25,3.285-1.25,3.285l0.066,1.604l-0.856,6.955
			c0,0,0.724,3.361,0.131,5.424l2.436-1.376l-3.489,7.719h-1.316l-4.543,8.177c0,0,5.069-5.424,6.057-5.962
			c0.987-0.534,13.363-18.032,13.363-18.032l7.9-17.578l-5.662,3.365c0,0-0.131-1.302-0.131-1.684s1.316-2.823,1.316-2.823
			s-5.529-6.805-5.924-10.088l-1.778,0.228c0,0,8.558-11.921,11.389-18.188c0,0,1.316,0.994,2.04,0.153
			c0.725-0.84,2.239-3.515,2.239-3.515s0.987,0.229,1.053,1.681c0.066,1.452-0.132,3.974-0.132,3.974s2.107,1.453,2.831,2.521
			c0.724,1.068,0.263,2.063,0.79,2.828c0.526,0.764,1.58,2.443,1.58,2.443l-1.778,6.039c0,0,2.107-1.604,2.634-2.98
			c0.526-1.375,6.648-14.749,6.648-14.749s-2.238-4.89-1.316-6.953c0,0-1.778,1.069-5.53,0.61L410.036,156.66z"/>
		<path clip-path="url(#SVGID_14_)" fill="#A14765" d="M403.683,214.889c0,0,0.461,2.599,0.56,2.638
			c0.098,0.04,1.547,1.338,1.547,1.338s-6.945,4.048-6.945,3.856C398.845,222.53,403.683,214.889,403.683,214.889"/>
		<path clip-path="url(#SVGID_14_)" fill="#5B0F4C" d="M395.29,232.007l-6.188,10.239l1.251,0.534c0,0-2.304,1.377-3.489,2.753
			c-1.185,1.375-5.267,7.564-5.267,7.564l0.659,1.426l-11.455,12.664l9.282-16.613l-1.185-1.755c0,0,3.094-4.355,3.621-5.58
			c0,0,4.213,0.075,5.069-1.298C388.444,240.566,393.052,232.466,395.29,232.007"/>
	</g>
	<g clip-path="url(#SVGID_2_)">
		<defs>
			<rect id="SVGID_15_" y="35.136" width="960" height="495.408"/>
		</defs>
		<clipPath id="SVGID_16_">
			<use xlink:href="#SVGID_15_"  overflow="visible"/>
		</clipPath>
		<path clip-path="url(#SVGID_16_)" fill="#A14765" d="M486.266,208.776l-8.03,10.032v1.89c0,0-2.897,0.241-2.897,2.03
			c0,1.791,0.922,3.012,0.922,3.012l-1.712,3.668c0,0-21.197,16.354-29.623,24.758l15.009-16.505c0,0,2.107-1.834,2.502-2.75
			s0.526-2.75,0.526-2.75l2.634-2.14l-1.317-1.682l3.95-4.738l-0.395-2.292l5.134-3.975l3.687-0.152l1.185-2.292L486.266,208.776z"
			/>
		<path clip-path="url(#SVGID_16_)" fill="#A14765" d="M516.021,243.926c0,0,5.201-5.885,5.135-6.646
			c-0.066-0.764,5.332-5.654,5.332-5.654l0.855-3.362c0,0,4.213-3.209,4.674-5.885l5.332-0.457c0,0-5.463,6.265-5.268,6.265
			c0.199,0,1.713-0.154,1.713-0.154l-1.316,4.128l-2.699,0.154l-7.965,6.267l-0.133,0.762L516.021,243.926z"/>
		<path clip-path="url(#SVGID_16_)" fill="#5B0F4C" d="M557.494,238.58l-1.975,1.068l-26.068,20.938l3.686,1.375l5.266-1.68
			l1.58,0.611l-0.92,1.068l0.395,2.293l-3.82,2.933l-1.447,4.098l-10.4,1.984l-3.16,2.45l-1.58-1.225l-25.146,22.618l10.797-4.892
			l24.291-1.068l6.516-6.267l-7.24-1.988l20.67-12.99v-2.721l3.293-3.239l2.764-1.834l-0.396,3.973l13.957-10.392
			c0,0-0.131-7.946,0-7.487c0.133,0.457,6.715-5.503,7.768-5.044c1.053,0.457,0,7.181,0,7.181l8.99-5.558l-3.525-2.387l-6.451-2.752
			l-4.104-4.635c-1.932,0.609-11.236-0.203-11.236-0.203l-0.334-0.335l-2.166,1.811V238.58z"/>
		<path clip-path="url(#SVGID_16_)" fill="#A14765" d="M458.354,198.842l-3.028,3.21l-1.053-1.071l-2.897,2.599l-11.323,2.141
			l-6.978,7.946l0.659,1.223l-21.856,21.397c0,0,28.57-6.571,29.36-8.407c0.79-1.832,4.213-4.433,4.213-4.433l2.107,0.46
			l-3.818,3.822h7.899c0,0,9.085-9.587,10.928-8.92c1.843,0.665,6.583-2.545,6.715-3.002c0.131-0.459,0.526-3.209,1.448-3.361
			c0.922-0.154,2.633-4.435,4.608-6.114c1.975-1.682,3.16-1.454,3.16-1.454l2.896-4.354c0,0-5.266,2.138-8.294,0.764
			c0,0-2.765,0.15-10.928,6.112l11.586-11.308l0.79,1.832l5.53-5.805c0,0,6.056-2.445,6.845-2.906v3.058
			c0,0,4.346-4.126,5.004-8.253c0.123-0.77,0.461-1.469,0.928-2.099l-2.771-0.193c-5.641,0.844-11.83-1.747-14.625-3.416
			l-18.553,19.614L458.354,198.842z"/>
		<path clip-path="url(#SVGID_16_)" fill="#5B0F4C" d="M547.092,277.299l6.496-1.939l-4.037,7.03c0,0-7.9,1.939-7.9,1.529
			c0-0.409,5.969-4.992,5.969-4.992L547.092,277.299z"/>
		<path clip-path="url(#SVGID_16_)" fill="#631551" d="M884.328,378.46c-0.453,1.32-6.375,11.101-6.375,11.101l-7.287,7.931
			l-2.732,6.085c0,0,3.414,2.113,3.871,0c0.455-2.117,2.732-6.348,2.732-6.348l6.375-6.872l-2.732,7.933l5.467-6.611l3.645-0.793
			c0,0,3.643-12.425,6.375-12.161c2.732,0.265,6.377-1.381,6.377-1.381l1.82-2.319l9.109-7.139l0.912-1.583l4.555-0.53l12.297-9.781
			l10.248-2.378c0,0,4.1-8.989,6.148-8.989s9.793,1.321,9.793,1.321v-3.965l8.881-4.229l7.971-9.254h3.871l1.365-5.551l5.922-6.61
			l2.277,3.438c0,0,23.912-24.055,23.912-26.7c0-2.644-1.141-6.872,0-7.402c1.139-0.526,6.148-3.433,6.148-3.433l-1.367-10.048
			l22.053-11.288l-0.418-29.421l-20.041,10.574l-3.035,9.445l-11.539,0.299v14.928l-8.502,5.637l-7.895,17.626l-7.287-3.525
			l-12.146,24.672c0,0-14.574,16.218-17.002,21.148c-1.656,3.363-32.045,22.747-51.258,34.768
			C890.262,372.785,884.521,377.902,884.328,378.46 M997.434,284.703c0.76-1.411,1.67-4.934,2.43-5.111
			c0.76-0.176,6.832-2.289,6.832-2.289l-3.492,7.4l-8.502,4.937L997.434,284.703z"/>
	</g>
	<g clip-path="url(#SVGID_2_)">
		<defs>
			<path id="SVGID_17_" d="M954.924,341.979v3.965c0,0-7.742-1.321-9.791-1.321s-6.148,8.989-6.148,8.989l-10.248,2.378
				l-12.297,9.781l-4.555,0.53l-0.912,1.583l-9.107,7.139l-1.822,2.319c0,0-3.645,1.646-6.377,1.381
				c-2.734-0.264-6.377,12.161-6.377,12.161l-3.643,0.793l-5.467,6.611l2.734-7.933l-6.377,6.872c0,0-2.277,4.23-2.732,6.346
				c-0.457,2.115-3.873,0-3.873,0l2.734-6.081l7.287-7.929c0,0,5.92-9.784,6.375-11.104c0.193-0.556,5.934-5.675,12.508-11.406
				c-8.994,5.627-15.543,9.644-15.543,9.644l-12.754,17.624l-3.643,3.524l-18.219,29.606l-11.537,4.938l-3.645,12.687l46.76,4.23
				L960,433.113v-93.552L954.924,341.979z"/>
		</defs>
		<clipPath id="SVGID_18_">
			<use xlink:href="#SVGID_17_"  overflow="visible"/>
		</clipPath>
		
			<linearGradient id="SVGID_19_" gradientUnits="userSpaceOnUse" x1="0.0708" y1="400.1367" x2="1.3215" y2="400.1367" gradientTransform="matrix(-311.8667 340.8776 340.8776 311.8667 -135330.7969 -124580.9688)">
			<stop  offset="0" style="stop-color:#9C5177"/>
			<stop  offset="0.2116" style="stop-color:#9C5177"/>
			<stop  offset="0.6561" style="stop-color:#5A0E47"/>
			<stop  offset="0.9153" style="stop-color:#5A0E4F"/>
			<stop  offset="1" style="stop-color:#5A0E4F"/>
		</linearGradient>
		<polygon clip-path="url(#SVGID_18_)" fill="url(#SVGID_19_)" points="1004.139,389.566 901.447,528.555 787.357,399.304 
			890.047,260.315 		"/>
	</g>
	<g clip-path="url(#SVGID_2_)">
		<defs>
			<polygon id="SVGID_20_" points="618.719,316.939 637.047,390.166 696.25,422.852 843.566,421.611 911.193,406.197 
				782.268,332.729 676.908,297.877 626.912,288.209 			"/>
		</defs>
		<clipPath id="SVGID_21_">
			<use xlink:href="#SVGID_20_"  overflow="visible"/>
		</clipPath>
		
			<linearGradient id="SVGID_22_" gradientUnits="userSpaceOnUse" x1="0.1045" y1="399.9043" x2="1.2921" y2="399.9043" gradientTransform="matrix(251.5487 190.5034 190.5034 -251.5487 -75573.0703 100833.9453)">
			<stop  offset="0" style="stop-color:#9C5177"/>
			<stop  offset="0.2116" style="stop-color:#9C5177"/>
			<stop  offset="0.6561" style="stop-color:#5A0E47"/>
			<stop  offset="0.9153" style="stop-color:#5A0E4F"/>
			<stop  offset="1" style="stop-color:#5A0E4F"/>
		</linearGradient>
		<polygon clip-path="url(#SVGID_21_)" fill="url(#SVGID_22_)" points="725.322,113.904 963.525,337.284 804.59,597.158 
			566.387,373.777 		"/>
	</g>
	<g clip-path="url(#SVGID_2_)">
		<defs>
			<path id="SVGID_23_" d="M125.462,240.848c0,0-0.999,4.715-1.374,5.585c-0.375,0.867-5.869,3.55-5.869,3.55
				s-3.684-4.347-4.371-5.291c-0.687-0.941-3.185,0-3.185,0s-1.31,0-3.809,0.58c-2.497,0.58-5.182-0.58-5.182-0.58
				s-12.175,23.919-13.486,25.44c-1.312,1.521-2.997,2.827-2.997,2.827l-2.249,7.393l-1.311-0.436c0,0-2.622,1.307-6.368,1.521
				c-3.747,0.218-11.052-3.911-11.052-3.911c-3.184,3.043-11.051,1.954-11.051,1.954c-3.747,1.957-11.052,3.481-12.925,4.132
				c-1.874,0.653,0,2.83,0,2.83l-5.245,2.825L-3,301.053l4.832,160.425c0,0,701.5-2.605,701.5,0
				c0-2.374,111.311-39.625,111.311-39.625s-112.844-32.591-113.594-32.809c-0.748-0.217-39.488-24.977-39.488-24.977l-5.994-9.134
				l-7.891-11.108l-2.225,0.393l-5.494,3.903l2.623,6.957c0,0-9.742,4.494-10.49,4.35c-0.75-0.146-5.119,4.349-5.119,4.349
				l4.121,3.334c0,0,0.998,2.757,1.123,4.494c0.125,1.739,1.623,3.88,1.623,3.88l2.623,4.092l1.498,7.684l-5.494-6.668l-3.127-2.175
				v-2.933c0,0-1.744-4.315-2.367-6.488c-0.625-2.177-5.371-0.87-5.371-0.87s-2.621-7.393-2.871-8.119
				c-0.25-0.726,4.619-3.911,4.619-3.911l0.875-1.453c0,0,3.496-1.013,4.246-2.027c0.748-1.014,3.246-7.686,3.246-7.686l2.865-3.186
				h-3.365c0,0-1.498-1.306-1.998-2.175c-0.33-0.575,4.453-5.063,7.744-8.049l-0.125-0.069c0,0,0.375-5.869-2.811-8.266
				c-3.186-2.39-4.496-14.131-5.432-13.698c-0.436,0.204-1.674-0.482-3.064-1.169c-1.609-0.792-3.424-1.587-4.43-1.005
				c-1.871,1.088-9.365,7.829-9.365,7.829l-26.975-6.088l-1.311-2.678c0,0-5.057,0.067-6.555,1.373
				c-1.498,1.305-13.861-5.002-16.297-7.392c-2.436-2.395-0.938-14.787-0.938-14.787s-16.857-1.959-17.232,1.086
				c-0.375,3.044-7.867,7.175-7.867,7.175l-8.805,1.739l-10.49-5v-12.83c0,0-1.311,1.526-4.307,1.526
				c-2.998,0-5.434,10.651-5.434,10.651s-6.555,4.131-9.738,2.392c-3.186-1.739-3.936-4.566-3.936-4.566s-10.302,6.306-11.612,6.741
				c-1.311,0.436-2.997-3.696-2.997-3.696s-2.81,4.782-3.747,5.436c-0.936,0.653-19.48,21.963-20.791,24.352
				c-1.312,2.395-44.769,10.657-48.89,11.527c-4.121,0.869-20.418,8.044-20.418,8.044s-12.425,12.758-12.425,13.773
				c0,1.013-16.484,8.987-16.484,8.987l-2.497-0.871c0,0-6.244,10.873-7.868,11.742c-1.623,0.87-14.557,7.574-14.557,7.574
				c-2.249-1.16-8.534,0-8.534,0c-16.61,2.609-30.136-1.494-30.136-1.494l-9.211,2.036l-1.375-4.494c0,0-0.748-4.491-1.498-3.622
				c-0.749,0.87-4.995,0-4.995,0l-6.243-11.889c-2.432-2.196-4.241-7.439-5.391-11.797c-1.886-0.263-4.508-0.587-4.569-0.38
				c-0.093,0.329-4.308,1.957-4.308,1.957l0.937,0.762l0.187,1.741l2.154,2.391l-5.901,4.456l-12.175,5.002l-0.562-2.825
				l-9.74-5.001c0,0-4.121-5.872-5.433-5.546c-1.311,0.326-3.933-0.434-5.151-1.521c-1.217-1.086-11.614,4.892-11.614,4.892
				l9.647,4.242l0.75,3.585l3.184,1.195c1.78,4.46,11.708,16.311,11.708,16.311s-12.832-11.633-13.345-12.722
				c-0.514-1.086-6.043-1.739-6.043-1.739l-1.405-1.85c0,0-4.87-1.627-6.462-1.846c-1.592-0.218-7.773-4.458-7.773-4.458
				l-4.028,3.589l2.247,5.76c-14.798,0.109-32.967,10.003-32.967,10.003l3.465-7.175l6.744-9.896
				c10.583-3.15,24.445-20.547,24.445-20.547l4.307,2.503c5.62-14.571,15.37-28.775,15.37-28.775l-2.101-2.757
				c0,0,3.871-1.591,4.183-3.261c0.167-0.887-0.888-5.103-1.929-8.88c-0.693-1.066-1.193-1.882-1.193-1.882
				c-4.776-0.327-20.979-7.938-20.979-7.938l1.124-6.957c-1.03-0.978-2.248-8.696-2.248-8.696s0.937-6.02,0.687-6.959
				c-0.25-0.942-1.312-1.016-1.873-1.016c-0.562,0-9.366-7.03-9.366-7.03s-3.434-16.886-3.621-18.7
				c-0.187-1.811-4.496-4.203-6.057-4.132c-1.561,0.073-12.426-4.42-13.487-6.739c-0.793-1.733-1.341-1.564-1.775-1.396
				c-0.148,0.053-0.284,0.108-0.41,0.089c-0.499-0.069-4.433,0-4.433,0c-2.123,1.597-5.433,0.222-5.433,0.222
				s-1.936,12.319-2.123,12.828c-0.187,0.508-5.307-9.132-5.307-9.132l-4.183,1.448l-0.937-5.507c0,0-0.999,0.432-1.81,0.432
				c-0.812,0-4.434-1.375-4.434-1.375L125.462,240.848z"/>
		</defs>
		<clipPath id="SVGID_24_">
			<use xlink:href="#SVGID_23_"  overflow="visible"/>
		</clipPath>
		
			<linearGradient id="SVGID_25_" gradientUnits="userSpaceOnUse" x1="0.0171" y1="400.2148" x2="1.3278" y2="400.2148" gradientTransform="matrix(-173.966 270.3675 270.3675 173.966 -107624.9844 -69547.4453)">
			<stop  offset="0" style="stop-color:#682159"/>
			<stop  offset="0.1376" style="stop-color:#682159"/>
			<stop  offset="0.6561" style="stop-color:#5A0E47"/>
			<stop  offset="0.9153" style="stop-color:#5A0E4F"/>
			<stop  offset="1" style="stop-color:#5A0E4F"/>
		</linearGradient>
		<polygon clip-path="url(#SVGID_24_)" fill="url(#SVGID_25_)" points="900.861,295.558 576.654,919.475 -84.386,392.784 
			239.819,-231.133 		"/>
	</g>
	<g clip-path="url(#SVGID_2_)">
		<defs>
			<rect id="SVGID_26_" y="35.136" width="960" height="495.408"/>
		</defs>
		<clipPath id="SVGID_27_">
			<use xlink:href="#SVGID_26_"  overflow="visible"/>
		</clipPath>
		<path clip-path="url(#SVGID_27_)" fill="#A14765" d="M135.015,239.907c0,0,5.245,8.263,4.87,11.959c0,0,2.81-0.652,3.84,0
			c1.03,0.653,0,3.586,0,3.586l4.683,2.721l4.683-1.087c0,0-4.402-2.936-4.402-3.589c0-0.651,0.937-5.544,0.656-6.197
			c-0.281-0.649-1.592-1.737-6.65-0.869L135.015,239.907z"/>
		<path clip-path="url(#SVGID_27_)" fill="#A14765" d="M158.523,250.78l8.242,6.849h4.027c0,0,1.03,1.196,1.499,3.48
			c0.468,2.281,0.843,3.915,0.843,3.915l-2.342,2.606l0.937,5.979l2.248,3.373c0,0,4.308,0.978,5.057,3.694
			c0.749,2.719,2.061,12.177,2.061,12.177l1.405,0.869c0,0,6.462,17.287,5.994,17.287c-0.469,0-7.868-0.435-10.396,1.631
			l-0.281-3.805h-12.082l-0.188,1.304l-7.024,5.328c0,0-0.375-2.065-1.405-2.392c-1.03-0.327-10.49,2.392-10.49,2.392
			s1.78-2.827,1.686-4.784l9.834-5l-1.311-2.937c0,0,2.623-2.501,3.185-2.283l-0.562-0.218c0,0,1.311-13.48-1.499-21.635
			l1.311-2.391l-0.187-2.611l2.903-3.152L158.523,250.78z"/>
		<path clip-path="url(#SVGID_27_)" fill="#A14765" d="M131.456,363.199c0,0,7.867-5.22,18.857-6.091l12.362-14.063
			c0,0,6.994,1.161,13.987-2.173l-1.249-3.336l6.743-1.157l1.374,2.319v-5.8c0,0-14.486-7.826-13.362-8.843
			c1.124-1.015,1.998-2.319,1.998-2.319l-1.748-2.03l0.374-1.013c0,0-4.37,0.434-7.617,0l-0.749,2.898l-10.365,6.233
			c0,0-13.112,18.12-15.985,20.295L131.456,363.199z"/>
		<path clip-path="url(#SVGID_27_)" fill="#A14765" d="M238.882,393.963l8.617,0.763l7.867-7.72l6.462,6.197
			c0,0,5.526-2.283,6.556-1.523c1.031,0.764,0-2.497,0-2.497l0.937-5.438l-2.903-3.915c0,0-3.466,4.46-4.215,3.807
			s-8.523-6.415-8.523-6.415L238.882,393.963z"/>
		<path clip-path="url(#SVGID_27_)" fill="#A14765" d="M346.308,399.726c-0.494,0.311,13.861-16.96,13.861-16.96l1.874-1.957v-5.437
			l4.308-1.739c0,0,8.242-7.175,8.616-8.478c0.375-1.308,2.997-3.697,2.997-3.697l-2.06-5.871l8.991-3.48l2.997-5.22l12.363-1.302
			l23.789-5.436l-7.867,6.088l3.559,3.477c0,0,2.81-0.868,4.308,0.436c1.499,1.306-1.311,5.438-1.311,5.438s5.994,6.741,8.429,7.175
			c2.436,0.436,18.732,8.48,18.732,8.48l-4.121,13.261l-2.248-1.52c0,0-15.734,3.477-15.547,5.218
			c0.187,1.739-29.034,20.44-34.841,22.614c0,0,22.291-13.698,22.853-16.09c0.562-2.393,1.686-7.61,1.686-7.61l3.371-1.739
			l1.124-8.698l-7.118,4.351l-1.686,6.74l-18.731,4.347l-1.499-5.216l-5.619,6.737C387.518,393.637,350.804,396.899,346.308,399.726
			"/>
		<path clip-path="url(#SVGID_27_)" fill="#A14765" d="M472.185,312.968c0.187-0.652,0-3.48,0-3.48l-1.873,1.741l-1.873-1.741
			l-2.061,1.741v3.479l-17.42,18.701l7.305-1.305l0.375,1.305c0,0,19.106,1.954,19.106,1.086c0-0.871,0.187-4.352,0.937-4.352
			c0.749,0,6.181,0.439,6.181,0.439l-6.931,9.565l-3.184,1.088l0.375,2.982h2.06l0.749,2.671l5.62,22.396
			c0,0,3.559-2.393,3.746-1.088c0.186,1.306-2.061,4.786-2.061,4.786l19.105-8.265c0,0-1.498-2.828,0-3.696
			c1.498-0.871,6.744-5.218,6.744-5.218s-2.623,4.566,0,3.477c2.623-1.085,7.867-4.348,7.867-4.348v-6.739
			c0-0.652,3.184-1.957,3.184-1.957s0.563,4.567,1.125,4.348c0.561-0.218,12.736-3.261,13.299-5.218
			c0.561-1.957,10.676-26.744,11.426-27.18c0.75-0.435,0-5.654,0-5.654l3.186-3.046l-5.434-4.784l-0.375-7.608l-2.434-1.088
			l-4.121,5.871c0,0-10.678,1.741-12.551,4.133c-1.873,2.391-4.309,2.391-4.309,2.391l-1.311,5.651l-6.369,8.918
			c0,0-11.426-0.653-14.049,0.435c-2.621,1.087-12.363-4.782-12.363-4.782h-2.809L472.185,312.968z"/>
		<path clip-path="url(#SVGID_27_)" fill="#A14765" d="M550.482,325.145c-0.188-0.87,8.055-10.002,8.055-10.002
			s9.178-3.914,8.615-1.739c-0.561,2.175-2.996,5.54-2.996,5.54l5.059,2.503l-6.369,1.524l-2.248-1.955L550.482,325.145z"/>
		<path clip-path="url(#SVGID_27_)" fill="#A14765" d="M564.531,337.755c0.188-1.086,5.994-11.089,5.994-11.089
			s-9.744,3.046-10.68,4.348c-0.936,1.308-5.055,4.566-5.055,4.566l-2.248,0.218c0,0-1.129,2.828-2.064,4.352
			c-0.932,1.521-4.68,1.086-4.68,1.086l-7.305,13.916l-5.244,4.784v2.393l-8.055,13.152c0,0,5.619-4.021,7.867-5.111
			c2.248-1.084,4.309-4.129,4.309-4.129l10.488-1.957v3.045l2.619,2.61l-1.307-3.263l3.934-0.871l3.184-6.086l4.309-2.393
			l-0.752,6.09l3.561-3.045l8.242-18.7v-2.61L564.531,337.755z"/>
		<polygon clip-path="url(#SVGID_27_)" fill="#A14765" points="583.512,367.11 586.885,368.126 581.264,376.533 582.514,378.128 
			580.516,380.592 578.643,379.723 578.643,377.692 576.27,375.484 582.139,369.285 		"/>
		<path clip-path="url(#SVGID_27_)" fill="#A14765" d="M629.217,339.569c0.5,0.869,1.998,2.175,1.998,2.175h3.365l-2.865,3.186
			c0,0-2.498,6.672-3.246,7.686c-0.75,1.013-4.246,2.027-4.246,2.027l-0.875,1.453c0,0-4.869,3.186-4.619,3.911
			c0.25,0.727,2.871,8.119,2.871,8.119s4.746-1.307,5.369,0.87c0.625,2.173,2.369,6.484,2.369,6.484v2.937l3.127,2.175l5.494,6.668
			l-1.498-7.684l-2.623-4.096c0,0-1.498-2.137-1.623-3.876c-0.125-1.737-1.125-4.494-1.125-4.494l-4.121-3.334
			c0,0,4.371-4.495,5.121-4.349c0.75,0.145,10.49-4.35,10.49-4.35l-2.623-6.957l5.494-3.903l2.225-0.396l-0.914-1.282l-2.621-6.959
			l-7.18-4.06C633.67,334.506,628.887,338.994,629.217,339.569"/>
		<path clip-path="url(#SVGID_27_)" fill="#A14765" d="M217.934,308.184c-0.312,1.668-4.183,3.263-4.183,3.263l2.1,2.753
			c0,0-9.749,14.206-15.369,28.775l-4.308-2.501c0,0-13.861,17.396-24.445,20.549l-6.743,9.894l-3.466,7.175
			c0,0,18.17-9.892,32.968-9.999l-2.248-5.764l4.028-3.589c0,0,6.181,4.238,7.773,4.46c1.593,0.213,6.463,1.846,6.463,1.846
			l1.405,1.848c0,0,5.529,0.653,6.042,1.739c0.514,1.089,13.345,12.722,13.345,12.722s-9.928-11.851-11.707-16.309l-3.185-1.197
			l-0.749-3.585l-9.647-4.24c0,0,10.396-5.981,11.614-4.894c1.217,1.086,3.84,1.848,5.151,1.521s5.432,5.546,5.432,5.546
			l9.741,5.003l0.562,2.823l12.175-5l5.901-4.458l-2.154-2.393l-0.188-1.739l-0.936-0.762c0,0,4.214-1.63,4.308-1.957
			c0.06-0.207,2.682,0.117,4.568,0.38c-0.976-3.7-1.477-6.757-1.477-6.757l-3.497-2.175c-1.374-2.175-4.371-6.813-4.371-6.813
			c0.874-4.929-2.497-6.086-2.497-6.086s-4.621,1.739-9.366-3.48c-4.745-5.22-10.49-9.714-10.49-9.714l-0.749-2.319
			c0,0-8.742-7.683-10.115-8.696c-0.851-0.629-2.49-3.021-3.616-4.752C217.045,303.083,218.1,307.297,217.934,308.184"/>
		<polygon clip-path="url(#SVGID_27_)" fill="#A14765" points="649.822,360.878 650.947,362.617 653.818,373.852 646.201,369.867 
			648.699,364.647 		"/>
	</g>
	<g clip-path="url(#SVGID_2_)">
		<defs>
			<path id="SVGID_28_" d="M201.824,425.984C101.752,410.976,38.838,400.378,0,393.289v137.255h960V390.081
				C756.809,431.681,451.153,463.381,201.824,425.984"/>
		</defs>
		<clipPath id="SVGID_29_">
			<use xlink:href="#SVGID_28_"  overflow="visible"/>
		</clipPath>
		
			<linearGradient id="SVGID_30_" gradientUnits="userSpaceOnUse" x1="-0.0977" y1="399.9375" x2="0.9548" y2="399.9375" gradientTransform="matrix(602.0782 -195.7286 -195.7286 -602.0782 78324.0859 241394.9219)">
			<stop  offset="0" style="stop-color:#B58D97"/>
			<stop  offset="0.1376" style="stop-color:#B58D97"/>
			<stop  offset="0.7884" style="stop-color:#BA6D9C"/>
			<stop  offset="1" style="stop-color:#BA6D9C"/>
		</linearGradient>
		<polygon clip-path="url(#SVGID_29_)" fill="url(#SVGID_30_)" points="-33.352,403.507 868.242,40.572 993.352,517.118 
			91.758,880.054 		"/>
	</g>
	<g clip-path="url(#SVGID_2_)">
		<defs>
			<rect id="SVGID_31_" y="35.136" width="960" height="495.408"/>
		</defs>
		<clipPath id="SVGID_32_">
			<use xlink:href="#SVGID_31_"  overflow="visible"/>
		</clipPath>
		<path clip-path="url(#SVGID_32_)" fill="#27062B" d="M886.934,135.611c0.061,0.153,0.119,0.314,0.178,0.472
			C887.053,135.926,886.994,135.764,886.934,135.611"/>
		<path clip-path="url(#SVGID_32_)" fill="#27062B" d="M882.74,128.327c0.063,0.072,0.125,0.14,0.188,0.216
			C882.865,128.467,882.803,128.399,882.74,128.327"/>
		<path clip-path="url(#SVGID_32_)" fill="#27062B" d="M882.068,127.605c0.074,0.074,0.148,0.149,0.223,0.227
			C882.217,127.754,882.143,127.679,882.068,127.605"/>
		<path clip-path="url(#SVGID_32_)" fill="#27062B" d="M868.301,84.928c-0.137,0.009-0.273,0.027-0.41,0.028
			c0.068-0.001,0.135-0.002,0.203-0.004C868.164,84.95,868.23,84.934,868.301,84.928"/>
	</g>
	<g clip-path="url(#SVGID_2_)">
		<defs>
			<path id="SVGID_33_" d="M803.957,476.172l47.779-0.372l19.764-0.154v37.842h-68.021L803.957,476.172z M890.258,464.659
				l-0.648,0.004L890.258,464.659z M804.133,462.491l-0.016,1.28L804.133,462.491z M809.002,458.645l-3.039,3.188L809.002,458.645z
				 M839.965,440.207l0.189-0.196l11.664,12.406l5.506,5.854l-5.506,0.041l-29.314,0.228L839.965,440.207z M853.367,426.143
				l6.994-7.343l11.557-12.134l0.002-0.16l0.08,0.01l-0.133,10.317l-0.367,28.582L853.367,426.143z M804.594,426.594l0.309-24.039
				l16.072,17.082l-5.063,5.316l-11.451,12.017L804.594,426.594z M805.072,389.437l-0.109,8.35L805.072,389.437z M834.199,405.769
				l-4.299-4.571l-11.322-12.036l31.887-0.249l0.297-0.313l0.436-0.005l-16.844,17.338L834.199,405.769z M877.068,377.865
				l-10.111,0.079L877.068,377.865z M891.373,377.756l-0.646,0.004L891.373,377.756z M805.266,374.308l0.031-2.531L805.266,374.308
				l-0.033,2.572L805.266,374.308z M807.088,374.931l3.039-3.189L807.088,374.931l-0.928,0.974L807.088,374.931z M841.082,353.313
				l0.189-0.2l10.547,11.214l6.621,7.038l-6.621,0.051l-28.195,0.22L841.082,353.313z M854.484,339.235l18.551-19.471l0.08-0.083
				l-0.498,38.83L854.484,339.235z M806.018,315.651l16.072,17.078l-16.514,17.341L806.018,315.651z M835.314,318.866
				l-15.621-16.601l31.672-0.243L835.314,318.866z M873.348,301.543l0.014-0.949l3.434,1.173l-3.498,3.673L873.348,301.543h-0.08
				H873.348z M806.414,284.887l0.486-37.919l0.23-17.897l0.398-31.026l0.066-5.199l0.088-6.829c0.004-0.207,0.023-0.408,0.059-0.602
				c0.35-1.246,1.361-2.167,2.723-2.177c0.002-0.096,0.002-0.204,0.004-0.301c0.027-0.001,0.053-0.008,0.08-0.008
				c0.047-3.675,0.102-7.839,0.162-12.623c0.16-12.491,1.439-21.529,3.207-28.075c4.588-16.648,12.361-16.876,12.672-16.878
				l25.146-0.194l14.002-0.109l10.686-0.083c0.08-0.001,0.668,0.004,1.57,0.312h0.002l0.012,0.006
				c0.135,0.044,0.279,0.099,0.428,0.161c0.045,0.017,0.09,0.039,0.137,0.059c0.109,0.047,0.225,0.099,0.342,0.157
				c0.057,0.027,0.117,0.057,0.176,0.088c0.115,0.058,0.23,0.121,0.35,0.188c0.063,0.035,0.123,0.071,0.186,0.106
				c0.137,0.082,0.279,0.172,0.422,0.267c0.045,0.029,0.088,0.054,0.135,0.087c0.188,0.128,0.381,0.27,0.576,0.422
				c0.049,0.037,0.098,0.08,0.146,0.119c0.148,0.122,0.301,0.248,0.453,0.384c0.07,0.062,0.141,0.127,0.213,0.193
				c0.137,0.127,0.275,0.261,0.416,0.402c0.072,0.074,0.146,0.148,0.221,0.226c0.148,0.156,0.299,0.324,0.449,0.495
				c0.063,0.073,0.127,0.141,0.189,0.215c0.211,0.253,0.426,0.517,0.639,0.801c0.031,0.043,0.063,0.092,0.094,0.135
				c0.182,0.245,0.363,0.503,0.545,0.775c0.07,0.105,0.141,0.22,0.211,0.33c0.146,0.227,0.289,0.461,0.434,0.705
				c0.076,0.127,0.152,0.258,0.229,0.393c0.145,0.256,0.291,0.525,0.434,0.8c0.068,0.131,0.137,0.257,0.203,0.39
				c0.195,0.388,0.389,0.79,0.578,1.216c0.014,0.03,0.027,0.057,0.041,0.088c0.203,0.456,0.402,0.939,0.598,1.438
				c0.061,0.152,0.119,0.315,0.178,0.473c0.137,0.36,0.271,0.731,0.404,1.115c0.068,0.197,0.135,0.398,0.201,0.601
				c0.125,0.38,0.248,0.774,0.371,1.177c0.061,0.206,0.123,0.41,0.184,0.624c0.139,0.482,0.273,0.987,0.404,1.503
				c0.037,0.145,0.078,0.281,0.113,0.428c0.166,0.666,0.324,1.361,0.477,2.082c0.039,0.188,0.076,0.39,0.115,0.583
				c0.111,0.546,0.219,1.103,0.322,1.682c0.049,0.271,0.096,0.552,0.143,0.832c0.09,0.536,0.178,1.084,0.26,1.646
				c0.043,0.298,0.088,0.597,0.129,0.903c0.086,0.621,0.166,1.265,0.242,1.918c0.029,0.256,0.063,0.503,0.09,0.764
				c0.1,0.92,0.193,1.867,0.275,2.85c0.014,0.181,0.025,0.372,0.039,0.554c0.064,0.815,0.123,1.648,0.174,2.508
				c0.021,0.352,0.037,0.717,0.057,1.077c0.037,0.724,0.068,1.464,0.096,2.221c0.016,0.401,0.029,0.806,0.041,1.217
				c0.021,0.791,0.037,1.602,0.047,2.426c0.006,0.382,0.014,0.754,0.016,1.141c0.01,1.216,0.008,2.457-0.008,3.745
				c-0.063,4.731-0.111,8.85,0.104,12.491l0.711,0.244c0.063,0.021,0.121,0.054,0.182,0.082c0.049,0.022,0.098,0.04,0.145,0.066
				c0.113,0.06,0.223,0.133,0.328,0.213c0.021,0.017,0.045,0.029,0.066,0.047c0.123,0.101,0.238,0.216,0.344,0.343
				c0.031,0.036,0.057,0.076,0.084,0.114c0.072,0.095,0.143,0.193,0.205,0.299c0.029,0.053,0.057,0.108,0.084,0.164
				c0.053,0.1,0.1,0.206,0.141,0.313c0.021,0.061,0.045,0.123,0.064,0.184c0.037,0.119,0.064,0.24,0.09,0.365
				c0.012,0.058,0.025,0.113,0.035,0.172c0.027,0.186,0.043,0.375,0.039,0.569l-0.086,6.83l-0.068,5.2l-0.396,31.025l-0.232,17.897
				l-0.566,44.255l-40.672,0.314l-45.49,0.354L806.414,284.887z M895.775,35.136l-0.369,28.786l-0.232,17.881
				c-0.004,0.354-0.025,0.704-0.059,1.05c-0.012,0.114-0.035,0.226-0.049,0.339c-0.029,0.228-0.059,0.456-0.102,0.679
				c-0.023,0.133-0.059,0.263-0.088,0.393c-0.031,0.132-0.063,0.262-0.094,0.39c-0.031,0.098-0.063,0.195-0.094,0.292
				c-0.059,0.181-0.115,0.36-0.184,0.538c-0.049,0.134-0.105,0.264-0.162,0.394c-0.07,0.169-0.143,0.336-0.221,0.5
				c-0.063,0.127-0.129,0.252-0.195,0.377c-0.084,0.156-0.17,0.31-0.26,0.459c-0.072,0.121-0.146,0.24-0.225,0.356
				c-0.096,0.145-0.191,0.287-0.293,0.423c-0.082,0.111-0.166,0.222-0.252,0.331c-0.107,0.133-0.217,0.26-0.328,0.386
				c-0.053,0.061-0.107,0.118-0.162,0.176c-0.033,0.037-0.066,0.075-0.102,0.11c-0.154,0.161-0.316,0.313-0.484,0.46
				c-0.074,0.067-0.148,0.14-0.227,0.205c-0.246,0.204-0.5,0.396-0.764,0.569c0,0.001,0,0.001-0.002,0.002
				c-0.012,0.007-0.025,0.013-0.039,0.022c-0.236,0.152-0.479,0.291-0.727,0.416c-0.09,0.045-0.182,0.08-0.271,0.121
				c-0.178,0.082-0.355,0.161-0.537,0.228c-0.033,0.012-0.064,0.019-0.096,0.03c-0.061,0.021-0.121,0.039-0.182,0.057
				c-0.219,0.07-0.439,0.131-0.666,0.179c-0.107,0.024-0.215,0.044-0.322,0.063c-0.227,0.038-0.457,0.063-0.689,0.078
				c-0.076,0.004-0.152,0.013-0.229,0.015c-0.061,0.002-0.119,0.013-0.182,0.013l-35.072,0.272l-34.688,0.268
				c-0.355,0.002-0.705-0.031-1.049-0.08c-0.096-0.015-0.191-0.033-0.287-0.051c-0.271-0.053-0.541-0.119-0.803-0.202
				c-0.051-0.016-0.105-0.022-0.156-0.039l-17.068-5.835c0.096,0.002,0.186,0.021,0.279,0.021l14.637,5.004
				c-0.211-0.16-0.398-0.36-0.596-0.542l0.68,0.232c-1.551-1.173-2.736-2.962-3.326-5.092c-0.283-1.017-0.438-2.108-0.424-3.248
				l0.23-17.882l0.373-29.144h-28.77l-4.635,360.909l-0.451,35.028l-0.576,45.011l-5.941,0.046l-0.004,0.311h-0.08l-0.561,43.796
				l-9.248,0.071l-0.004,0.311h-0.08l-0.127,9.926H931.33l0.15-11.569l-9.273-3.172l0.525-40.862l-6.006-2.054l5.623-437.751
				H895.775z"/>
		</defs>
		<clipPath id="SVGID_34_">
			<use xlink:href="#SVGID_33_"  overflow="visible"/>
		</clipPath>
		
			<linearGradient id="SVGID_35_" gradientUnits="userSpaceOnUse" x1="0.04" y1="400.0762" x2="1.2803" y2="400.0762" gradientTransform="matrix(-9.0997 487.3382 487.3382 9.0997 -194120.3594 -3702.8784)">
			<stop  offset="0" style="stop-color:#C91127"/>
			<stop  offset="0.3016" style="stop-color:#C91127"/>
			<stop  offset="0.7884" style="stop-color:#3E0042"/>
			<stop  offset="1" style="stop-color:#3E0042"/>
		</linearGradient>
		<polygon clip-path="url(#SVGID_34_)" fill="url(#SVGID_35_)" points="938.947,35.31 931.42,534.526 751.678,530.371 
			759.205,31.153 		"/>
	</g>
	<g clip-path="url(#SVGID_2_)">
		<defs>
			<rect id="SVGID_36_" y="35.136" width="960" height="495.408"/>
		</defs>
		<clipPath id="SVGID_37_">
			<use xlink:href="#SVGID_36_"  overflow="visible"/>
		</clipPath>
		<path clip-path="url(#SVGID_37_)" fill="#27062B" d="M887.516,137.2c0.068,0.196,0.135,0.397,0.201,0.6
			C887.65,137.597,887.584,137.396,887.516,137.2"/>
		<path clip-path="url(#SVGID_37_)" fill="#27062B" d="M873.898,81.826c0.086-0.107,0.17-0.217,0.252-0.329
			C874.068,81.609,873.984,81.719,873.898,81.826"/>
		<path clip-path="url(#SVGID_37_)" fill="#27062B" d="M874.443,81.073c0.076-0.118,0.152-0.235,0.225-0.355
			C874.596,80.838,874.52,80.956,874.443,81.073"/>
		<path clip-path="url(#SVGID_37_)" fill="#27062B" d="M874.926,80.256c0.068-0.125,0.133-0.25,0.197-0.378
			C875.059,80.006,874.994,80.132,874.926,80.256"/>
		<path clip-path="url(#SVGID_37_)" fill="#27062B" d="M872.596,83.164c0.078-0.064,0.15-0.135,0.225-0.204
			C872.746,83.028,872.674,83.099,872.596,83.164"/>
		<path clip-path="url(#SVGID_37_)" fill="#27062B" d="M868.99,84.85c0.107-0.018,0.215-0.038,0.322-0.06
			C869.205,84.812,869.098,84.832,868.99,84.85"/>
		<path clip-path="url(#SVGID_37_)" fill="#27062B" d="M870.793,84.295c0.09-0.042,0.182-0.076,0.27-0.121
			C870.975,84.219,870.883,84.253,870.793,84.295"/>
		<path clip-path="url(#SVGID_37_)" fill="#27062B" d="M875.959,77.458c0.029-0.132,0.064-0.26,0.09-0.394
			C876.023,77.198,875.988,77.326,875.959,77.458"/>
		<path clip-path="url(#SVGID_37_)" fill="#27062B" d="M871.832,83.733c-0.012,0.006-0.023,0.013-0.033,0.019
			c0.01-0.006,0.021-0.011,0.031-0.018C871.83,83.734,871.83,83.733,871.832,83.733"/>
		<path clip-path="url(#SVGID_37_)" fill="#27062B" d="M870.254,84.523c-0.09,0.031-0.182,0.056-0.273,0.086
			c0.063-0.022,0.131-0.031,0.191-0.053C870.201,84.547,870.225,84.532,870.254,84.523"/>
		<path clip-path="url(#SVGID_37_)" fill="#27062B" d="M873.57,82.214c-0.088,0.097-0.174,0.192-0.264,0.285
			c0.037-0.038,0.076-0.07,0.111-0.106C873.471,82.336,873.518,82.272,873.57,82.214"/>
		<path clip-path="url(#SVGID_37_)" fill="#27062B" d="M875.689,78.45c0.043-0.135,0.088-0.267,0.127-0.403
			C875.777,78.183,875.732,78.315,875.689,78.45"/>
		<path clip-path="url(#SVGID_37_)" fill="#27062B" d="M876.148,76.387c0.016-0.114,0.037-0.226,0.047-0.341
			C876.186,76.162,876.164,76.273,876.148,76.387"/>
		<path clip-path="url(#SVGID_37_)" fill="#27062B" d="M875.342,79.382c0.057-0.131,0.113-0.261,0.164-0.396
			C875.455,79.121,875.398,79.25,875.342,79.382"/>
		<path clip-path="url(#SVGID_37_)" fill="#27062B" d="M884.852,131.286c0.076,0.129,0.152,0.26,0.229,0.394
			C885.004,131.544,884.928,131.415,884.852,131.286"/>
		<path clip-path="url(#SVGID_37_)" fill="#27062B" d="M886.295,134.083c0.014,0.031,0.027,0.059,0.041,0.09
			C886.322,134.142,886.309,134.115,886.295,134.083"/>
		<path clip-path="url(#SVGID_37_)" fill="#27062B" d="M892.771,182.776c0.021,0.017,0.045,0.028,0.066,0.046
			C892.816,182.804,892.793,182.792,892.771,182.776"/>
		<path clip-path="url(#SVGID_37_)" fill="#27062B" d="M891.596,89.66c-0.246,0.205-0.5,0.396-0.764,0.569
			C891.096,90.057,891.35,89.865,891.596,89.66"/>
		<path clip-path="url(#SVGID_37_)" fill="#27062B" d="M892.307,88.996c-0.154,0.161-0.316,0.313-0.482,0.46
			C891.99,89.309,892.152,89.156,892.307,88.996"/>
		<path clip-path="url(#SVGID_37_)" fill="#27062B" d="M891.295,164.795c0.004,0.379,0.012,0.752,0.016,1.14
			C891.307,165.547,891.299,165.175,891.295,164.795"/>
		<path clip-path="url(#SVGID_37_)" fill="#27062B" d="M892.297,182.497c0.049,0.021,0.1,0.041,0.145,0.066
			C892.395,182.537,892.346,182.518,892.297,182.497"/>
		<path clip-path="url(#SVGID_37_)" fill="#27062B" d="M893.182,183.164c0.029,0.037,0.057,0.078,0.084,0.115
			C893.238,183.242,893.211,183.201,893.182,183.164"/>
		<path clip-path="url(#SVGID_37_)" fill="#27062B" d="M890.791,90.254c-0.236,0.152-0.479,0.292-0.729,0.417
			C890.313,90.546,890.555,90.406,890.791,90.254"/>
		<path clip-path="url(#SVGID_37_)" fill="#27062B" d="M893.85,184.604c0.01,0.059,0.025,0.115,0.035,0.174
			C893.875,184.718,893.859,184.662,893.85,184.604"/>
		<path clip-path="url(#SVGID_37_)" fill="#27062B" d="M893.928,86.752c-0.084,0.156-0.168,0.312-0.258,0.461
			C893.76,87.063,893.844,86.908,893.928,86.752"/>
		<path clip-path="url(#SVGID_37_)" fill="#27062B" d="M889.793,90.791c-0.178,0.08-0.355,0.161-0.539,0.227
			C889.438,90.952,889.615,90.871,889.793,90.791"/>
		<path clip-path="url(#SVGID_37_)" fill="#27062B" d="M893.693,184.056c0.023,0.062,0.045,0.122,0.066,0.185
			C893.738,184.177,893.717,184.117,893.693,184.056"/>
		<path clip-path="url(#SVGID_37_)" fill="#27062B" d="M893.469,183.579c0.031,0.052,0.059,0.108,0.086,0.164
			C893.527,183.687,893.5,183.632,893.469,183.579"/>
		<path clip-path="url(#SVGID_37_)" fill="#27062B" d="M893.443,87.57c-0.096,0.144-0.191,0.285-0.293,0.422
			C893.252,87.855,893.348,87.714,893.443,87.57"/>
		<path clip-path="url(#SVGID_37_)" fill="#27062B" d="M892.898,88.323c-0.107,0.133-0.215,0.26-0.328,0.385
			C892.684,88.583,892.791,88.456,892.898,88.323"/>
		<path clip-path="url(#SVGID_37_)" fill="#27062B" d="M894.344,85.877c-0.07,0.168-0.143,0.336-0.223,0.498
			C894.201,86.213,894.273,86.045,894.344,85.877"/>
		<path clip-path="url(#SVGID_37_)" fill="#27062B" d="M889.703,145.878c0.049,0.273,0.096,0.553,0.143,0.833
			C889.799,146.431,889.752,146.151,889.703,145.878"/>
		<path clip-path="url(#SVGID_37_)" fill="#27062B" d="M878.998,125.349c0.057,0.029,0.117,0.058,0.176,0.088
			C879.115,125.407,879.055,125.378,878.998,125.349"/>
		<path clip-path="url(#SVGID_37_)" fill="#27062B" d="M890.104,148.356c0.045,0.298,0.088,0.597,0.131,0.903
			C890.191,148.953,890.148,148.655,890.104,148.356"/>
		<path clip-path="url(#SVGID_37_)" fill="#27062B" d="M889.266,143.613c0.039,0.189,0.076,0.391,0.115,0.584
			C889.342,144.003,889.305,143.802,889.266,143.613"/>
		<path clip-path="url(#SVGID_37_)" fill="#27062B" d="M880.129,125.997c0.045,0.03,0.09,0.056,0.135,0.088
			C880.219,126.053,880.174,126.027,880.129,125.997"/>
		<path clip-path="url(#SVGID_37_)" fill="#27062B" d="M878.52,125.134c0.043,0.019,0.09,0.04,0.135,0.06
			C878.609,125.174,878.563,125.153,878.52,125.134"/>
		<path clip-path="url(#SVGID_37_)" fill="#27062B" d="M879.521,125.625c0.063,0.035,0.123,0.069,0.188,0.106
			C879.645,125.694,879.584,125.66,879.521,125.625"/>
		<path clip-path="url(#SVGID_37_)" fill="#27062B" d="M891.207,161.15c0.014,0.402,0.027,0.807,0.039,1.218
			C891.234,161.958,891.221,161.553,891.207,161.15"/>
		<path clip-path="url(#SVGID_37_)" fill="#27062B" d="M887.99,91.347c-0.229,0.039-0.457,0.063-0.689,0.078
			C887.533,91.41,887.762,91.385,887.99,91.347"/>
		<path clip-path="url(#SVGID_37_)" fill="#27062B" d="M891.055,157.852c0.02,0.354,0.037,0.717,0.055,1.078
			C891.092,158.569,891.074,158.205,891.055,157.852"/>
		<path clip-path="url(#SVGID_37_)" fill="#27062B" d="M888.979,91.105c-0.219,0.071-0.439,0.131-0.666,0.179
			C888.539,91.236,888.76,91.176,888.979,91.105"/>
		<polyline clip-path="url(#SVGID_37_)" fill="#27062B" points="878.076,124.967 878.078,124.969 878.076,124.967 		"/>
		<path clip-path="url(#SVGID_37_)" fill="#27062B" d="M890.475,151.177c0.031,0.257,0.063,0.504,0.092,0.764
			C890.537,151.681,890.506,151.434,890.475,151.177"/>
		<path clip-path="url(#SVGID_37_)" fill="#27062B" d="M890.84,154.791c0.016,0.18,0.027,0.373,0.041,0.554
			C890.867,155.164,890.855,154.971,890.84,154.791"/>
		<path clip-path="url(#SVGID_37_)" fill="#27062B" d="M880.842,126.506c0.047,0.038,0.098,0.081,0.145,0.12
			C880.939,126.587,880.889,126.544,880.842,126.506"/>
		<path clip-path="url(#SVGID_37_)" fill="#27062B" d="M888.086,138.978c0.063,0.207,0.125,0.41,0.186,0.622
			C888.211,139.387,888.148,139.185,888.086,138.978"/>
		<path clip-path="url(#SVGID_37_)" fill="#27062B" d="M881.441,127.009c0.07,0.063,0.141,0.129,0.211,0.193
			C881.582,127.138,881.512,127.072,881.441,127.009"/>
		<path clip-path="url(#SVGID_37_)" fill="#27062B" d="M894.689,84.945c-0.059,0.181-0.115,0.362-0.184,0.537
			C894.574,85.307,894.631,85.126,894.689,84.945"/>
		<path clip-path="url(#SVGID_37_)" fill="#27062B" d="M895.258,81.493c-0.004,0.355-0.025,0.705-0.061,1.05
			C895.232,82.198,895.254,81.848,895.258,81.493"/>
		<path clip-path="url(#SVGID_37_)" fill="#27062B" d="M894.959,83.954c-0.045,0.198-0.088,0.396-0.143,0.588
			C894.871,84.35,894.914,84.152,894.959,83.954"/>
		<path clip-path="url(#SVGID_37_)" fill="#27062B" d="M895.15,82.883c-0.031,0.228-0.059,0.456-0.102,0.679
			C895.092,83.339,895.119,83.111,895.15,82.883"/>
		<path clip-path="url(#SVGID_37_)" fill="#27062B" d="M883.566,129.342c0.031,0.043,0.064,0.092,0.096,0.136
			C883.631,129.435,883.598,129.386,883.566,129.342"/>
		<path clip-path="url(#SVGID_37_)" fill="#27062B" d="M885.514,132.479c0.066,0.129,0.135,0.255,0.203,0.39
			C885.648,132.735,885.58,132.609,885.514,132.479"/>
		<path clip-path="url(#SVGID_37_)" fill="#27062B" d="M884.205,130.253c0.072,0.106,0.143,0.218,0.213,0.329
			C884.348,130.471,884.277,130.359,884.205,130.253"/>
		<path clip-path="url(#SVGID_37_)" fill="#27062B" d="M888.676,141.104c0.037,0.145,0.076,0.281,0.113,0.427
			C888.752,141.385,888.713,141.249,888.676,141.104"/>
		<polygon clip-path="url(#SVGID_37_)" fill="#27062B" points="889.609,464.663 890.338,464.655 889.258,464.289 		"/>
		<path clip-path="url(#SVGID_37_)" fill="#27062B" d="M889.197,388.303l-17.059,17.91c6.775,0.774,13.221,1.502,18.922,2.142
			l0.258-20.07L889.197,388.303z"/>
		<polygon clip-path="url(#SVGID_37_)" fill="#27062B" points="871.5,445.415 889.258,464.289 890.338,464.655 890.986,414.059 
			871.867,416.831 		"/>
		<path clip-path="url(#SVGID_37_)" fill="#27062B" d="M872.002,406.355l-0.135,10.478l19.119-2.776l0.074-5.702
			c-5.701-0.64-12.148-1.367-18.922-2.144L872.002,406.355z"/>
		<polygon clip-path="url(#SVGID_37_)" fill="#27062B" points="890.727,377.76 891.453,377.752 890.373,377.382 		"/>
		<polygon clip-path="url(#SVGID_37_)" fill="#27062B" points="873.117,319.456 872.615,358.508 890.373,377.382 891.453,377.752 
			892.434,301.393 890.313,301.41 		"/>
		<polygon clip-path="url(#SVGID_37_)" fill="#27062B" points="873.568,284.364 892.57,290.86 893.141,246.297 874.141,239.803 		
			"/>
		<polygon clip-path="url(#SVGID_37_)" fill="#27062B" points="874.141,239.803 893.143,246.297 893.371,228.399 874.371,221.903 		
			"/>
		<polygon clip-path="url(#SVGID_37_)" fill="#27062B" points="874.371,221.903 893.371,228.399 893.84,185.655 874.924,178.85 		
			"/>
		<polygon clip-path="url(#SVGID_37_)" fill="#27062B" points="874.77,190.879 893.77,197.375 893.838,192.176 874.836,185.68 		"/>
		<polygon clip-path="url(#SVGID_37_)" fill="#27062B" points="874.836,185.68 893.836,192.176 893.926,185.346 874.75,166.957 		
			"/>
		<path clip-path="url(#SVGID_37_)" fill="#27062B" d="M873.117,175.918c0.721,0.536,1.82,1.832,1.807,2.931l19,6.496
			c0.004-0.194-0.014-0.384-0.041-0.569c-0.008-0.059-0.023-0.116-0.033-0.174c-0.025-0.124-0.053-0.245-0.09-0.362
			c-0.021-0.063-0.043-0.125-0.066-0.185c-0.041-0.108-0.088-0.213-0.139-0.313c-0.027-0.056-0.055-0.111-0.086-0.164
			c-0.061-0.106-0.131-0.204-0.203-0.299c-0.029-0.039-0.053-0.08-0.084-0.116c-0.107-0.125-0.221-0.24-0.344-0.342
			c-0.021-0.017-0.045-0.029-0.066-0.047c-0.105-0.081-0.215-0.152-0.33-0.213c-0.047-0.025-0.096-0.044-0.143-0.064
			c-0.277-0.124-0.574-0.2-0.889-0.198L873.117,175.918z"/>
		<polygon clip-path="url(#SVGID_37_)" fill="#27062B" points="858.439,371.365 877.439,377.863 851.818,350.628 851.818,364.327 		
			"/>
		<polygon clip-path="url(#SVGID_37_)" fill="#27062B" points="851.818,301.709 848.537,331.648 873.297,305.439 873.348,301.541 		
			"/>
		<polygon clip-path="url(#SVGID_37_)" fill="#27062B" points="873.348,301.541 873.297,305.439 877.039,301.514 		"/>
		<polygon clip-path="url(#SVGID_37_)" fill="#27062B" points="851.818,371.416 851.818,378.059 877.439,377.863 858.439,371.365 		
			"/>
		<polygon clip-path="url(#SVGID_37_)" fill="#27062B" points="876.258,74.997 895.258,81.492 895.488,63.612 876.563,51.179 		"/>
		<path clip-path="url(#SVGID_37_)" fill="#27062B" d="M867.891,84.956l19,6.497c0.063,0,0.121-0.011,0.182-0.014l-18.979-6.488
			C868.027,84.954,867.959,84.956,867.891,84.956"/>
		<path clip-path="url(#SVGID_37_)" fill="#27062B" d="M869.98,84.608c-0.221,0.071-0.441,0.131-0.67,0.181
			c-0.105,0.023-0.213,0.043-0.32,0.06c-0.229,0.039-0.457,0.063-0.689,0.079c-0.07,0.006-0.137,0.022-0.207,0.024l18.979,6.488
			c0.076-0.002,0.152-0.011,0.229-0.016c0.232-0.016,0.463-0.04,0.689-0.078c0.107-0.019,0.217-0.038,0.322-0.062
			c0.227-0.048,0.447-0.11,0.666-0.18c0.061-0.02,0.121-0.036,0.182-0.057l-18.988-6.493
			C870.109,84.579,870.043,84.588,869.98,84.608"/>
		<path clip-path="url(#SVGID_37_)" fill="#27062B" d="M871.799,83.752c-0.238,0.155-0.484,0.296-0.736,0.423
			c-0.088,0.044-0.18,0.079-0.27,0.12c-0.178,0.08-0.355,0.161-0.539,0.228c-0.027,0.009-0.055,0.024-0.082,0.032l18.988,6.493
			c0.031-0.011,0.064-0.018,0.096-0.029c0.182-0.067,0.359-0.146,0.537-0.227c0.09-0.042,0.182-0.077,0.27-0.122
			c0.25-0.125,0.492-0.263,0.729-0.417c0.014-0.008,0.025-0.014,0.039-0.023l-19-6.496C871.82,83.741,871.809,83.746,871.799,83.752
			"/>
		<path clip-path="url(#SVGID_37_)" fill="#27062B" d="M873.307,82.498c-0.156,0.162-0.32,0.314-0.486,0.463
			c-0.074,0.067-0.148,0.137-0.225,0.203c-0.248,0.205-0.5,0.397-0.764,0.57c-0.002,0-0.002,0-0.002,0.001l19,6.497
			c0.002-0.002,0.002-0.002,0.002-0.002c0.264-0.173,0.518-0.365,0.764-0.569c0.078-0.064,0.152-0.137,0.227-0.204
			c0.166-0.147,0.328-0.3,0.484-0.46c0.035-0.036,0.068-0.074,0.104-0.11l-18.99-6.494C873.383,82.43,873.344,82.461,873.307,82.498
			"/>
		<path clip-path="url(#SVGID_37_)" fill="#27062B" d="M876.197,76.046c-0.014,0.116-0.033,0.227-0.047,0.341
			c-0.031,0.227-0.061,0.455-0.104,0.677c-0.023,0.133-0.059,0.262-0.088,0.394c-0.045,0.198-0.088,0.396-0.143,0.588
			c-0.039,0.137-0.084,0.268-0.127,0.404c-0.059,0.18-0.117,0.36-0.184,0.536c-0.051,0.134-0.107,0.264-0.164,0.395
			c-0.07,0.168-0.141,0.334-0.221,0.497c-0.063,0.128-0.127,0.254-0.195,0.379c-0.084,0.156-0.168,0.311-0.258,0.46
			c-0.072,0.122-0.148,0.239-0.225,0.355c-0.096,0.145-0.193,0.286-0.293,0.426c-0.082,0.11-0.166,0.221-0.252,0.328
			c-0.107,0.133-0.217,0.262-0.328,0.389c-0.053,0.057-0.1,0.121-0.152,0.177l18.99,6.493c0.055-0.059,0.109-0.116,0.164-0.176
			c0.109-0.125,0.219-0.254,0.326-0.386c0.086-0.107,0.17-0.218,0.252-0.33c0.102-0.137,0.197-0.278,0.293-0.424
			c0.078-0.116,0.152-0.235,0.227-0.356c0.09-0.149,0.174-0.305,0.258-0.461c0.066-0.125,0.133-0.248,0.195-0.377
			c0.078-0.163,0.15-0.33,0.221-0.498c0.057-0.131,0.113-0.262,0.162-0.395c0.068-0.176,0.125-0.356,0.184-0.537
			c0.043-0.134,0.09-0.266,0.129-0.401c0.053-0.194,0.098-0.392,0.141-0.59c0.031-0.131,0.064-0.26,0.09-0.392
			c0.041-0.223,0.072-0.451,0.102-0.679c0.014-0.114,0.035-0.225,0.047-0.341c0.035-0.344,0.057-0.694,0.061-1.049l-18.893-14.84
			C876.365,66.653,876.232,75.701,876.197,76.046"/>
		<path clip-path="url(#SVGID_37_)" fill="#27062B" d="M872.301,163.182c-0.061,4.787-0.115,8.948,0.109,12.622l1.33,0.455
			c-0.193-0.144-0.4-0.264-0.623-0.34l18.133,9.147c-0.215-3.643-0.01-10.655,0.051-15.388c0.018-1.286,0.018-2.528,0.01-3.743
			c-0.004-0.388-0.012-0.761-0.016-1.14c-0.012-0.824-0.025-1.637-0.049-2.428c-0.012-0.409-0.025-0.815-0.039-1.218
			c-0.027-0.756-0.059-1.495-0.098-2.221c-0.018-0.359-0.035-0.724-0.057-1.077c-0.049-0.858-0.107-1.691-0.172-2.506
			c-0.014-0.182-0.025-0.374-0.041-0.553c-0.082-0.983-0.174-1.931-0.273-2.851c-0.029-0.261-0.063-0.508-0.092-0.765
			c-0.076-0.653-0.154-1.296-0.24-1.918c-0.043-0.306-0.086-0.604-0.131-0.903c-0.082-0.561-0.168-1.11-0.26-1.646
			c-0.047-0.279-0.092-0.56-0.141-0.833c-0.104-0.577-0.211-1.134-0.322-1.68c-0.039-0.193-0.076-0.396-0.117-0.584
			c-0.15-0.719-0.311-1.414-0.475-2.082c-0.037-0.146-0.076-0.282-0.113-0.427c-0.131-0.517-0.266-1.021-0.404-1.504
			c-0.061-0.212-0.123-0.416-0.186-0.623c-0.121-0.403-0.244-0.796-0.369-1.178c-0.066-0.203-0.133-0.403-0.201-0.599
			c-0.133-0.385-0.268-0.755-0.404-1.117c-0.061-0.157-0.117-0.32-0.178-0.472c-0.195-0.5-0.395-0.982-0.598-1.437
			c-0.014-0.032-0.029-0.059-0.043-0.09c-0.189-0.424-0.383-0.828-0.576-1.214c-0.068-0.133-0.137-0.26-0.205-0.39
			c-0.143-0.275-0.287-0.543-0.432-0.8c-0.076-0.133-0.152-0.264-0.229-0.394c-0.145-0.244-0.289-0.477-0.434-0.704
			c-0.072-0.11-0.141-0.224-0.213-0.329c-0.18-0.273-0.361-0.53-0.543-0.775c-0.031-0.044-0.064-0.094-0.096-0.136
			c-0.213-0.284-0.426-0.549-0.639-0.801c-0.063-0.075-0.125-0.142-0.188-0.214c-0.15-0.171-0.301-0.339-0.449-0.495
			c-0.074-0.078-0.148-0.154-0.223-0.227c-0.141-0.141-0.279-0.275-0.416-0.403c-0.07-0.065-0.143-0.132-0.211-0.194
			c-0.154-0.135-0.305-0.261-0.455-0.383c-0.047-0.038-0.098-0.082-0.146-0.12c-0.195-0.152-0.387-0.292-0.576-0.421
			c-0.045-0.031-0.09-0.058-0.135-0.088c-0.143-0.094-0.283-0.184-0.422-0.267c-0.061-0.037-0.123-0.069-0.184-0.104
			c-0.119-0.066-0.236-0.13-0.35-0.188c-0.059-0.031-0.119-0.061-0.176-0.089c-0.119-0.057-0.232-0.108-0.344-0.155
			c-0.045-0.02-0.092-0.042-0.135-0.06c-0.154-0.062-0.303-0.119-0.439-0.166h-0.004c-0.9-0.307-1.49-0.313-1.57-0.312
			l-10.684,0.082C869.338,130.649,872.574,141.866,872.301,163.182"/>
		<path clip-path="url(#SVGID_37_)" fill="#27062B" d="M873.74,176.259l17.67,6.041c-0.002-0.041-0.002-0.086-0.006-0.129
			l-18.289-6.252C873.34,175.995,873.547,176.115,873.74,176.259"/>
		<polygon clip-path="url(#SVGID_37_)" fill="#27062B" points="876.486,57.116 895.488,63.61 895.953,27.373 876.951,20.877 		"/>
		<polygon clip-path="url(#SVGID_37_)" fill="#27062B" points="851.818,284.534 851.818,291.177 892.568,290.86 873.568,284.364 		
			"/>
		<polygon clip-path="url(#SVGID_37_)" fill="#27062B" points="851.818,85.081 846.749,92.073 886.891,91.454 867.891,84.956 		"/>
		<path clip-path="url(#SVGID_37_)" fill="#27062B" d="M872.139,406.213c-0.045-0.006-0.09-0.01-0.135-0.014l-0.002,0.156
			L872.139,406.213z"/>
		<path clip-path="url(#SVGID_37_)" fill="#27062B" d="M892.441,182.563c0.115,0.06,0.225,0.133,0.33,0.213
			C892.666,182.695,892.557,182.622,892.441,182.563"/>
		<path clip-path="url(#SVGID_37_)" fill="#27062B" d="M892.297,182.497c-0.059-0.027-0.117-0.061-0.18-0.082l-0.713-0.244
			c0.004,0.042,0.004,0.088,0.006,0.129C891.725,182.297,892.021,182.373,892.297,182.497"/>
		<path clip-path="url(#SVGID_37_)" fill="#27062B" d="M893.76,184.241c0.037,0.117,0.064,0.238,0.09,0.363
			C893.824,184.479,893.797,184.357,893.76,184.241"/>
		<path clip-path="url(#SVGID_37_)" fill="#27062B" d="M893.266,183.279c0.072,0.095,0.143,0.194,0.203,0.299
			C893.406,183.473,893.34,183.375,893.266,183.279"/>
		<path clip-path="url(#SVGID_37_)" fill="#27062B" d="M892.838,182.822c0.123,0.102,0.238,0.217,0.344,0.344
			C893.076,183.039,892.961,182.923,892.838,182.822"/>
		<path clip-path="url(#SVGID_37_)" fill="#27062B" d="M893.555,183.742c0.051,0.101,0.098,0.205,0.139,0.314
			C893.652,183.947,893.605,183.843,893.555,183.742"/>
		<path clip-path="url(#SVGID_37_)" fill="#27062B" d="M893.883,184.777c0.027,0.185,0.043,0.375,0.041,0.569
			C893.926,185.15,893.91,184.961,893.883,184.777"/>
		<polygon clip-path="url(#SVGID_37_)" fill="#27062B" points="877.039,301.514 873.363,300.255 873.348,301.541 		"/>
		<path clip-path="url(#SVGID_37_)" fill="#27062B" d="M882.93,128.542c0.211,0.251,0.424,0.516,0.637,0.799
			C883.354,129.059,883.141,128.794,882.93,128.542"/>
		<path clip-path="url(#SVGID_37_)" fill="#27062B" d="M890.881,155.346c0.064,0.814,0.121,1.648,0.174,2.506
			C891.002,156.994,890.945,156.16,890.881,155.346"/>
		<path clip-path="url(#SVGID_37_)" fill="#27062B" d="M879.174,125.438c0.113,0.058,0.23,0.121,0.348,0.188
			C879.404,125.559,879.287,125.496,879.174,125.438"/>
		<path clip-path="url(#SVGID_37_)" fill="#27062B" d="M890.566,151.941c0.1,0.919,0.193,1.867,0.273,2.85
			C890.76,153.809,890.666,152.861,890.566,151.941"/>
		<path clip-path="url(#SVGID_37_)" fill="#27062B" d="M889.381,144.197c0.111,0.546,0.219,1.103,0.322,1.682
			C889.6,145.3,889.492,144.743,889.381,144.197"/>
		<polygon clip-path="url(#SVGID_37_)" fill="#27062B" points="830.379,410.022 862.584,376.88 886.305,382.646 847.369,424.953 		
			"/>
		<path clip-path="url(#SVGID_37_)" fill="#27062B" d="M879.709,125.731c0.137,0.082,0.277,0.17,0.422,0.266
			C879.986,125.902,879.846,125.813,879.709,125.731"/>
		<path clip-path="url(#SVGID_37_)" fill="#27062B" d="M878.092,124.972l-0.012-0.005c0.139,0.047,0.285,0.104,0.438,0.167
			C878.371,125.073,878.227,125.019,878.092,124.972"/>
		<path clip-path="url(#SVGID_37_)" fill="#27062B" d="M890.234,149.259c0.084,0.622,0.164,1.265,0.24,1.917
			C890.398,150.523,890.318,149.88,890.234,149.259"/>
		<path clip-path="url(#SVGID_37_)" fill="#27062B" d="M878.654,125.193c0.111,0.048,0.225,0.099,0.344,0.156
			C878.879,125.292,878.766,125.241,878.654,125.193"/>
		<path clip-path="url(#SVGID_37_)" fill="#27062B" d="M889.846,146.71c0.09,0.536,0.176,1.085,0.258,1.646
			C890.021,147.794,889.936,147.246,889.846,146.71"/>
		<path clip-path="url(#SVGID_37_)" fill="#27062B" d="M880.986,126.626c0.15,0.119,0.301,0.246,0.455,0.383
			C881.287,126.873,881.137,126.746,880.986,126.626"/>
		<path clip-path="url(#SVGID_37_)" fill="#27062B" d="M887.717,137.8c0.127,0.381,0.248,0.775,0.369,1.177
			C887.965,138.575,887.842,138.181,887.717,137.8"/>
		<polygon clip-path="url(#SVGID_37_)" fill="#27062B" points="794.922,513.487 871.5,513.487 871.5,472.214 893.666,475.101 
			890.914,527.938 839.975,545.272 803.236,534.538 		"/>
		<path clip-path="url(#SVGID_37_)" fill="#27062B" d="M881.652,127.203c0.139,0.128,0.277,0.262,0.416,0.402
			C881.928,127.464,881.791,127.331,881.652,127.203"/>
		<path clip-path="url(#SVGID_37_)" fill="#27062B" d="M888.271,139.6c0.139,0.485,0.273,0.988,0.404,1.505
			C888.545,140.588,888.41,140.084,888.271,139.6"/>
		<path clip-path="url(#SVGID_37_)" fill="#27062B" d="M888.789,141.532c0.164,0.667,0.322,1.361,0.477,2.082
			C889.111,142.893,888.953,142.198,888.789,141.532"/>
		<path clip-path="url(#SVGID_37_)" fill="#27062B" d="M880.264,126.085c0.189,0.128,0.383,0.268,0.576,0.422
			C880.646,126.353,880.453,126.213,880.264,126.085"/>
		<path clip-path="url(#SVGID_37_)" fill="#27062B" d="M882.291,127.832c0.148,0.155,0.299,0.324,0.449,0.495
			C882.59,128.156,882.439,127.987,882.291,127.832"/>
		<path clip-path="url(#SVGID_37_)" fill="#27062B" d="M883.662,129.478c0.182,0.245,0.363,0.504,0.543,0.775
			C884.025,129.982,883.844,129.724,883.662,129.478"/>
		<path clip-path="url(#SVGID_37_)" fill="#27062B" d="M885.717,132.869c0.193,0.388,0.387,0.79,0.578,1.214
			C886.104,133.659,885.912,133.257,885.717,132.869"/>
		<path clip-path="url(#SVGID_37_)" fill="#27062B" d="M884.418,130.582c0.145,0.227,0.289,0.46,0.434,0.703
			C884.707,131.042,884.563,130.809,884.418,130.582"/>
		<path clip-path="url(#SVGID_37_)" fill="#27062B" d="M887.111,136.083c0.137,0.362,0.271,0.732,0.404,1.117
			C887.383,136.815,887.248,136.445,887.111,136.083"/>
		<path clip-path="url(#SVGID_37_)" fill="#27062B" d="M891.109,158.93c0.037,0.726,0.07,1.464,0.098,2.221
			C891.18,160.394,891.146,159.655,891.109,158.93"/>
		<path clip-path="url(#SVGID_37_)" fill="#27062B" d="M886.336,134.173c0.203,0.456,0.402,0.938,0.598,1.438
			C886.738,135.111,886.539,134.629,886.336,134.173"/>
		<path clip-path="url(#SVGID_37_)" fill="#27062B" d="M891.246,162.368c0.021,0.79,0.037,1.603,0.049,2.428
			C891.283,163.97,891.268,163.159,891.246,162.368"/>
		<path clip-path="url(#SVGID_37_)" fill="#27062B" d="M891.311,165.935c0.008,1.215,0.008,2.457-0.01,3.743
			C891.318,168.392,891.318,167.15,891.311,165.935"/>
		<path clip-path="url(#SVGID_37_)" fill="#27062B" d="M885.08,131.679c0.145,0.256,0.289,0.526,0.434,0.801
			C885.369,132.205,885.225,131.935,885.08,131.679"/>
		<path clip-path="url(#SVGID_37_)" fill="#27062B" d="M817.131,91.995c-0.355,0.002-0.705-0.032-1.049-0.08
			C816.426,91.963,816.775,91.997,817.131,91.995"/>
		<path clip-path="url(#SVGID_37_)" fill="#27062B" d="M815.795,91.863c-0.273-0.053-0.541-0.119-0.803-0.202
			C815.254,91.744,815.521,91.81,815.795,91.863"/>
		<polygon clip-path="url(#SVGID_37_)" fill="#27062B" points="841.166,353.005 851.818,364.327 851.818,350.628 847.65,346.198 		
			"/>
		<polygon clip-path="url(#SVGID_37_)" fill="#27062B" points="851.818,458.312 851.818,464.956 876.324,464.769 857.322,458.272 		
			"/>
		<polygon clip-path="url(#SVGID_37_)" fill="#27062B" points="876.324,464.769 851.818,438.709 846.535,433.09 840.047,439.9 
			851.818,452.417 857.322,458.272 		"/>
		<polygon clip-path="url(#SVGID_37_)" fill="#27062B" points="815.914,465.233 851.818,464.956 851.818,458.312 822.291,458.543 		
			"/>
		<polygon clip-path="url(#SVGID_37_)" fill="#27062B" points="851.66,301.709 835.314,318.866 847.83,332.169 851.818,327.984 
			851.818,301.709 		"/>
		<polygon clip-path="url(#SVGID_37_)" fill="#27062B" points="804.117,463.771 805.963,461.832 804.15,461.213 		"/>
		<polygon clip-path="url(#SVGID_37_)" fill="#27062B" points="804.182,458.682 804.148,461.213 805.965,461.832 809.002,458.645 		
			"/>
		<polygon clip-path="url(#SVGID_37_)" fill="#27062B" points="823.41,371.636 817.029,378.33 851.818,378.059 851.818,371.416 		
			"/>
		<path clip-path="url(#SVGID_37_)" fill="#27062B" d="M814.643,399.211l-9.566-10.167l-0.113,8.742
			C807.502,398.204,810.799,398.683,814.643,399.211"/>
		<path clip-path="url(#SVGID_37_)" fill="#27062B" d="M836.105,422.021l-21.463-22.811c-3.844-0.528-7.139-1.007-9.678-1.425
			l-0.063,4.771l16.072,17.082l-5.063,5.314l-11.451,12.019l-0.279,21.71l4.82-0.035l24.496-25.713l3.092-3.247l3.387-3.552
			L836.105,422.021z"/>
	</g>
	<g clip-path="url(#SVGID_2_)">
		<defs>
			<rect id="SVGID_38_" y="35.136" width="960" height="495.408"/>
		</defs>
		<clipPath id="SVGID_39_">
			<use xlink:href="#SVGID_38_"  overflow="visible"/>
		</clipPath>
		<polygon clip-path="url(#SVGID_39_)" fill="#27062B" points="810.127,371.741 834.609,346.034 828.65,339.702 837.695,342.793 
			841.092,339.228 822.092,332.729 805.576,350.07 805.297,371.776 		"/>
		<polygon clip-path="url(#SVGID_39_)" fill="#27062B" points="805.232,376.88 807.088,374.931 805.266,374.308 		"/>
		<polygon clip-path="url(#SVGID_39_)" fill="#27062B" points="834.607,346.034 837.695,342.795 828.65,339.702 		"/>
		<polygon clip-path="url(#SVGID_39_)" fill="#27062B" points="805.299,371.776 805.266,374.305 807.09,374.931 810.129,371.741 		
			"/>
		<polygon clip-path="url(#SVGID_39_)" fill="#27062B" points="841.092,339.228 806.191,302.139 806.02,315.651 822.092,332.731 		
			"/>
		<path clip-path="url(#SVGID_39_)" fill="#27062B" d="M809.439,85.41c0.592,2.13,1.777,3.919,3.328,5.092l4.363,1.492l34.688-0.268
			v-6.644L809.439,85.41z"/>
		<path clip-path="url(#SVGID_39_)" fill="#27062B" d="M814.992,91.661c0.264,0.083,0.529,0.149,0.803,0.202
			c0.096,0.018,0.189,0.036,0.287,0.051c0.344,0.049,0.691,0.083,1.049,0.08l-4.363-1.492
			C813.445,91.015,814.193,91.408,814.992,91.661"/>
		<polygon clip-path="url(#SVGID_39_)" fill="#27062B" points="763.268,-75.509 757.203,396.656 756.73,433.537 756.268,469.589 
			750.246,469.634 749.68,513.738 740.355,513.812 739.789,557.917 657.939,558.552 657.602,584.892 676.602,591.388 
			676.939,565.048 758.789,564.415 759.355,520.308 768.682,520.236 769.248,476.13 775.268,476.084 775.85,430.765 
			776.299,395.736 782.27,-69.014 		"/>
		<polygon clip-path="url(#SVGID_39_)" fill="#3E0042" points="851.818,388.591 851.818,387.266 850.547,388.604 		"/>
		<polygon clip-path="url(#SVGID_39_)" fill="#27062B" points="851.818,301.709 851.818,301.543 851.66,301.709 		"/>
	</g>
	<g clip-path="url(#SVGID_2_)">
		<defs>
			<path id="SVGID_40_" d="M803.961,475.861l47.857-0.372l38.385-0.299l-0.568,44.106l-37.816,0.293l-48.422,0.374L803.961,475.861z
				 M822.289,458.543l17.758-18.643l6.488-6.811l5.283,5.619l24.506,26.058l-24.506,0.189l-35.904,0.277L822.289,458.543z
				 M804.15,461.213l0.031-2.531l0.279-21.712l0.133-10.376l0.309-24.039l0.061-4.769l0.113-8.742l9.566,10.167l21.465,22.811
				l3.867,4.111l-3.385,3.554l-3.092,3.247l-24.496,25.711l-3.039,3.188l-1.846,1.939L804.15,461.213z M889.197,388.303l2.121-0.019
				l-0.26,20.07l-0.072,5.702l-0.648,50.603l-0.729,0.004l-0.352-0.374L871.5,445.415l-18.238-19.385l7.184-7.541l11.557-12.134
				l0.002-0.158c0.045,0.004,0.09,0.01,0.135,0.014L889.197,388.303z M834.199,405.769l-4.299-4.571l-11.611-12.347l32.26-0.247
				l1.27-1.338v1.325l20.414-0.156l3.689-0.031l-3.74,3.93l-11.914,12.509l-8.449,8.875l-5.104,5.356L834.199,405.769z
				 M823.41,371.636l17.756-18.631l6.484-6.807l4.168,4.43l25.623,27.235l-25.623,0.195l-34.787,0.271L823.41,371.636z
				 M805.266,374.308l0.031-2.531l0.279-21.706l0.441-34.419l0.176-13.513l34.898,37.089l-3.396,3.567l-3.086,3.239l-24.482,25.707
				l-3.039,3.189l-1.855,1.949L805.266,374.308z M890.375,377.382l-17.758-18.87l-18.238-19.388l18.738-19.668l17.195-18.046
				l2.121-0.018l-0.98,76.359l-0.727,0.008L890.375,377.382z M873.348,301.543l0.018-1.288l3.674,1.259l-3.742,3.926l-21.479,22.543
				l-3.988,4.187l-12.516-13.303l-15.908-16.905l32.256-0.252l0.156-0.164v0.164L873.348,301.543z M806.414,284.887l0.486-37.919
				l0.23-17.897l0.398-31.026l0.066-5.199l0.088-6.829c0.021-1.689,1.186-3.075,2.865-3.088c0.047-3.675,0.102-7.839,0.162-12.623
				c0.576-44.824,15.529-45.259,15.961-45.263l25.146-0.195l14.004-0.11l10.684-0.082c0.08,0,0.67,0.004,1.572,0.312
				c0,0,0,0,0.002,0.001l0.012,0.003c0.137,0.046,0.279,0.101,0.426,0.162c0.045,0.019,0.092,0.04,0.137,0.059
				c0.111,0.047,0.225,0.099,0.344,0.155c0.057,0.028,0.117,0.058,0.176,0.09c0.113,0.058,0.23,0.121,0.35,0.188
				c0.061,0.035,0.123,0.069,0.186,0.104c0.137,0.084,0.277,0.173,0.42,0.267c0.047,0.03,0.09,0.055,0.135,0.088
				c0.189,0.128,0.383,0.268,0.578,0.422c0.047,0.038,0.098,0.081,0.145,0.121c0.15,0.12,0.301,0.246,0.455,0.382
				c0.068,0.063,0.139,0.127,0.211,0.193c0.137,0.128,0.275,0.262,0.416,0.403c0.074,0.073,0.148,0.148,0.223,0.227
				c0.148,0.157,0.297,0.324,0.449,0.495c0.063,0.072,0.125,0.14,0.189,0.216c0.211,0.25,0.424,0.517,0.637,0.799
				c0.031,0.042,0.064,0.092,0.096,0.136c0.182,0.246,0.363,0.504,0.545,0.775c0.07,0.106,0.139,0.219,0.211,0.329
				c0.145,0.227,0.289,0.46,0.434,0.704c0.076,0.128,0.152,0.259,0.229,0.393c0.145,0.256,0.289,0.525,0.434,0.802
				c0.066,0.128,0.135,0.255,0.203,0.389c0.193,0.388,0.387,0.791,0.578,1.216c0.012,0.03,0.027,0.057,0.041,0.088
				c0.203,0.456,0.402,0.939,0.598,1.438c0.061,0.153,0.119,0.313,0.178,0.47c0.137,0.362,0.271,0.734,0.404,1.118
				c0.068,0.197,0.135,0.397,0.201,0.6c0.125,0.38,0.248,0.775,0.369,1.178c0.063,0.205,0.125,0.41,0.186,0.623
				c0.139,0.483,0.273,0.987,0.404,1.504c0.037,0.144,0.076,0.28,0.113,0.426c0.164,0.667,0.324,1.362,0.475,2.083
				c0.041,0.189,0.078,0.392,0.117,0.584c0.111,0.546,0.219,1.103,0.322,1.68c0.049,0.274,0.094,0.555,0.141,0.833
				c0.09,0.536,0.178,1.083,0.26,1.645c0.045,0.299,0.09,0.597,0.131,0.903c0.086,0.622,0.166,1.266,0.24,1.919
				c0.031,0.255,0.063,0.503,0.092,0.764c0.1,0.92,0.191,1.867,0.273,2.85c0.016,0.18,0.027,0.373,0.041,0.555
				c0.064,0.815,0.123,1.647,0.174,2.506c0.021,0.353,0.037,0.717,0.057,1.077c0.037,0.727,0.068,1.466,0.096,2.223
				c0.014,0.401,0.027,0.806,0.039,1.217c0.021,0.791,0.037,1.603,0.049,2.428c0.006,0.379,0.012,0.751,0.014,1.14
				c0.01,1.215,0.01,2.456-0.008,3.744c-0.061,4.731-0.111,8.849,0.105,12.492l0.711,0.243c0.063,0.021,0.119,0.054,0.182,0.082
				c0.047,0.022,0.098,0.04,0.145,0.066c0.113,0.06,0.223,0.133,0.328,0.213c0.021,0.017,0.045,0.028,0.066,0.045
				c0.123,0.102,0.238,0.218,0.344,0.344c0.029,0.035,0.055,0.077,0.084,0.114c0.072,0.095,0.143,0.193,0.203,0.299
				c0.031,0.053,0.059,0.107,0.086,0.164c0.053,0.101,0.098,0.204,0.141,0.314c0.021,0.06,0.045,0.121,0.063,0.184
				c0.037,0.117,0.066,0.24,0.09,0.362c0.014,0.058,0.027,0.113,0.037,0.174c0.025,0.184,0.043,0.373,0.039,0.57l-0.088,6.83
				l-0.066,5.199l-0.398,31.024l-0.23,17.897l-0.57,44.563l-40.752,0.316l-45.49,0.354L806.414,284.887z M895.854,35.136
				l-0.365,28.476l-0.23,17.881c-0.004,0.355-0.025,0.705-0.061,1.049c-0.01,0.115-0.033,0.227-0.047,0.341
				c-0.029,0.229-0.061,0.456-0.102,0.679c-0.025,0.132-0.059,0.263-0.09,0.394c-0.043,0.196-0.088,0.394-0.141,0.587
				c-0.039,0.137-0.086,0.269-0.129,0.403c-0.059,0.181-0.115,0.36-0.184,0.538c-0.049,0.134-0.105,0.264-0.162,0.394
				c-0.07,0.169-0.143,0.336-0.221,0.5c-0.063,0.127-0.129,0.252-0.195,0.377c-0.084,0.156-0.17,0.31-0.26,0.459
				c-0.072,0.121-0.146,0.24-0.225,0.356c-0.096,0.145-0.191,0.287-0.293,0.423c-0.082,0.111-0.166,0.222-0.252,0.331
				c-0.107,0.133-0.217,0.26-0.328,0.386c-0.053,0.061-0.107,0.118-0.162,0.176c-0.033,0.037-0.066,0.075-0.102,0.11
				c-0.154,0.161-0.316,0.313-0.484,0.46c-0.074,0.067-0.148,0.14-0.227,0.205c-0.246,0.204-0.5,0.396-0.764,0.569
				c0,0.001,0,0.001-0.002,0.002c-0.012,0.007-0.025,0.013-0.039,0.022c-0.236,0.152-0.479,0.291-0.727,0.416
				c-0.09,0.045-0.182,0.08-0.271,0.121c-0.178,0.082-0.355,0.161-0.537,0.228c-0.033,0.012-0.064,0.019-0.096,0.03
				c-0.061,0.021-0.121,0.039-0.182,0.057c-0.219,0.07-0.439,0.131-0.666,0.179c-0.107,0.024-0.215,0.044-0.322,0.063
				c-0.227,0.038-0.457,0.063-0.689,0.078c-0.076,0.004-0.152,0.013-0.229,0.015c-0.061,0.002-0.119,0.013-0.182,0.013
				l-35.072,0.272l-34.688,0.268c-0.355,0.002-0.705-0.031-1.049-0.08c-0.096-0.015-0.191-0.033-0.287-0.051
				c-0.271-0.053-0.541-0.119-0.803-0.202c-0.051-0.016-0.105-0.022-0.156-0.039l-19-6.497c0.727,0.249,1.496,0.38,2.295,0.372
				l14.637,5.005c-1.551-1.173-2.736-2.962-3.326-5.092c-0.283-1.017-0.438-2.108-0.424-3.248l0.23-17.882l0.373-29.144h-28.689
				l-4.633,360.601l-0.449,35.028l-0.582,45.319l-6.02,0.046l-0.566,44.106l-9.326,0.071l-0.133,10.236H931.33l0.15-11.569
				l-9.273-3.172l0.525-40.862l-6.006-2.054l5.623-437.751H895.854z"/>
		</defs>
		<clipPath id="SVGID_41_">
			<use xlink:href="#SVGID_40_"  overflow="visible"/>
		</clipPath>
		
			<linearGradient id="SVGID_42_" gradientUnits="userSpaceOnUse" x1="0.041" y1="400.0752" x2="1.2811" y2="400.0752" gradientTransform="matrix(-9.0967 487.1809 487.1809 9.0967 -194057.25 -3701.5977)">
			<stop  offset="0" style="stop-color:#C91127"/>
			<stop  offset="0.3016" style="stop-color:#C91127"/>
			<stop  offset="0.7884" style="stop-color:#3E0042"/>
			<stop  offset="1" style="stop-color:#3E0042"/>
		</linearGradient>
		<polygon clip-path="url(#SVGID_41_)" fill="url(#SVGID_42_)" points="938.947,35.31 931.42,534.524 751.756,530.371 
			759.283,31.154 		"/>
	</g>
	<g clip-path="url(#SVGID_2_)">
		<defs>
			<path id="SVGID_43_" d="M803.877,476.172l47.859-0.372l38.383-0.299l-0.566,44.106l-37.816,0.291l-48.424,0.376L803.877,476.172z
				 M822.207,458.851l17.758-18.644l6.488-6.811l5.283,5.621l24.504,26.06l-24.504,0.188l-35.904,0.279L822.207,458.851z
				 M804.066,461.521l0.031-2.529l0.279-21.714l0.133-10.376l0.311-24.037l0.061-4.767l0.111-8.743l9.566,10.166l21.465,22.809
				l3.869,4.111l-3.387,3.556l-3.092,3.245l-24.496,25.711l-3.037,3.191l-1.848,1.938L804.066,461.521z M889.115,388.611
				l2.119-0.019l-0.258,20.07l-0.072,5.704l-0.65,50.599l-0.727,0.007l-0.354-0.374l-17.758-18.873l-18.238-19.385l7.184-7.541
				l11.557-12.134l0.002-0.16c0.045,0.006,0.09,0.01,0.135,0.017L889.115,388.611z M834.117,406.077l-4.301-4.569l-11.611-12.347
				l38.293-0.295l-4.762-1.29v1.326l20.412-0.159l3.691-0.027l-3.742,3.928l-11.912,12.507l-8.449,8.875l-5.104,5.356
				L834.117,406.077z M823.326,371.946l17.756-18.633l6.486-6.807l4.168,4.432l25.621,27.233l-25.621,0.199l-34.789,0.27
				L823.326,371.946z M805.182,374.616l0.033-2.531l0.279-21.706l0.441-34.419l0.174-13.513l34.898,37.089l-3.396,3.567
				l-3.086,3.239l-24.48,25.707l-3.039,3.189l-1.855,1.951L805.182,374.616z M890.291,377.692l-17.758-18.874l-18.238-19.386
				l18.74-19.668l17.195-18.045l2.119-0.019l-0.98,76.361l-0.727,0.006L890.291,377.692z M879.167,302.081l-5.886-1.516l3.674,1.257
				l-3.74,3.926l-21.479,22.545l-3.988,4.185l-12.516-13.301l-15.91-16.905l32.256-0.251l0.158-0.165v0.165L879.167,302.081z
				 M806.332,285.193l0.486-37.919l0.229-17.896l0.4-31.024l0.064-5.199l0.088-6.831c0.021-1.689,1.188-3.076,2.865-3.088
				c0.047-3.674,0.102-7.838,0.162-12.622c0.576-44.826,15.531-45.26,15.963-45.263l25.146-0.194l14.002-0.109l10.686-0.083
				c0.078-0.001,0.668,0.004,1.57,0.312h0.002l0.012,0.006c0.135,0.044,0.279,0.099,0.428,0.161c0.045,0.017,0.09,0.039,0.137,0.059
				c0.109,0.047,0.225,0.099,0.342,0.157c0.057,0.027,0.117,0.057,0.176,0.088c0.115,0.058,0.23,0.121,0.35,0.188
				c0.063,0.035,0.123,0.071,0.186,0.106c0.137,0.082,0.279,0.172,0.422,0.267c0.045,0.029,0.088,0.054,0.135,0.087
				c0.188,0.128,0.381,0.27,0.576,0.422c0.049,0.037,0.098,0.08,0.146,0.119c0.148,0.122,0.301,0.248,0.453,0.384
				c0.07,0.062,0.141,0.127,0.211,0.193c0.139,0.127,0.277,0.261,0.418,0.402c0.072,0.074,0.146,0.148,0.221,0.226
				c0.148,0.156,0.299,0.324,0.449,0.495c0.063,0.073,0.125,0.141,0.189,0.215c0.211,0.253,0.426,0.517,0.639,0.801
				c0.031,0.043,0.063,0.092,0.094,0.135c0.182,0.245,0.363,0.503,0.545,0.775c0.07,0.105,0.141,0.22,0.211,0.33
				c0.146,0.227,0.289,0.461,0.434,0.705c0.076,0.127,0.152,0.258,0.229,0.393c0.145,0.256,0.291,0.525,0.434,0.8
				c0.068,0.131,0.137,0.257,0.203,0.39c0.195,0.388,0.387,0.79,0.578,1.216c0.014,0.03,0.027,0.057,0.041,0.088
				c0.203,0.456,0.402,0.939,0.598,1.438c0.061,0.152,0.119,0.315,0.178,0.473c0.137,0.36,0.271,0.731,0.404,1.115
				c0.068,0.197,0.135,0.398,0.201,0.601c0.125,0.38,0.248,0.774,0.369,1.177c0.063,0.206,0.125,0.41,0.186,0.624
				c0.139,0.482,0.273,0.987,0.404,1.503c0.037,0.145,0.076,0.281,0.113,0.428c0.166,0.666,0.324,1.361,0.477,2.082
				c0.039,0.188,0.076,0.39,0.115,0.583c0.111,0.546,0.219,1.103,0.322,1.682c0.049,0.271,0.096,0.552,0.143,0.832
				c0.09,0.536,0.178,1.084,0.26,1.646c0.043,0.298,0.088,0.597,0.129,0.903c0.086,0.621,0.166,1.265,0.242,1.918
				c0.029,0.256,0.063,0.503,0.09,0.764c0.1,0.92,0.193,1.867,0.275,2.85c0.014,0.181,0.025,0.372,0.039,0.554
				c0.064,0.815,0.123,1.648,0.174,2.508c0.021,0.352,0.037,0.717,0.057,1.077c0.037,0.724,0.068,1.464,0.096,2.221
				c0.016,0.401,0.029,0.806,0.041,1.217c0.02,0.791,0.037,1.602,0.047,2.426c0.006,0.382,0.014,0.754,0.016,1.141
				c0.01,1.216,0.008,2.457-0.008,3.745c-0.063,4.731-0.111,8.85,0.104,12.491l0.711,0.244c0.063,0.021,0.121,0.054,0.182,0.082
				c0.049,0.022,0.098,0.04,0.145,0.066c0.113,0.06,0.223,0.133,0.328,0.213c0.021,0.017,0.045,0.029,0.066,0.047
				c0.123,0.101,0.238,0.216,0.344,0.343c0.031,0.036,0.057,0.076,0.084,0.114c0.072,0.095,0.143,0.193,0.205,0.299
				c0.029,0.053,0.057,0.108,0.084,0.164c0.053,0.1,0.1,0.206,0.141,0.313c0.021,0.061,0.045,0.123,0.064,0.184
				c0.037,0.119,0.064,0.24,0.09,0.365c0.012,0.058,0.025,0.113,0.035,0.172c0.027,0.186,0.043,0.375,0.039,0.569l-0.086,6.83
				l-0.068,5.2l-0.396,31.025l-0.232,17.897l-0.57,44.563l-40.75,0.314l-45.49,0.354L806.332,285.193z M895.773,35.136
				l-0.369,28.786l-0.23,17.881c-0.004,0.354-0.025,0.704-0.059,1.05c-0.012,0.114-0.035,0.226-0.049,0.339
				c-0.029,0.228-0.059,0.456-0.102,0.679c-0.023,0.133-0.059,0.263-0.088,0.393c-0.045,0.198-0.088,0.398-0.143,0.589
				c-0.039,0.136-0.086,0.269-0.129,0.403c-0.057,0.181-0.115,0.361-0.182,0.537c-0.051,0.133-0.107,0.262-0.164,0.394
				c-0.07,0.169-0.143,0.335-0.221,0.498c-0.063,0.128-0.129,0.252-0.195,0.378c-0.084,0.156-0.168,0.311-0.258,0.46
				c-0.072,0.122-0.148,0.24-0.225,0.358c-0.098,0.143-0.193,0.285-0.295,0.422c-0.082,0.112-0.166,0.222-0.252,0.331
				c-0.105,0.132-0.215,0.26-0.326,0.385c-0.055,0.061-0.107,0.119-0.162,0.178c-0.035,0.034-0.068,0.074-0.102,0.11
				c-0.156,0.159-0.318,0.313-0.484,0.459c-0.076,0.068-0.15,0.14-0.229,0.204c-0.246,0.206-0.5,0.396-0.762,0.57
				c-0.002,0.001-0.002,0.001-0.004,0.001c-0.012,0.008-0.025,0.014-0.039,0.023c-0.234,0.152-0.477,0.292-0.727,0.417
				c-0.09,0.044-0.182,0.079-0.271,0.121c-0.178,0.081-0.354,0.16-0.537,0.226c-0.031,0.012-0.064,0.02-0.096,0.032
				c-0.061,0.021-0.119,0.037-0.18,0.056c-0.221,0.07-0.441,0.132-0.666,0.179c-0.107,0.023-0.215,0.042-0.324,0.063
				c-0.227,0.038-0.457,0.063-0.689,0.078c-0.076,0.004-0.15,0.014-0.229,0.015c-0.061,0.002-0.119,0.012-0.18,0.012l-35.072,0.272
				l-34.688,0.27c-0.357,0.001-0.707-0.032-1.051-0.081c-0.096-0.015-0.191-0.032-0.287-0.051c-0.271-0.052-0.539-0.119-0.803-0.202
				c-0.051-0.016-0.105-0.021-0.154-0.038l-19.002-6.497c0.729,0.249,1.498,0.379,2.295,0.373l14.637,5.004
				c-1.551-1.173-2.734-2.962-3.326-5.093c-0.283-1.016-0.438-2.106-0.424-3.248l0.23-17.882l0.379-29.454h-28.691l-4.635,360.909
				l-0.451,35.028l-0.582,45.32l-6.02,0.047l-0.566,44.104l-9.326,0.073l-0.127,9.926h172.107l0.145-11.261l-9.271-3.17
				l0.523-40.864l-6.006-2.054l5.627-438.06H895.773z"/>
		</defs>
		<clipPath id="SVGID_44_">
			<use xlink:href="#SVGID_43_"  overflow="visible"/>
		</clipPath>
		
			<linearGradient id="SVGID_45_" gradientUnits="userSpaceOnUse" x1="0.041" y1="400.0752" x2="1.2811" y2="400.0752" gradientTransform="matrix(-9.0967 487.1809 487.1809 9.0967 -194057.5 -3701.3477)">
			<stop  offset="0" style="stop-color:#C91127"/>
			<stop  offset="0.3016" style="stop-color:#C91127"/>
			<stop  offset="0.7884" style="stop-color:#3E0042"/>
			<stop  offset="1" style="stop-color:#3E0042"/>
		</linearGradient>
		<polygon clip-path="url(#SVGID_44_)" fill="url(#SVGID_45_)" points="938.863,35.31 931.336,534.524 751.676,530.371 
			759.205,31.155 		"/>
	</g>
	<g clip-path="url(#SVGID_2_)">
		<defs>
			<rect id="SVGID_46_" y="35.136" width="960" height="495.408"/>
		</defs>
		<clipPath id="SVGID_47_">
			<use xlink:href="#SVGID_46_"  overflow="visible"/>
		</clipPath>
		<path clip-path="url(#SVGID_47_)" fill="#C91127" d="M798.131,85.498c-0.799,0.006-1.568-0.124-2.295-0.373l19,6.497
			c0.051,0.017,0.105,0.023,0.156,0.039c-0.799-0.253-1.545-0.646-2.225-1.159L798.131,85.498z"/>
		<path clip-path="url(#SVGID_47_)" fill="#27062B" d="M816.082,91.912c-0.096-0.012-0.191-0.032-0.287-0.05
			C815.891,91.88,815.986,91.9,816.082,91.912"/>
	</g>
	<g clip-path="url(#SVGID_2_)">
		<defs>
			<rect id="SVGID_48_" y="35.136" width="960" height="495.408"/>
		</defs>
		<clipPath id="SVGID_49_">
			<use xlink:href="#SVGID_48_"  overflow="visible"/>
		</clipPath>
		<path clip-path="url(#SVGID_49_)" fill="#FCFCFC" d="M90.516,86.698c0,0.447-0.312,0.809-0.697,0.809
			c-0.385,0-0.697-0.362-0.697-0.809c0-0.447,0.312-0.808,0.697-0.808C90.204,85.89,90.516,86.25,90.516,86.698"/>
		<path clip-path="url(#SVGID_49_)" fill="#FCFCFC" d="M171.689,58.836c0,0.684-0.478,1.239-1.067,1.239
			c-0.589,0-1.066-0.555-1.066-1.239s0.477-1.238,1.066-1.238C171.211,57.598,171.689,58.153,171.689,58.836"/>
		<path clip-path="url(#SVGID_49_)" fill="#FCFCFC" d="M402.951,74.532c0,0.406-0.283,0.735-0.633,0.735s-0.633-0.329-0.633-0.735
			c0-0.406,0.283-0.736,0.633-0.736S402.951,74.126,402.951,74.532"/>
		<path clip-path="url(#SVGID_49_)" fill="#FCFCFC" d="M527.318,126.313c0,0.406-0.283,0.735-0.633,0.735s-0.633-0.329-0.633-0.735
			c0-0.407,0.283-0.736,0.633-0.736S527.318,125.906,527.318,126.313"/>
		<path clip-path="url(#SVGID_49_)" fill="#FCFCFC" d="M542.283,55.079c0,0.406-0.283,0.735-0.633,0.735s-0.633-0.329-0.633-0.735
			s0.283-0.735,0.633-0.735S542.283,54.673,542.283,55.079"/>
		<path clip-path="url(#SVGID_49_)" fill="#FCFCFC" d="M682.838,153.414c0,0.406-0.283,0.736-0.633,0.736s-0.633-0.33-0.633-0.736
			c0-0.406,0.283-0.736,0.633-0.736S682.838,153.007,682.838,153.414"/>
		<path clip-path="url(#SVGID_49_)" fill="#FCFCFC" d="M676.602,192.176c0,0.407-0.283,0.734-0.633,0.734s-0.633-0.327-0.633-0.734
			c0-0.406,0.283-0.736,0.633-0.736S676.602,191.771,676.602,192.176"/>
		<path clip-path="url(#SVGID_49_)" fill="#FCFCFC" d="M613.945,216.601c0,0.405-0.285,0.734-0.633,0.734
			c-0.35,0-0.633-0.329-0.633-0.734c0-0.407,0.283-0.734,0.633-0.734C613.66,215.866,613.945,216.193,613.945,216.601"/>
		<path clip-path="url(#SVGID_49_)" fill="#FCFCFC" d="M724.143,98.758c0,0.407-0.283,0.737-0.633,0.737s-0.633-0.33-0.633-0.737
			c0-0.406,0.283-0.735,0.633-0.735S724.143,98.352,724.143,98.758"/>
		<path clip-path="url(#SVGID_49_)" fill="#FCFCFC" d="M96.752,178.847c0,0.407-0.283,0.736-0.633,0.736s-0.633-0.33-0.633-0.736
			c0-0.405,0.283-0.734,0.633-0.734S96.752,178.442,96.752,178.847"/>
		<path clip-path="url(#SVGID_49_)" fill="#FCFCFC" d="M202.623,129.574c0,0.406-0.283,0.735-0.633,0.735
			c-0.35,0-0.633-0.329-0.633-0.735c0-0.406,0.283-0.735,0.633-0.735C202.339,128.838,202.623,129.168,202.623,129.574"/>
		<path clip-path="url(#SVGID_49_)" fill="#FCFCFC" d="M183.727,70.151c0,0.683-0.478,1.238-1.067,1.238s-1.066-0.555-1.066-1.238
			c0-0.684,0.477-1.238,1.066-1.238S183.727,69.467,183.727,70.151"/>
		<path clip-path="url(#SVGID_49_)" fill="#FCFCFC" d="M860.871,183.279c0,0.684-0.479,1.238-1.068,1.238
			c-0.588,0-1.064-0.554-1.064-1.238s0.477-1.238,1.064-1.238C860.393,182.041,860.871,182.596,860.871,183.279"/>
		<path clip-path="url(#SVGID_49_)" fill="#FCFCFC" d="M17.637,170.774c0,0.684-0.478,1.238-1.067,1.238s-1.066-0.554-1.066-1.238
			s0.477-1.238,1.066-1.238S17.637,170.091,17.637,170.774"/>
		<path clip-path="url(#SVGID_49_)" fill="#FCFCFC" d="M170.623,169.536c0,0.683-0.478,1.238-1.067,1.238s-1.066-0.555-1.066-1.238
			c0-0.684,0.477-1.239,1.066-1.239S170.623,168.853,170.623,169.536"/>
		<g opacity="0.71" clip-path="url(#SVGID_49_)">
			<g>
				<defs>
					<polygon id="SVGID_50_" points="-24.456,562.194 470.544,562.194 6,377.08 -24.456,96.604 					"/>
				</defs>
				<use xlink:href="#SVGID_50_"  overflow="visible" fill="#727272"/>
				<clipPath id="SVGID_51_">
					<use xlink:href="#SVGID_50_"  overflow="visible"/>
				</clipPath>
				<g clip-path="url(#SVGID_51_)">
					<defs>
						<rect id="SVGID_52_" x="-24.456" y="96.604" width="495" height="465.59"/>
					</defs>
					<clipPath id="SVGID_53_">
						<use xlink:href="#SVGID_52_"  overflow="visible"/>
					</clipPath>
				</g>
			</g>
		</g>
		<line clip-path="url(#SVGID_49_)" fill="#FBFAFF" x1="157.219" y1="419.488" x2="156.432" y2="426.563"/>
	</g>
	<g clip-path="url(#SVGID_2_)">
		<defs>
			<path id="SVGID_54_" d="M228.406,383.728L132.479,435.5l-38.902,58.767c0,0,17.509,33.551,34.84,36.277h2.878
				c22.07-3.729,114.503-82.956,114.503-82.956c4.809,5.143,84.769,44.56,84.769,44.56l13.553,7.179
				c7.164-10.499,15.108-35.599,15.108-35.599s-83.753-65.457-101.697-76.24c-7.791-4.682-14.308-6.008-19.188-6.008
				C231.986,381.479,228.406,383.728,228.406,383.728"/>
		</defs>
		<clipPath id="SVGID_55_">
			<use xlink:href="#SVGID_54_"  overflow="visible"/>
		</clipPath>
	</g>
	<g clip-path="url(#SVGID_2_)">
		<defs>
			<path id="SVGID_56_" d="M425.482,449.146c-7.065,11.247-40.317,35.464-40.317,35.464l-45.104-31.893l-12.996,37.063
				l74.133,40.763h1.936l43.216-73.143c-4.417-7.354-11.646-8.698-16.331-8.698C427.332,448.703,425.482,449.146,425.482,449.146"/>
		</defs>
		<clipPath id="SVGID_57_">
			<use xlink:href="#SVGID_56_"  overflow="visible"/>
		</clipPath>
	</g>
	<g clip-path="url(#SVGID_2_)">
		<defs>
			<path id="SVGID_58_" d="M16.907,422.882l20.787,10.347c-0.174-5.547-0.368-11.184-0.578-16.833l-20.669-10.38
				C16.606,411.819,16.761,417.481,16.907,422.882"/>
		</defs>
		<clipPath id="SVGID_59_">
			<use xlink:href="#SVGID_58_"  overflow="visible"/>
		</clipPath>
	</g>
	<g clip-path="url(#SVGID_2_)">
		<defs>
			<path id="SVGID_60_" d="M18.203,470.384l19.324,32.629c0.862-6.465,1.101-18.964,0.95-34.513l-20.624-10.972
				C18.072,465.554,18.203,470.384,18.203,470.384"/>
		</defs>
		<clipPath id="SVGID_61_">
			<use xlink:href="#SVGID_60_"  overflow="visible"/>
		</clipPath>
	</g>
	<g clip-path="url(#SVGID_2_)">
		<defs>
			<path id="SVGID_62_" d="M38.477,468.5c-0.056-5.787-0.167-11.994-0.319-18.471l-20.796-10.495
				c0.19,6.959,0.357,13.075,0.491,17.994"/>
		</defs>
		<defs>
			<path id="SVGID_63_" d="M17.853,457.528"/>
		</defs>
		<clipPath id="SVGID_64_">
			<use xlink:href="#SVGID_62_"  overflow="visible"/>
		</clipPath>
		<clipPath id="SVGID_65_" clip-path="url(#SVGID_64_)">
			<use xlink:href="#SVGID_63_"  overflow="visible"/>
		</clipPath>
		
			<linearGradient id="SVGID_66_" gradientUnits="userSpaceOnUse" x1="-0.7974" y1="399.8359" x2="0.4809" y2="399.8359" gradientTransform="matrix(40 -132 -132 -40 52839.3203 16338.7832)">
			<stop  offset="0" style="stop-color:#CC1B31"/>
			<stop  offset="0.2381" style="stop-color:#CC1B31"/>
			<stop  offset="0.8307" style="stop-color:#EF0C27"/>
			<stop  offset="1" style="stop-color:#EF0C27"/>
		</linearGradient>
		<polygon clip-path="url(#SVGID_65_)" fill="url(#SVGID_66_)" points="10.87,466.064 19.138,432.274 44.97,441.968 36.701,475.754 
					"/>
	</g>
	<g clip-path="url(#SVGID_2_)">
		<defs>
			<path id="SVGID_67_" d="M16.447,406.016l20.669,10.38c-0.206-5.548-0.427-11.108-0.654-16.601l-20.457-10.009
				C16.154,395.26,16.303,400.694,16.447,406.016"/>
		</defs>
		<clipPath id="SVGID_68_">
			<use xlink:href="#SVGID_67_"  overflow="visible"/>
		</clipPath>
	</g>
	<g clip-path="url(#SVGID_2_)">
		<defs>
			<path id="SVGID_69_" d="M16.908,422.886c0.161,5.91,0.313,11.502,0.454,16.648"/>
		</defs>
		<defs>
			<path id="SVGID_70_" d="M17.362,439.534l20.796,10.495c-0.127-5.439-0.284-11.064-0.463-16.791"/>
		</defs>
		<clipPath id="SVGID_71_">
			<use xlink:href="#SVGID_69_"  overflow="visible"/>
		</clipPath>
		<clipPath id="SVGID_72_" clip-path="url(#SVGID_71_)">
			<use xlink:href="#SVGID_70_"  overflow="visible"/>
		</clipPath>
		
			<linearGradient id="SVGID_73_" gradientUnits="userSpaceOnUse" x1="0" y1="394.793" x2="1" y2="394.793" gradientTransform="matrix(21.2507 0 0 -21.2507 16.9121 8826.0723)">
			<stop  offset="0" style="stop-color:#1E0060"/>
			<stop  offset="0.3122" style="stop-color:#1E0060"/>
			<stop  offset="1" style="stop-color:#1E3360"/>
		</linearGradient>
		<rect x="16.908" y="422.886" clip-path="url(#SVGID_72_)" fill="url(#SVGID_73_)" width="21.25" height="27.144"/>
	</g>
	<g clip-path="url(#SVGID_2_)">
		<defs>
			<path id="SVGID_74_" d="M14.89,348.931l19.743,10.898c-0.367-7.406-0.714-14.114-1.015-19.814l-19.242-9.925
				C14.535,335.917,14.708,342.261,14.89,348.931"/>
		</defs>
		<clipPath id="SVGID_75_">
			<use xlink:href="#SVGID_74_"  overflow="visible"/>
		</clipPath>
	</g>
	<g clip-path="url(#SVGID_2_)">
		<defs>
			<path id="SVGID_76_" d="M32.802,325.013l-18.815-9.18c0.116,4.24,0.247,9.043,0.389,14.257"/>
		</defs>
		<defs>
			<path id="SVGID_77_" d="M14.376,330.09"/>
		</defs>
		<clipPath id="SVGID_78_">
			<use xlink:href="#SVGID_76_"  overflow="visible"/>
		</clipPath>
		<clipPath id="SVGID_79_" clip-path="url(#SVGID_78_)">
			<use xlink:href="#SVGID_77_"  overflow="visible"/>
		</clipPath>
	</g>
	<g clip-path="url(#SVGID_2_)">
		<defs>
			<path id="SVGID_80_" d="M16.005,389.786l20.457,10.009c-0.305-7.335-0.624-14.552-0.944-21.463l-20.123-10.871
				C15.596,374.817,15.801,382.333,16.005,389.786"/>
		</defs>
		<clipPath id="SVGID_81_">
			<use xlink:href="#SVGID_80_"  overflow="visible"/>
		</clipPath>
	</g>
	<g clip-path="url(#SVGID_2_)">
		<defs>
			<path id="SVGID_82_" d="M14.89,348.931c0.163,5.968,0.333,12.188,0.505,18.53"/>
		</defs>
		<defs>
			<path id="SVGID_83_" d="M35.518,378.332c-0.299-6.49-0.598-12.709-0.885-18.503"/>
		</defs>
		<defs>
			<path id="SVGID_84_" d="M15.395,367.461"/>
		</defs>
		<clipPath id="SVGID_85_">
			<use xlink:href="#SVGID_82_"  overflow="visible"/>
		</clipPath>
		<clipPath id="SVGID_86_" clip-path="url(#SVGID_85_)">
			<use xlink:href="#SVGID_83_"  overflow="visible"/>
		</clipPath>
		<clipPath id="SVGID_87_" clip-path="url(#SVGID_86_)">
			<use xlink:href="#SVGID_84_"  overflow="visible"/>
		</clipPath>
		
			<linearGradient id="SVGID_88_" gradientUnits="userSpaceOnUse" x1="4.882813e-004" y1="395.3125" x2="1.0005" y2="395.3125" gradientTransform="matrix(20.6287 0 0 -20.6287 14.8828 8518.4023)">
			<stop  offset="0" style="stop-color:#1E0060"/>
			<stop  offset="0.3122" style="stop-color:#1E0060"/>
			<stop  offset="1" style="stop-color:#1E3360"/>
		</linearGradient>
		<rect x="14.89" y="348.931" clip-path="url(#SVGID_87_)" fill="url(#SVGID_88_)" width="20.628" height="29.401"/>
	</g>
	<g clip-path="url(#SVGID_2_)">
		<defs>
			<rect id="SVGID_89_" y="35.136" width="960" height="495.408"/>
		</defs>
		<clipPath id="SVGID_90_">
			<use xlink:href="#SVGID_89_"  overflow="visible"/>
		</clipPath>
	</g>
	<g clip-path="url(#SVGID_2_)">
		<defs>
			<path id="SVGID_91_" d="M8.323,142.618c-5.097,4.524-7.46,12.292-8.323,20.74v18.224c0.904,11.241,2.998,20.271,2.998,20.271
				s20.873,40.323,12.486,57.348c0,0,5.376-4.742,5.645-8.043c0,0,4.852,30.711-0.09,41.77c0,0,30.356-35.313,9.74-96.606
				l4.218-40.858l1.62-10.297c0,0-6.167-8.185-15.316-8.186C17.428,136.98,13.023,138.446,8.323,142.618"/>
		</defs>
		<clipPath id="SVGID_92_">
			<use xlink:href="#SVGID_91_"  overflow="visible"/>
		</clipPath>
	</g>
	<g clip-path="url(#SVGID_2_)">
		<defs>
			<rect id="SVGID_93_" y="35.136" width="960" height="495.408"/>
		</defs>
		<clipPath id="SVGID_94_">
			<use xlink:href="#SVGID_93_"  overflow="visible"/>
		</clipPath>
	</g>
	<g clip-path="url(#SVGID_2_)">
		<defs>
			<path id="SVGID_95_" d="M32.285,201.408c4.451,9.872,8.471,33.96,8.471,33.96c4.395-2.956,25.46-28.337,25.46-28.337l6.16-42.194
				c14.53,24.217,42.349,45.592,42.349,45.592s6.389-9.938-0.775-44.883c-7.163-34.948-45.809-37.623-45.809-37.623
				c-2.383-0.349-4.623-0.515-6.741-0.515C19.716,127.415,28.049,192.016,32.285,201.408"/>
		</defs>
		<clipPath id="SVGID_96_">
			<use xlink:href="#SVGID_95_"  overflow="visible"/>
		</clipPath>
	</g>
	<g clip-path="url(#SVGID_2_)">
		<defs>
			<rect id="SVGID_97_" y="35.136" width="960" height="495.408"/>
		</defs>
		<clipPath id="SVGID_98_">
			<use xlink:href="#SVGID_97_"  overflow="visible"/>
		</clipPath>
		<path clip-path="url(#SVGID_98_)" fill="#1E2C60" d="M32.976,200.265"/>
		<path clip-path="url(#SVGID_98_)" fill="#BCBBC4" d="M228.95,367.681"/>
	</g>
	<g clip-path="url(#SVGID_2_)">
		<defs>
			<path id="SVGID_99_" d="M26.415,267.463l-7.958,25.01c3.371-3.971,7.11-6.929,11.062-9.078l5.555-16.816
				C31.676,266.613,28.79,266.968,26.415,267.463"/>
		</defs>
		<clipPath id="SVGID_100_">
			<use xlink:href="#SVGID_99_"  overflow="visible"/>
		</clipPath>
	</g>
	<g clip-path="url(#SVGID_2_)">
		<defs>
			<path id="SVGID_101_" d="M39.888,279.57c3.389-0.736,6.832-1.057,10.255-1.055l2.813-9.56c-2.698-0.692-5.245-1.223-7.618-1.593
				L39.888,279.57z"/>
		</defs>
		<clipPath id="SVGID_102_">
			<use xlink:href="#SVGID_101_"  overflow="visible"/>
		</clipPath>
	</g>
	<g clip-path="url(#SVGID_2_)">
		<defs>
			<path id="SVGID_103_" d="M60.016,279.339c17.669,2.831,32.525,11.975,32.525,11.975l-8.092-9.07
				c-8.175-4.632-15.52-7.968-22.103-10.358L60.016,279.339z"/>
		</defs>
		<clipPath id="SVGID_104_">
			<use xlink:href="#SVGID_103_"  overflow="visible"/>
		</clipPath>
	</g>
	<g clip-path="url(#SVGID_2_)">
		<defs>
			<rect id="SVGID_105_" y="35.136" width="960" height="495.408"/>
		</defs>
		<clipPath id="SVGID_106_">
			<use xlink:href="#SVGID_105_"  overflow="visible"/>
		</clipPath>
		<path clip-path="url(#SVGID_106_)" fill="#BCBBC4" d="M263.638,266.322c0,0,0.734-0.031,4.309-0.182"/>
		<path clip-path="url(#SVGID_106_)" fill="#BCBBC4" d="M267.947,266.141"/>
	</g>
	<g clip-path="url(#SVGID_2_)">
		<defs>
			<path id="SVGID_107_" d="M35.347,268.173c1.645,0.293,3.509,0.744,5.527,1.319l3.342-38.133c-2.046-0.908-3.835-1.678-5.246-2.27
				L35.347,268.173z"/>
		</defs>
		<clipPath id="SVGID_108_">
			<use xlink:href="#SVGID_107_"  overflow="visible"/>
		</clipPath>
	</g>
	<g clip-path="url(#SVGID_2_)">
		<defs>
			<path id="SVGID_109_" d="M56.003,236.938c-1.956-0.985-3.862-1.915-5.681-2.774l-1.762,37.83"/>
		</defs>
		<clipPath id="SVGID_110_">
			<use xlink:href="#SVGID_109_"  overflow="visible"/>
		</clipPath>
	</g>
	<g clip-path="url(#SVGID_2_)">
		<defs>
			<path id="SVGID_111_" d="M50.322,234.163c-2.195-1.037-4.258-1.982-6.106-2.804l-3.342,38.133
				c2.375,0.681,4.967,1.53,7.686,2.501"/>
		</defs>
		<clipPath id="SVGID_112_">
			<use xlink:href="#SVGID_111_"  overflow="visible"/>
		</clipPath>
	</g>
	<g clip-path="url(#SVGID_2_)">
		
			<linearGradient id="SVGID_113_" gradientUnits="userSpaceOnUse" x1="-0.5361" y1="400.0195" x2="-0.5361" y2="400.0195" gradientTransform="matrix(9.6667 -55.3333 -55.3333 -9.6667 22218.582 4084.9211)">
			<stop  offset="0" style="stop-color:#1E2C60"/>
			<stop  offset="0.3122" style="stop-color:#1E2C60"/>
			<stop  offset="0.7989" style="stop-color:#1E4760"/>
			<stop  offset="1" style="stop-color:#1E4760"/>
		</linearGradient>
		<path fill="url(#SVGID_113_)" d="M78.944,247.684"/>
		
			<linearGradient id="SVGID_114_" gradientUnits="userSpaceOnUse" x1="-1.2983" y1="399.9941" x2="-1.2983" y2="399.9941" gradientTransform="matrix(9.6667 -55.3333 -55.3333 -9.6667 22218.582 4084.9211)">
			<stop  offset="0" style="stop-color:#1E2C60"/>
			<stop  offset="0.3122" style="stop-color:#1E2C60"/>
			<stop  offset="0.7989" style="stop-color:#1E4760"/>
			<stop  offset="1" style="stop-color:#1E4760"/>
		</linearGradient>
		<path fill="url(#SVGID_114_)" d="M72.958,290.108"/>
	</g>
	<g clip-path="url(#SVGID_2_)">
		<defs>
			<rect id="SVGID_115_" y="35.136" width="960" height="495.408"/>
		</defs>
		<clipPath id="SVGID_116_">
			<use xlink:href="#SVGID_115_"  overflow="visible"/>
		</clipPath>
		<path clip-path="url(#SVGID_116_)" fill="#110409" d="M99.533,209.466"/>
		<path clip-path="url(#SVGID_116_)" fill="#110409" d="M93.554,209.466"/>
		<path clip-path="url(#SVGID_116_)" fill="#110409" d="M99.533,209.466"/>
		
			<path clip-path="url(#SVGID_116_)" fill="none" stroke="#261508" stroke-width="2" stroke-linecap="round" stroke-miterlimit="10" d="
			M90.513,194.826"/>
		<path clip-path="url(#SVGID_116_)" fill="#CCA37A" d="M95.342,237.177"/>
	</g>
</g>
<path fill="#27062B" d="M865.749,40.247c0,0,9.501,1.458,10.501-8.292s18.959,3.505,18.959,3.505s0.432,10.693-12.193,10.068
	S865.749,40.247,865.749,40.247z"/>
</svg>
